<svg id="Layer_1" data-name="Layer 1" xmlns="http://www.w3.org/2000/svg" viewBox="0 0 500 500"><title>athena-staff</title><path d="M283.77,261.7c43.93-18.14,70-67.3,60.11-113.58-10.94-51-54.34-84-106.3-80.86-48.11,2.9-87.53,42.81-92,93.11-3.89,44.18,23.59,87.31,65,102.54,5.13,1.89,7.31.6,10.93-3.26,12.91-13.73,11.44-29.88,10-46.25l-7.62-2c-1.81-18.32,7.18-23.51,37.53-20.69,0,10.64.57,20.95-.14,31.17-1,13.91,2.35,25.86,11.63,36.58C276.45,262.54,278.79,263.75,283.77,261.7Z"/><path d="M466.39,0H33.62A33.62,33.62,0,0,0,0,33.62V466.38A33.62,33.62,0,0,0,33.62,500H466.38A33.62,33.62,0,0,0,500,466.39V33.62A33.62,33.62,0,0,0,466.39,0ZM469,244.69a34.21,34.21,0,0,0-1.63,5.74C457.55,345.12,385.12,424.1,291.56,442c-10,1.91-20.06,3.32-30.1,5H238.4c-6.57-1.07-13.12-2.22-19.7-3.18C77.19,423-8.32,274.46,49.06,137.36c.82-2,2.21-3.7,4.82-8C57,149.57,59.94,167,62.3,184.49c.35,2.6-1.62,5.69-3,8.3s-5.1,5.15-5,7.56c1,19.38-.19,39.51,4.76,57.94,20.64,76.71,73,120.8,149,138.92,4.72,1.13,9.64,1.46,15,2.24,2.13-10.48,4-19.85,6-29.3C141.57,355.7,84.5,280.41,93.15,194.36,100.93,117,167.69,54.78,244.74,53.14c82.84-1.76,151.5,56.89,161.57,139.78,10.2,84-45,162.08-135.6,177.51,2.15,9.44,4.28,18.76,6.4,28.07a12.86,12.86,0,0,0,2.85.62,34.69,34.69,0,0,0,5.29-.49c25.19-4.68,49.23-12.75,70.85-26.6,61.68-39.52,93.34-95.23,89.71-169.42-.16-3.18-1.49-8.61-3.2-9-6.14-1.42-5.7-5.66-5.14-9.54,2.51-17.35,5.41-34.65,8.16-52l2.87-.33c3.29,8.62,7.36,17,9.69,25.92,4.16,15.84,7.26,32,10.81,48Z"/></svg>