<svg id="Layer_1" data-name="Layer 1" xmlns="http://www.w3.org/2000/svg" viewBox="0 0 656.36 898.12"><title>pegasus</title><path d="M657,680c-2.67,7.67-7.65,12.59-16,13.35-5,.45-9.19-1.06-12.1-5.21-2.31-3.3-2.49-7.07-.19-10.28,1.42-2,3.88-3.28,6-4.72,1.43-1,3.05-1.66,5.46-2.94-8-2.53-12.59-.84-15.16,6-4.72,12.52-9,25.23-13.05,38-6,18.75-13.16,36.84-26.15,52-18.06,21.13-39.57,36.23-68.2,38.86a69.79,69.79,0,0,0-7.26,1.38c-.06,0-.07.29,0,.07,8.65,4.43,17.06,9.12,25.78,13.11,10.19,4.65,20.31,10.19,31.07,12.66,19.7,4.52,39,2.9,55.48-11a26.1,26.1,0,0,1,3.84-2.25c5.79-3.37,8.32-8.47,7.6-15-.14-1.34-1.46-2.57-2.24-3.85-.65,1.26-1.83,2.5-1.85,3.77-.08,3.94-.28,7.67-3.9,10.21s-10,2.64-14.17,0a12.25,12.25,0,0,1-5.41-13c2.15-9.79,9.58-17.35,19.5-17.7,9.3-.34,16.29,5,21,12.9,6.87,11.57,3.91,22.42-6,33.95-9.71,11.27-23.06,15.61-37.09,18.63-29.68,6.39-56.43-1.77-82.09-16C504,823.09,486.67,812,467,806.25c-25.65-7.48-49.86-3.67-72,11.62a19.45,19.45,0,0,0-3.38,3c-3.23,3.57-6.62,6.25-11.77,7.26-6.45,1.27-9.69,7-7.53,12.35a37.27,37.27,0,0,0,3.36-3.62c4-5.63,7.95-6.79,14-4s8.59,7.73,7,13.71a19.26,19.26,0,0,1-29.09,11.32c-17-10.83-26.11-36.74-20.16-57.78,4.44-15.7,12.75-28.8,26.49-38,7-4.66,14.49-6.34,22.57-2.78,5.94,2.62,7.83,8.38,4.9,15.09-2.45,5.62-9.31,8.43-14.64,6-3.19-1.47-3.53-3.94-.69-6.11a53.3,53.3,0,0,1,5.2-3.13c-2.09-3.47-5-2.95-6.77-1.09-7.05,7.37-15.77,14.07-16.1,25.38-.16,5.5,1.8,11.07,3.55,16.63,8.11-10.53,18.42-17,29.64-22.31s23.24-6.41,35.27-7.57c19-1.82,38-2.9,56.92-5.25,9.34-1.16,18.48-4.41,24.73-12.43,7.28-9.31,5.82-18.47-4.12-25.12,3-5.89,3.64-11.9-.45-17.64a12.23,12.23,0,0,0-3.79-3.88c-1.66-.86-3.78-.86-5.7-1.23,1,1.46,1.7,3.2,2.95,4.34,5,4.5,6.23,9.85,3.47,15.67-3,6.37-8.58,9.27-15.93,8.3a13,13,0,0,1-11-11.21c-2-16.51,7.46-25.6,23.49-27.55,19-2.31,37,11.18,39.09,30.14,1.36,12.1-3.39,22.79-12.81,31-1.74,1.51-3.6,2.89-5.39,4.34-.09.07,0,.3-.26,2,6.18-1.5,12.14-2.24,17.54-4.39,15.26-6.1,25.94-17.56,32.45-32.22,7.1-16,13-32.55,19-49,4.7-12.87,13.05-22.67,24.15-30.19a25.66,25.66,0,0,1,19.88-4.18c8.21,1.56,12.84,6.33,14.89,14.11a13.67,13.67,0,0,0,1,2.19Z" transform="translate(-0.64 0)"/><path d="M573,0c5.61,2.57,11.67,4.46,16.72,7.86,8.55,5.78,10.55,20.14,5.07,30.32-4.83,9-16.06,13.67-25.38,10.59A17.24,17.24,0,0,1,558.66,26c1.89-4.94,5.45-8.26,10.59-8.63,5.35-.39,9.36,2.76,12.24,7.22,1,1.57,2,3.15,3,4.72l1.82-.43c-.1-1.65.24-3.47-.35-4.92a16.91,16.91,0,0,0-24-8.48c-8.13,4.38-13.91,11.2-19.15,18.56-7.32,10.28-14.56,20.61-21.94,30.84-6.79,9.42-15,17.33-25.31,22.88a15.5,15.5,0,0,0-5.64,4.9c2.12.11,4.25.37,6.37.29,12-.45,15.93,6.43,18.29,14.73,2.61,9.18-1.21,17.55-9.63,21.89-5.36,2.75-11,4.1-17.25,2.46-10-2.62-14.44-11.13-10.42-20.67,1.93-4.59,5.91-5.63,10.18-5.67s7.12,2.36,8.34,6.52c.55,1.86,1.06,3.74,2,6.94,1.56-1.94,2.92-2.84,3-3.89.78-7.39-7.42-15.33-14.75-13.84-5.12,1-9.77.66-14.91-.2-6.89-1.14-14.2-.65-21.23.06-27.8,2.8-51.49-5.37-70.16-26.29-10.09-11.3-11.22-24.88-6.5-38.78,4.8-14.13,14.8-23.13,29.58-25.78,7.81-1.4,15.4,0,20.38,7.3,4.52,6.59,3.83,13.57.42,20.31a13,13,0,0,1-15.7,6.37c-5.92-2-9.33-7.47-7.8-13.79.68-2.81,3-5.22,4.58-7.86-4.34-1.33-7.5.92-8.83,5.88-.59,2.21-1,4.7-2.25,6.45-5.06,6.87-4.22,13.93-.32,20.54,8.7,14.71,22,22.55,38.9,24.57,27.34,3.26,48.54-8.85,67.15-27,8.08-7.89,15.56-16.42,23.17-24.78C534.14,15.63,546.36,3.87,564,0Z" transform="translate(-0.64 0)"/><path d="M90,0c19.58,4.19,32.29,17.92,44.78,32.06,14.21,16.1,28.45,32.35,48.42,41.6,20.15,9.34,40.69,10.66,60.55-.83,9.68-5.6,17.25-13.49,19.84-25,.29-1.28.73-2.81.31-3.92-2.5-6.57-5.18-13.07-8-19.52a4.87,4.87,0,0,0-2.57-2.25c-.91-.36-2.1,0-3.16.05.06.93-.26,2.31.24,2.74,5.71,4.93,5.35,10.27,1.1,15.75A12.34,12.34,0,0,1,238,44.44c-5.58-1.87-9.36-7.8-10.07-14.77-1.27-12.52,9.28-22.11,24.16-19.1,15.73,3.19,25.49,13.26,29.64,28.38,4.56,16.63,0,31.08-13.08,42.28-18.54,15.9-40,22.86-64.54,20-8.95-1-18-2.29-27,1.32-2.1.85-5.12-.42-7.69-.89-10.95-2-15.51,6.3-15.79,13.24,0,1.06,1,2.15,2.18,4.54,1.16-3,1.86-4.46,2.29-6,1.79-6.44,4.08-8.09,10.72-7.56,5.3.42,8.21,3.8,9.08,9.43,2.17,14.12-11.35,19.94-24,16.18-15.63-4.66-20.36-22.93-8.66-34.41,2.25-2.21,6.07-3.16,9.34-3.91s6.49-.41,10.81-.61c-1.59-1.39-2.27-2.28-3.17-2.71-16-7.8-26.66-21-36.44-35.26-6.94-10.13-14-20.22-21.91-29.64-3.69-4.42-9-7.91-14.17-10.6C82,10.38,70.37,16.1,68,24.52c-.36,1.29.43,2.9.68,4.36,1.09-.87,2.54-1.51,3.2-2.63,5-8.47,11-11,17.77-7.27s9.17,14.12,5.08,21.57c-6.56,11.92-24.84,12.35-33.34.77-11.5-15.67-3.15-36.1,16.4-40.16C79.21.87,80.6.39,82,0Z" transform="translate(-0.64 0)"/><path d="M253,147.11c6,.46,6.93,3.67,7.91,7,4.6,15.88,9,31.82,14,47.55a160.77,160.77,0,0,0,19.69,40.46c1.87-.69,3.74-1.25,5.49-2.06,19.23-8.91,38.51-8.93,57.58.2,4.37,2.09,6.29,1,8.54-2.8,12.23-20.58,19.76-43,26-65.9,1.68-6.23,3.1-12.55,5.09-18.68.78-2.4,2.79-4.4,4.23-6.58l1.69.48c1.38,5.74,2.47,11.57,4.22,17.2,4.21,13.56,8.32,27.18,13.23,40.5,6.74,18.3,2.36,33.79-10.62,47.39-4.9,5.14-10.31,9.78-15.87,15-5.58-9.55-6.26-19.41-4.47-29.26,2.92-16.09,6.68-32,9.9-48.06.72-3.55.67-7.26.95-10.9.73-9.73,1.44-19.45,1.46-29.63-.7,1.07-1.79,2.08-2,3.24-.77,4.06-1.86,8.19-1.73,12.26.62,19-4.61,37-8.67,55.27-2.65,11.91-6.51,24.41-2.39,36.3,4.44,12.82,5,26.28,8.78,39,3,10.15,9,19.39,13.39,29.17,13.9,31,15.24,62.27.4,93.16-4.21,8.76-11.38,16.11-17.63,23.43-.28,2.36-.17,4.86-.92,7.06-4.92,14.4-9.76,28.83-15.16,43.05-4.08,10.73-5.4,21.82-6,33.08-1.1,22.3-12.41,36.35-34.35,41-16.92,3.57-29.67-4.39-41-16.13-6.93-7.16-7.34-16.16-7.2-24.62.28-17.67-6.12-33.42-11.69-49.5-3.09-8.92-6.37-17.76-9.56-26.64-.28-.78-1-1.73-.72-2.33,2.3-6.16-3-8.19-6.08-11.41-11.79-12.34-17.53-27.43-20.3-44-4.86-29,1.81-55.56,16.5-80.46a57.1,57.1,0,0,0,8.15-24.23,95.11,95.11,0,0,1,5.89-25.91c4.61-12.18,1.4-24.9-1-37.23-2.37-12.17-5.63-24.17-7.8-36.36-1.27-7.15-1.13-14.54-1.71-21.81C258.67,158.55,259.85,152.17,253,147.11Zm7.46,210.07h-2.66l22,32.41a11.24,11.24,0,0,0-1.36-6c-5-7.94-10.22-15.73-15.37-23.58,5.2,5.11,11.2,8.34,18.71,7,6.81-1.2,13.12-4.28,11.18-11.37-2.37-8.67-6.68-16.25-13.76-21.94-6.48-5.21-18.39-3.71-23.29,3a7.74,7.74,0,0,0-1.27,5.93C256.13,347.59,258.42,352.34,260.43,357.18ZM395,360.07c2.56-4.93,5.63-9.68,7.46-14.87.9-2.56.53-6.68-1-8.8-4.77-6.47-16-7.7-22.51-2.93-7.39,5.41-11.48,13.06-14,21.7-1.34,4.62.16,7.91,4.46,9.69a41.71,41.71,0,0,0,8,2.18C384.1,368.33,389,364.38,394,361c-6.42,9-14.24,17.27-16.3,28.72l22.18-32.62-.57-.59Zm-40.9-105.92-2.39-.08c-.21,5.88-.77,11.77-.53,17.64.55,13.59.89,27.3,9.89,38.8a17.74,17.74,0,0,1,2.44,4.86c4.86,13.31-1.3,27.45-13.68,31.06a75,75,0,0,1-44.12-.58c-4.87-1.52-8.59-4.47-10.4-9.29-3.85-10.23-3.6-20.09,3-29.33,1.73-2.4,3.65-4.93,4.46-7.7,4.12-14.23,3.71-28.86,3.21-43.47,0-.8-1-1.58-1.5-2.37L303,254c0,9.58.28,19.17-.09,28.73-.34,8.66-1.93,17.08-7.47,24.29a28.61,28.61,0,0,0-3.62,7.07c-6.14,15.63,1.43,31.21,17.33,35.56a73.22,73.22,0,0,0,34.56,1.07c7.37-1.54,15.34-2.74,19.47-10.44,5.55-10.33,7-21.36.1-31.13-7.4-10.49-8.67-22-9.15-33.95C353.84,268.21,354.07,261.17,354.07,254.15ZM300.88,355.7l-1.3-.47c-.6,1-1.28,2.06-1.78,3.15a81.91,81.91,0,0,0-6.86,30.35c-.73,16.07,4.9,30.5,11,45a93.94,93.94,0,0,1,6.79,24.16c1.7,13.45-2.2,26.29-7.25,38.71-.59,1.46-1,3-1.48,4.5,1.53,0,2.21-.29,2.46-.8,7.06-14.27,11.26-29.46,8.81-45.19-1.56-10.1-5.75-20-9.89-29.47-9.54-21.86-9.88-43.66-1.57-65.81C300.27,358.49,300.52,357.07,300.88,355.7Zm57.12-.63-1.25.54c.45,1.67,1,3.33,1.33,5,2,9.7,4.79,19.33,5.64,29.13,1.28,14.78-3.67,28.53-10.26,41.51-10.52,20.76-9.21,41.6-1.37,62.65a82.58,82.58,0,0,0,3.93,7.95l1.57-.72c-.62-1.9-1.11-3.87-1.88-5.71-5.65-13.38-9-27.38-6.41-41.72,1.68-9.29,5.46-18.35,9.34-27.06,9.67-21.73,10.37-43.58,2.37-65.83A46.47,46.47,0,0,0,358,355.07Zm-2.09,155L337.56,526.7c9.85,2.87,18.14-1.35,20.75-9.92C359.34,513.42,358.24,511.45,355.91,510.06ZM301.68,510c-3.91,2.42-3.16,5.75-1.59,9.07,3.23,6.85,10.26,9.75,20.37,8.18Z" transform="translate(-0.64 0)"/><path d="M245.58,425.15c11.84,10.18,16.86,23.58,21.35,37.36,3.78,11.64,8.34,23,11.85,34.74,2.06,6.9,3,14.18,4,21.35.81,5.91.56,12,1.45,17.86,2,13.26,11.47,21,22,27.35,18.1,10.84,39.49,7.36,55-7,9.26-8.62,13.27-18.6,13-30.93-.35-17.1,5.47-32.83,11.23-48.56,3.41-9.3,7.2-18.52,9.8-28.06,2.73-10,10.94-16,16.48-25.57,1.16,8.56,2.14,15.94,3.15,23.31q3.84,28.07,7.68,56.12c2.13,15.58,4.41,31.15,6.25,46.77,1.34,11.35,3.31,22.81,2.84,34.14-2,49.28-17.63,93.55-51.65,130.13C368,727,354.12,737.46,337.12,743.23a25,25,0,0,1-17-.07c-13.25-4.62-24.67-12.26-34.82-21.65-29.89-27.69-47-62.4-55.2-101.92-3.32-16-5.05-32.21-3.85-48.51.86-11.54,2.75-23,4.29-34.5,2.47-18.38,5.08-36.74,7.56-55.12C240.64,462.8,243.07,444.12,245.58,425.15Z" transform="translate(-0.64 0)"/><path d="M129.57,772c-2.71-2.33-5.55-4.51-8.1-7-12.5-12.22-14.08-33-3.53-45.23,13.1-15.24,32.89-18.53,47.65-7.92,7,5,10.42,16,7.55,24.12-2.09,5.92-6.73,9.11-13.31,9.16s-11.6-3.77-14-10.65c-1.95-5.63-.73-9.2,4.9-13.75a27.74,27.74,0,0,1,3.91-2.24l-1.58-2.55c-1.93.67-4.19.91-5.73,2.09-6.82,5.19-7.93,10.8-5.16,19.06-2.86,5.53-6.17,9.63-7.11,14.22-1.65,8.11,3.07,14,9.55,18.28,9.66,6.41,20.78,8.43,32,9.51,19.63,1.88,39.36,2.77,58.94,5.08s36.29,11.09,48.46,27.26c.16.21.59.22.89.32a26,26,0,0,0-2.19-31.63c-2.5-2.88-4.79-6-7.68-8.46-2-1.68-4.9-2.32-7.4-3.42-.36.6-.73,1.2-1.1,1.8a39.33,39.33,0,0,1,2.94,3c1.25,1.53,2.34,3.18,3.5,4.78-1.88,1.06-3.68,2.86-5.65,3.06-6.2.62-11-3.33-12.16-9.29-1.26-6.64,1.58-11.23,8.3-13.24,11.28-3.36,19.7,2.31,27.32,9.29,13.79,12.61,21.26,28.86,21.47,47.18.21,17.4-7.88,32.23-22,42.61-11.85,8.71-28,.84-30-13.84-.56-4.14,3.63-9.54,8.83-11.38s9.44-.34,12.21,3.47c1.15,1.58,3.15,2.54,4.76,3.79-.51-2.21-.31-5.24-1.7-6.45-2.86-2.5-6.53-4.09-9.93-5.94-1.36-.74-3.44-.75-4.28-1.81-9.44-11.89-22.64-16.92-36.71-20.38-23.38-5.76-45-.18-65.7,10.62-17.15,8.95-34,18.47-51.61,26.56-27,12.45-54.72,11.89-82.07.69C21.44,837.56,12.14,828.57,8,815.1c-4.34-14,7.11-31.28,21.8-31.78,12.92-.43,23.32,11.27,20.94,24-1.06,5.71-7.06,9.19-14,8.59-5.58-.49-8.68-4.16-8.87-10.48a5.42,5.42,0,0,0-.06-2,31.06,31.06,0,0,0-2-3.36c-.79,1.1-2.08,2.12-2.3,3.33-.9,4.87.15,9.69,4.05,12.64,8.79,6.68,17.44,13.63,28.74,16.15,21.15,4.71,40.78.92,59.49-9.38,10.26-5.65,19.86-12.67,31.6-15.26.17,0,.23-.55.44-1.1-7.25-1.37-14.49-2.61-21.66-4.12C105,797.9,89.26,785,75,769.72c-16.09-17.24-24.22-38.47-30.91-60.53-3.36-11.06-7.35-21.94-11.27-32.82-1.71-4.75-5.55-7.36-10.5-8-1-.13-2.24.94-3.36,1.46.72.92,1.25,2.27,2.19,2.68,7.91,3.46,10.8,8.14,8.47,14.12-2.16,5.56-10.67,8.31-17.76,5.62C1.08,688.16-1,679.59,1.71,667.34,4.93,652.79,20.18,650.62,30.37,655c15.46,6.6,24.71,18.87,30.55,34.25,6.52,17.14,12.46,34.59,20.37,51.08,7.48,15.63,20,26.83,37.45,31.2A100.39,100.39,0,0,0,129.17,773Z" transform="translate(-0.64 0)"/><path d="M167.48,349.84c2,5.17,3.1,9.77,5.44,13.59,4.81,7.87,11.16,10.28,18.41,7.93,8.48-2.74,12.6-8.89,12.61-18.09,0-6.56-.45-13.34.95-19.66,3.3-15,12.61-25.22,27.07-30.66a9.07,9.07,0,0,0,4.57-3.24c-14.37,1.42-24.13,10-32.62,22.78.12-10.8,2.83-19.34,9.76-25.41,6.5-5.69,14.23-10,21.68-15.07-8.49-.57-14.15,3-31,19,2.65-20.81,19.17-38.47,39.49-41.62a11.07,11.07,0,0,1,7.94,2.6c10.44,9.24,10.07,10.16,7.86,24-1.67,10.49-6.52,19.37-11.32,28.42-9.62,18.16-15.82,37.41-15,58A151.28,151.28,0,0,0,239.14,407a55.54,55.54,0,0,1,1.61,23.4c-3.35,24.46-6.57,48.93-9.92,73.39-2.79,20.33-5.79,40.64-8.49,61a77.46,77.46,0,0,0-.41,14c.21,4.11-1.61,5.22-5.28,5.11-13.67-.41-23.39-7-30.07-19,4.9,1,9.43,2.56,14,2.8s9.51.19,13.19-5.75c-14.86,4.7-25.77-1.17-35.59-9.64-6.07-5.24-8.58-12.43-8.15-21.55,11,12.31,23.12,17.09,37.29,7.17A19.3,19.3,0,0,0,216,520.21c-7.27,14.42-16.76,23.34-34.89,15.45a68.3,68.3,0,0,0,7.28-2.49,26.4,26.4,0,0,0,5.81-3.73c8.86-7.67,10.09-16.38,3.63-26a78.86,78.86,0,0,0-7.11-9c-13.22-14.64-10.85-40.18,4-53.59a21.93,21.93,0,0,0,4.83-6.13c-17.15,3.85-26.81,15.32-32,32.13-5.62-11.9-5.72-23.24-1.13-34.65,4.82-11.95,14.81-17.79,26.64-21.4-6.78-7.18-26.32.33-41.55,15.45-1-6.42,3.09-15.94,9.52-21.57,8.11-7.11,17-12.62,28.16-13.57,1.3-.11,2.53-1.06,5-2.18C181.21,383,169.46,377,166.52,362.76,165.71,358.84,167.07,354.47,167.48,349.84Z" transform="translate(-0.64 0)"/><path d="M473.31,312.26c5.79,5.75,6.08,20.06,1.84,27.07-3.62,6-13.34,7.7-18.86,3.31-1.9-1.51-3.75-3.1-5.86-4.85-.92,6.76,7.48,17.21,16.61,21.35,10.17,4.61,17.31,1.63,29.57-12.37-1.57,11-3.18,22.32-15.32,27-11.54,4.42-20.93-.24-29.08-9,2.79,10,8.79,17.19,17.87,21.21,9.33,4.13,18.68,3,28.29-3.3-2.89,9.18-7,15.6-15.73,17.62-8.15,1.88-14.6-1.55-19.88-7.47-3.57-4-6.86-8.23-10.27-12.35l-1.81,1.35c1.67,2.47,3.2,5.05,5,7.39,11.48,14.62,14.14,30.93,9.65,48.72-1.66,6.57-3.68,13.16-4.36,19.86-1.42,13.84,3.28,25.42,15.56,34.06-13.93-.92-23.45-7.77-30.94-17.95s-10.76-21-5.78-34.25c-6.22,3.05-7,8.15-6.48,12.11,2.2,16.26,4.66,32.72,18.15,44.39,11,9.49,29.74,16.73,45,4.58,2.71-2.15,5.11-4.69,8.93-8.24-.66,4.31-.68,7.39-1.64,10.14C497,522.3,481.56,532,462,538.42c2.83-15.87-2.33-28-13.45-37.74-3.13-2.74-6.27-5.75-11.43-4.74,1.35,1.07,2.62,2.25,4,3.18C451.83,506,458,515.79,458.65,528.3c.48,8.59-2.51,16.55-7.35,23.85a92.93,92.93,0,0,0-8.74,15.55c-3.35,8.07-2.86,15.93,5.68,23l-11.7,1.72c-.48-9.12-.61-17.57-1.46-25.95-1.18-11.7-2.83-23.36-4.4-35-2.46-18.37-5.06-36.73-7.52-55.11-2.2-16.43-3.69-33-6.66-49.25-1.6-8.79,1.44-16.1,3.56-24,8.86-32.82,3.9-63.89-13.2-92.92-6.92-11.76-9.46-24.24-9.81-37.48a5.81,5.81,0,0,1,1.34-3.95c4.37-4.33,8.86-8.56,13.55-12.54a5.46,5.46,0,0,1,4.62-.76c18,7.3,27.54,20.48,27.47,40.23,0,6.31-.47,12.74.58,18.9,1.69,9.87,7.28,14.8,14.41,14.27C467.57,328.22,472.28,322.87,473.31,312.26Z" transform="translate(-0.64 0)"/><path d="M500.31,525.33c28.36,30.83,56.44,61.52,84.8,92,3.64,3.9,2.74,6.91,0,9.8a133.59,133.59,0,0,1-13.88,12.82c-21.63,17.13-46,29.5-71.48,39.6a14.42,14.42,0,0,1-6.74,1.17c-1.7-.21-4-1.56-4.69-3-12.69-27.88-25.17-55.85-38.05-84.59,1.67-1.09,3.56-2.34,4.64-3.06-3.43-3.35-7.52-5.62-8.66-8.91a18.07,18.07,0,0,1,.6-12.36c4-8.54,9.07-16.54,13.81-24.72a3.83,3.83,0,0,1,2.25-1.76c12.94-2.26,22.91-11,34.66-15.81Z" transform="translate(-0.64 0)"/><path d="M114.39,157c9.53,6.52,18.42,12.31,26.91,18.63,1.91,1.42,2.75,4.61,3.51,7.15.55,1.85.19,4,.19,6q0,115,0,230c0,16.16.22,32.33,0,48.49-.06,4.93,1.69,8.51,5.81,10.7,10.38,5.51,20.79,11,31.37,16.07,8.16,3.93,12.82,10.95,15.2,18.8,2,6.5-3.14,11.43-8.2,15.27-3.33,2.52-11.35,3.06-14.17.57-1.56-1.37-2.49-3.83-2.95-6-.49-2.32-.11-4.82-.11-7.24l-1.35-.44L166,524c-.13,0-.7.18-1.05,0-14.54-8.29-29.13-16.5-43.54-25-5.3-3.13-7.23-8.49-7.23-14.48q0-162.24,0-324.49C114.16,159.36,114.26,158.72,114.39,157Z" transform="translate(-0.64 0)"/><path d="M153,523.63q-8.85,9.66-17.71,19.35-32.44,35.28-64.88,70.56c-4,4.33-6,4.87-10.31.8C34.7,590.16,14.78,562.91,10.8,526.53c-1.25-11.46-2.75-22.67,1.13-33.93,1-2.78,2.17-3.53,4.91-3.49,30.13.41,60.26.69,90.39,1.11,1.21,0,3.19.76,3.5,1.63,2.5,7.13,8.23,11.14,14.15,14.84C134,512.39,143.3,517.79,153,523.63Z" transform="translate(-0.64 0)"/><path d="M504.59,523.68c9.9-6,19.87-11.89,29.68-18,5.38-3.37,10.25-7.31,12.69-13.63.4-1,2.82-1.76,4.32-1.78,15.82-.21,31.64-.19,47.46-.37,13.8-.15,27.6-.36,41.39-.78,3.37-.11,4.8.85,5.84,4.19,4.38,14,1.91,27.89-.44,41.71-5.37,31.57-23.94,55.5-45.71,77.47-.93.93-2.17,1.56-3.15,2.46-3.22,3-5.85,2.63-8.85-.68-12.61-13.94-25.41-27.7-38.13-41.53Z" transform="translate(-0.64 0)"/><path d="M157.28,525.56c6.69,1.32,9,4.76,8.87,11.54-.12,7.26,4.1,13.41,9.22,18.75a34,34,0,0,1,6.26,8.76c5.66,12.06,14.77,19.69,28.09,23-6.28,14.09-12.55,28.26-18.89,42.39q-10.26,22.89-20.63,45.74c-2.57,5.67-4.3,6.81-10.27,4.2-14.56-6.35-29.48-12.23-43.13-20.22-14.25-8.34-27.23-18.87-40.65-28.61-1.94-1.41-3.38-3.62-4.77-5.65-2.07-3-1.52-5.58,1.08-8.39q42-45.17,83.74-90.55A14.39,14.39,0,0,1,157.28,525.56Z" transform="translate(-0.64 0)"/><path d="M499.19,520.07c8.53-10.66,12.91-22.16,7.8-37-10.87,15.41-23.1,25.3-41.87,16.52l-.45-1.6c4.35-.93,8.72-1.74,13-2.83a103.36,103.36,0,0,0,10.77-3.37c.55-.2.57-1.83,1.11-3.77,5.25-3.12,11.81-7,18.35-10.9,3.15-1.87,4.29-4.59,4.3-8.32q.22-96.42.65-192.84.14-45.74-.08-91.47c0-4.7,1.5-7.87,5.34-10.4,8.31-5.47,16.5-11.14,25.72-17.39V162q0,158.45,0,316.89c0,10.45-3.12,18.61-12.78,23.91-10.51,5.77-20.69,12.13-31,18.24C499.8,520.73,499.49,520.4,499.19,520.07Z" transform="translate(-0.64 0)"/><path d="M109.85,238.86c-7-3.73-13.44-7.09-19.83-10.5-24.85-13.24-49.5-26.87-74.65-39.51-7.82-3.94-9.12-9.77-9.16-16.84q-.19-38.22,0-76.44c0-7.13.5-14.27,1-21.38.14-2,1.17-3.93,1.8-5.9,2.05.85,4.59,1.2,6.08,2.64,9,8.67,17.25,18.14,26.65,26.31,18.81,16.36,37.87,32.46,57.49,47.82,7.54,5.91,11.3,11.57,10.88,21.64-.92,22.12-.28,44.3-.28,66.45Z" transform="translate(-0.64 0)"/><path d="M547.88,238.37V211.18c0-17.32.12-34.64-.08-52,0-4,1.12-6.5,4.42-9.08,30.64-24,61.14-48.12,87.86-76.62,2.19-2.34,5.62-3.51,8.48-5.22.76,3.13,2.13,6.24,2.19,9.38q.76,37.41,1,74.83c.06,8.79-.31,17.61-1.12,26.36-.23,2.51-2.12,5.89-4.24,7-32,17.44-64.16,34.57-96.29,51.75A13.64,13.64,0,0,1,547.88,238.37Z" transform="translate(-0.64 0)"/><path d="M109.12,411.29c-9.13-2.39-18.36-4.81-27.6-7.21q-32.35-8.43-64.72-16.86c-8.17-2.14-8.29-2.33-8.63-10.69C7.72,365.74,7.23,355,7,344.17c-.37-14.94-.67-29.9-.72-44.85,0-3.67,1.1-7.35,1.75-11.4L92,320.6c5.09,2,10.23,3.83,15.23,6a4.7,4.7,0,0,1,2.53,3.32c.12,26.63.06,53.26,0,79.9C109.74,410.14,109.5,410.43,109.12,411.29Z" transform="translate(-0.64 0)"/><path d="M547.88,411.44V351.5c0-6.5.2-13-.08-19.48-.15-3.35.92-4.87,4.11-6.09,32.24-12.43,64.41-25,97.51-37.95.55,3,1.53,5.79,1.51,8.58q-.34,34.17-1,68.34c-.09,4.8-1,9.61-.79,14.39s-2.07,6.5-6.09,7.53q-31,7.94-61.92,16Z" transform="translate(-0.64 0)"/><path d="M6,188.29l62.78,33.58c12.55,6.72,25.14,13.37,37.59,20.27,1.54.85,3.32,3,3.34,4.62.21,25.14.14,50.28.14,76.15-9.56-3.71-18.72-7.25-27.88-10.82Q48.24,299,14.52,285.77c-6.59-2.57-8.6-5.4-8.61-12.73,0-21.76,0-43.52.08-65.27Z" transform="translate(-0.64 0)"/><path d="M547.88,322.54v-44.3c0-10.32-.1-20.64.11-31,0-1.61,1-4,2.29-4.69q49.43-26.61,99-52.89a9.18,9.18,0,0,1,1.56-.39,88.44,88.44,0,0,1,.94,9.15q.12,37.2,0,74.41c0,7.6-2.09,10.26-9.35,13.1q-45.26,17.7-90.51,35.38C550.78,321.81,549.51,322.07,547.88,322.54Z" transform="translate(-0.64 0)"/><path d="M109.84,485.18c-18.11,0-35.69,0-53.26,0-12.49,0-25-.44-37.45,0-5.38.18-7.65-1.81-8-6.71C10.33,467,9.36,455.65,9,444.23c-.52-14.78-.62-29.57-.76-44.36,0-3.08.59-6.16,1-10,7.61,1.89,14.59,3.55,21.52,5.37,25.25,6.6,50.49,13.21,75.69,20,1.37.37,3.29,2.38,3.3,3.64C109.9,441,109.84,463.08,109.84,485.18Z" transform="translate(-0.64 0)"/><path d="M547.88,485.06V442.5c0-7.67,0-15.33,0-23,0-2.38.3-3.76,3.22-4.5,30.57-7.82,61.07-15.89,91.61-23.84,5.88-1.53,6.37-1.17,6.28,5.28-.29,22.61-.57,45.23-1.17,67.84a105.62,105.62,0,0,1-2.38,17.64c-.24,1.24-2.56,2.84-4,2.93-5.81.36-11.65.2-17.48.2Z" transform="translate(-0.64 0)"/><path d="M343.52,216.85c7.16,7.17,14.9,5.83,30.54-3.67-4.08,7.88-8.17,15.76-11.68,22.52-11.76-2.36-22.45-5.41-33.33-6.45-11.2-1.08-21.78,3.2-32.72,7.8-5.69-11-14.28-20.76-14.17-34.23.13-15.43,6.43-27.83,18.5-37.48,4.13-3.31,8.36-6.84,11.4-11.08a24.74,24.74,0,0,0,4.37-12.16c.4-5.88-3.51-10.82-7.91-12-5.44-1.48-8.75,1.63-11.5,5.92-1.85-6.95,2.71-15,10.57-19.12,11.85-6.18,29.24-3,38.05,6.86,10.86,12.21,12.82,28.29,3.5,40.08-5.48,6.92-12.78,12.46-19.55,18.28-7,6-13.17,12.33-14.19,22-.27,2.56.3,5.21.49,7.82h1.79q.3-2.73.61-5.46c1.2-10.18,8.11-16.25,15.48-22.23,6.17-5,12.46-10.1,17.47-16.17,3.4-4.12,5.33-9.81,6.75-15.11,1.68-6.28,8.17-10.71,14.39-8.63,4.15,1.38,8.71,8.47,8.73,13.56,0,4.8-3,8.94-8.2,10.66-1.57.52-4.39.91-4.92.16-1.09-1.54-1.82-4.19-1.22-5.86,1.11-3.07,3.29-5.77,4.93-8.47-5.52-.83-11.21,5.36-9.18,11.76a42.39,42.39,0,0,0,7.71,14.16c5.32,6.32,9.54,12.54,5.69,20.94-4.28,9.36-11.86,14.51-22.06,15.57C350.75,217.12,347.59,216.85,343.52,216.85Z" transform="translate(-0.64 0)"/><path d="M171.83,683.17c7.66-17.32,14.56-33.06,21.59-48.74,5.82-13,12-25.85,17.59-38.94,2.12-4.93,4-9.23,10.64-7.43a225.05,225.05,0,0,0,12.67,62.58,220.61,220.61,0,0,0,30.82,57C233,704.23,202.64,694.6,171.83,683.17Z" transform="translate(-0.64 0)"/><path d="M391.67,707.56c26-32.83,39.31-70,43.63-110.55l11.47-1.23C459.48,624.15,472.26,652.65,485,681,477.44,689.18,408.58,708.79,391.67,707.56Z" transform="translate(-0.64 0)"/><path d="M263.45,267.15c-6.6-6.38-13.58-12-19.1-18.75-9.49-11.65-13.2-25-8.5-40,5.57-17.8,10.92-35.67,16.41-53.5a4.4,4.4,0,0,1,2.52-2.61c.69,5.49,2.13,11,1.91,16.48-.66,16.2,3.75,31.47,7.31,47a259.6,259.6,0,0,1,4.71,27.86C269.64,251.68,267.56,259.38,263.45,267.15Z" transform="translate(-0.64 0)"/><path d="M328.67,898.12c-10.73-.1-18.68-8.21-18.65-19,0-9.92,8.91-19.32,18.74-18.78,10.57.58,18.74,8,19,19.13C348.07,889.71,339.16,898.21,328.67,898.12Z" transform="translate(-0.64 0)"/><path d="M345.89,54.77a19,19,0,0,1-18.3,19.08c-10.33.17-19.3-8.32-19.44-18.42C308,45,316.52,36.13,326.69,36A19.18,19.18,0,0,1,345.89,54.77Z" transform="translate(-0.64 0)"/><path d="M379.09,364.94c-.66-.06-1-.07-1.32-.12-10.4-1.38-12.92-5.54-8.18-14.9a55.91,55.91,0,0,1,9.18-12.8,14.05,14.05,0,0,1,8.22-3.89c10.88-1.08,16,6.3,11.31,16.07C394.34,357.57,388.66,364,379.09,364.94Z" transform="translate(-0.64 0)"/><path d="M271.5,333.1c1.16.52,4.05,1.2,6.11,2.88,6.73,5.52,11.21,12.59,12.52,21.31a5.35,5.35,0,0,1-1.82,4.35c-4.77,3.15-10,4.12-15.57,2C265.61,361,257.37,349.6,257.08,342,256.9,337.43,263.3,333,271.5,333.1Z" transform="translate(-0.64 0)"/></svg>