<svg id="Layer_1" data-name="Layer 1" xmlns="http://www.w3.org/2000/svg" viewBox="0 0 656.64 910.12"><title>pegasus-2</title><path d="M574,0c4.94,1.74,10.14,3,14.76,5.31,12.5,6.39,17.83,20.16,13.86,34.41-3.25,11.68-14.4,19.69-27,19.39a21.69,21.69,0,0,1-21.53-20c-.06-.62-.25-1.23-.63-3.09-15.77,18.82-26,41-45.94,56A24.46,24.46,0,0,1,521,107.18c3.77,11.06,1,21.27-7.84,28-9.05,6.89-23.22,7.59-31.78,1.59-6.64-4.65-9.22-12.93-6.77-21.78.39-1.42.89-2.81,1.39-4.34-8.32-3.36-16.6-1.19-24.7-.42-20,1.89-38.12-2.91-54.83-13.59-11.28-7.21-20.65-16.23-24.6-29.56C363.7,39.6,384.28,7.88,414.38,10.14a22.28,22.28,0,0,1,20.07,16.58c2.37,8.94-1.49,20.44-8.57,24.84C419,55.82,410,57,400.69,47l-1.44.35c1,3.55,1.32,7.53,3.16,10.57,8.19,13.46,20.66,20.09,36.2,21.26,24.55,1.85,43.62-9.24,60.08-25.94,10.74-10.89,20.82-22.44,31.56-33.34,8.09-8.21,17.31-15,28.69-18.15L565,0ZM488.46,97.15,488.29,96c2.67-1.64,5.27-3.39,8-4.88a77.18,77.18,0,0,0,26.1-23.52c7.34-10.28,14.21-20.94,22.11-30.77a92.13,92.13,0,0,1,17.84-17.06c8.49-6.07,19.46-2.75,24.79,6.38,1.56,2.67,3.86,6.19.17,8.3s-4.42-2.06-5.78-4.35c-.25-.43-.43-1-.82-1.24-3.35-1.79-6.6-4.5-10.15-5-4.31-.61-7.26,2.87-8.83,6.8-2.3,5.78-2.08,11.49,2.19,16.35,4.1,4.66,9.37,6.8,15.62,5.5,9.47-2,16-8.32,17.44-16.89,1.86-10.72-2-19.55-11-24.6A32.77,32.77,0,0,0,562,7.69c-10.61,2.39-19,8.6-26.42,16.14-10.82,11.06-21,22.78-31.95,33.7C489.25,71.85,473,82.94,452,85.32c-19.92,2.27-37.25-2.61-50.88-17.88-4.61-5.16-9-11.39-7.73-18.26,1.39-7.39,5.4-14.3,8.32-21.39a2.36,2.36,0,0,1,1.44-1.32c2-.32,3.95-.41,5.93-.59-.41,1.86-.23,4.28-1.35,5.46-2.92,3.06-3.58,6.12-2,10a10.14,10.14,0,0,0,9,6.76A10.94,10.94,0,0,0,426,42.18c3.42-6,4.17-12.28.24-18.36-4.08-6.32-10.42-8-17.43-7.29-27.44,2.88-38.45,34.17-29.14,53,9.23,18.6,26.13,27.17,45,32.47,10.18,2.86,20.65,2.06,31.18,1.49,12.41-.67,24.94,0,37.38.72,6.5.37,12.15,8.57,11,14.94-.22,1.17-1.78,3-2.62,2.92-1.22-.07-2.67-1.36-3.44-2.52s-.72-2.88-1.28-4.24c-1.6-3.87-4.48-5.59-8.69-4.77-5.42,1.06-7.37,3.42-8.05,9.75a11.92,11.92,0,0,0,7.11,12.55c7.87,3.51,19.74,1,25.17-5.71,5.06-6.24,4.66-13.22,1.57-20.18-2.79-6.29-7.62-9.29-14.63-9A104.94,104.94,0,0,1,488.46,97.15Z" transform="translate(-0.6 0)"/><path d="M99,0c24.45,4.65,38.57,23.14,53.91,40.07,12,13.21,24.25,26.3,41,33.42,19.31,8.2,38.66,9.31,56.84-3.29,6.47-4.48,11.79-10.25,13.74-18.28a26.58,26.58,0,0,0,.3-5.07l-1.74-1.08a15.3,15.3,0,0,1-1.92,3.36c-8.31,8.4-20.84,7.4-27.41-2.45-5-7.48-6.45-15.7-2.22-24S242.62,10.29,252,10c21.22-.57,40,17.21,42.05,39.24,1.82,19.74-7,33.8-22.26,44.84a87.28,87.28,0,0,1-48.18,16.6c-6.25.28-12.55-1-18.84-1.22-5.22-.23-10.46,0-16.24,0,.61,2.62,1,4.18,1.34,5.75,3,13.55-2.42,22.12-16,25.21-10.64,2.41-24.41-3.56-29.16-12.64-5.24-10-2.8-23.72,5.77-31.49a55.57,55.57,0,0,1,6.32-4.3c-19.46-14.66-29.92-36.75-45.3-55.64-.54,1.87-1,3.32-1.37,4.81-2.94,13.47-15.93,21.08-29.23,17.08-12-3.62-19.42-12.9-20-25C60.23,18.46,66.25,8.62,79.35,3.39,82.8,2,86.44,1.12,90,0Zm77.12,97.17c-4.09.26-8.28,0-12.22.9-3.69.84-8.26,1.93-10.45,4.56-8.61,10.33-7.48,26.56,9.29,30.79,11.29,2.84,22.48-.84,21.39-13.4-.52-6-2.85-9-8.56-9.62-4.62-.52-7.19,1.66-8.63,7.57-.58,2.4-1.32,5.15-4.26,4-1.36-.56-2.61-3.66-2.39-5.42,1.23-9.8,9.12-14.57,19.45-12.25a21,21,0,0,0,5.3.47c8.38-.32,16.82-1.67,25.11-1,27,2.22,50.57-4.63,68.83-25.17,17.93-20.14,8-53.65-17.66-61C245.43,13.05,234.8,21.87,235.87,34c.54,6.21,4,12.24,9.1,13.68,4.65,1.33,9,.57,12.11-3.52,3.84-5.08,3.23-9.75-1.45-14.14-.67-.64-.58-3.17.13-3.9s3.36-1.11,3.9-.5a62.65,62.65,0,0,1,6.2,8.56c.85,1.35.75,3.32,1.68,4.58,5.63,7.68,4.49,15.44-.09,22.83-10.13,16.38-25.63,23.64-44.32,24.31-22.61.81-41.44-8.5-57.28-23.8-12.56-12.12-23.92-25.48-36.36-37.74C119.16,14.14,107.68,6,91.84,6.83c-19.36,1-30.65,18.88-21.9,35.52,6,11.49,22.85,14,30.77,4.56,4.15-5,4.39-10.62,2.05-16.4-1.61-4-4.59-6.7-9-6.84C87.89,23.48,84.23,26.85,82,32c-.07.15,0,.42-.14.47-1.65.76-3.3,1.49-5,2.24-.37-1.59-1.39-3.35-1-4.72C79,18.71,91.45,13.67,101.75,19.25,112.27,25,118.68,34.52,125.16,44,139.08,64.36,152.6,85.1,176.12,97.17Z" transform="translate(-0.6 0)"/><path d="M157.85,414.79c4.74-4.19,8.68-8.21,13.16-11.5s9.23-5.6,14.2-8.54c-2.41-2.08-5-4.07-7.29-6.33-9.12-8.95-12.82-19.61-7.52-31.65a254.57,254.57,0,0,1,17.65-32.36c-1.93,8.91-3.73,17.85-5.84,26.71-1.56,6.56-2,12.81,2.59,18.43,3.11,3.79,6.53,6.66,12,4.66s8.37-5.94,8.38-12.14c0-16-.05-32,0-48,.08-19.76,16.48-42.28,35.13-48.34,2.19-.71,4.43-1.29,7.22-2.1-1.89-2.62-3.87-4.81-5.22-7.35-7.17-13.45-10-26.95-4.5-42.28,6.75-18.8,11.62-38.26,17.32-57.43.37-1.24.88-2.44,1.28-3.57,9.49-.17,12.88,2.49,15.35,11.65q4.47,16.53,9.07,33c.39,1.41,1,2.77,1.62,4.63.7-.8,1.31-1.19,1.41-1.67,2.41-12.49,10.21-21.31,19.58-29.13,3.06-2.56,6.31-5.08,8.65-8.23A23.41,23.41,0,0,0,316,154c.65-3.32-.93-6.86-4.55-7.09-1.73-.11-4.13,2.62-5.4,4.6-2.13,3.31-3.6,7.05-5.66,11.24-3.72-10.72-7.19-20.86.28-30.58s18-13,30-11.5c17.61,2.21,27.83,12.67,32.61,29.22a12.86,12.86,0,0,0,1.07,2.13c12.14-3.92,19.64-.72,24.41,10.28,4.15,9.54.65,16.38-12.17,23.32,2.86,3.83,5.7,7.61,9.14,12.2,1.84-6.07,3.6-11.57,5.18-17.12,1.4-4.93,3-9.85,3.8-14.88,1.19-7.67,5.81-11.94,13.91-15.08,1.85,5.65,3.7,11.19,5.45,16.75,4.46,14.19,8,28.74,13.5,42.51,7.13,17.86,4.9,34-5.52,49.91,4.21,2.52,8.59,4.77,12.56,7.6,11.58,8.23,16.36,20.1,17.14,33.82.32,5.65-.16,11.33.15,17a28.65,28.65,0,0,0,2,8.57c1.45,3.82,4.36,5.79,8.65,5s7.63-4.27,7.32-8.69c-.36-5.26-1.5-10.47-2.3-15.7-.17-1.12-.32-2.25-.53-3.65,12.63,11.15,21.24,20.79,17.71,38.81-1.86,9.47-7.71,15-17.78,15.81,5.94,7.18,15.51,7.07,22.12-.29a39.41,39.41,0,0,0,6-9.62c3.45-7.34,6.52-14.85,9.77-22.28.12-.27.39-.48,1.59-.54-1.73,14-2.69,28.24-5.42,42.09-2.23,11.31-10.05,18.38-21.9,20.21-.39.06-.72.51-1.13.82,5.36,2.86,12.84,1.92,18.23-2.47,3.09-2.51,5.79-5.51,8.89-8s4.09-5.51,4.09-9.52c-.12-57.82,0-115.65-.16-173.48,0-6.22,2.14-10.66,7.17-14.35,20.08-14.71,40.2-29.37,59.91-44.58a470.83,470.83,0,0,0,60.16-54.68,23.07,23.07,0,0,1,5.79-4.62c7.69-4.21,12.3-1.58,12.74,7.39.56,11.46,1,22.93,1.1,34.4.13,21.83-.2,43.66-.07,65.48.19,31.38.63,62.75,1,94.13,0,1.17.38,2.5-.05,3.47-4.83,10.72-.47,21.67-.86,32.5-.39,11,.17,22-.15,33-.4,13.94-.41,28-2.3,41.76-1,7.4.86,14.27.55,21.45-.86,20.28-.65,40.6-1.31,60.88-.21,6.23-1.93,12.4-2.84,18.61-.25,1.72-.57,3.68,0,5.23,5.17,14.73,2.85,29.49.6,44.3-4.7,31-22.59,54.76-43,77-3.4,3.69-8.15,6.15-12.28,9.17-.64.47-1.72.78-1.91,1.37-3.56,11.26-13.48,16.7-21.89,23.16-20.26,15.56-42.88,27.06-66.63,36.3-3.62,1.41-7.72,1.56-11.61,2.26-1.11.2-2.45,0-3.34.52-16.3,9.86-34.88,13.34-52.85,18.18-14.15,3.82-28.87,5.49-43.3,8.31a9.94,9.94,0,0,0-4.86,2.86c-11.87,12.32-25.07,22.76-40.88,29.67-9.82,4.3-19.42,4.24-29.31-.15a113.53,113.53,0,0,1-36.16-25.21A24.59,24.59,0,0,0,265.94,715c-27-2.74-52.89-10.83-78.05-20.44-9.56-3.65-19.57-5-28.91-8.91-25.67-10.76-50.18-23.46-71.56-41.57-5.43-4.6-11.37-8.78-13.6-16.1a2.78,2.78,0,0,0-1.12-1.59c-17.19-8.88-26.59-25-37.4-39.9C21.16,567,15.79,544.75,14,521.26a64.3,64.3,0,0,1,2.87-25.37,13.84,13.84,0,0,0,.08-5.81c-.83-6.38-2.46-12.72-2.66-19.11-.68-21.78-1.49-43.6-1.09-65.38.46-25.19-3.29-50.22-2.25-75.41.29-6.82.12-13.66.08-20.49-.06-8.69,1.07-17.15-.29-26.15C8.59,269.52,10,255,10,240.63c0-8.66-.13-17.33.2-26,.22-5.76,1.28-11.48,1.68-17.25.16-2.24-.67-4.54-.72-6.82-.39-20.47-1-40.94-.93-61.4.07-15.11.92-30.22,1.9-45.29a12.24,12.24,0,0,1,4.21-7.61c3.17-2.64,6.82-.57,9.55,1.53a74.85,74.85,0,0,1,9,8.62c22.78,24.46,48.82,45.22,75.1,65.65,13.09,10.17,26.87,19.46,40.47,29,5.49,3.83,7.38,8.94,7.38,15.38q-.1,106,0,212Zm256.44,20c-6.1,7.34-12.2,13.31-14.49,22.11-1.69,6.53-4.4,12.81-6.77,19.16-7.63,20.38-14.89,40.8-14.26,63.09a20.54,20.54,0,0,1-2.5,10.55c-14.69,24.75-46.31,36.78-72.7,15.24-9-7.35-16-15.65-15.84-28.44.08-8.42-.16-17.25-2.58-25.19-6.41-21-13.72-41.83-21.51-62.4-2-5.17-7.09-9.13-11.21-14.2-2.59,18.87-5.06,36.61-7.45,54.36-2.47,18.41-4.53,36.88-7.4,55.23-3.61,23.08-5.64,46-1.81,69.35,5.53,33.74,17.61,64.53,38.92,91.41,12.77,16.11,27.95,29.33,47.06,37.62,7.73,3.34,15.51,3.67,23.06,0,6.39-3.11,12.93-6.27,18.57-10.52,45.9-34.55,65.44-82.67,69.54-138.15,2.07-28.07-5.22-55.45-8.39-83.13-2.12-18.61-4.95-37.14-7.46-55.71C416.18,448.66,415.29,442.15,414.29,434.79ZM399.63,174.38C391.79,202,383.92,229.46,367.17,254c-22.48-12.43-45.2-12.44-67.62,0a162.63,162.63,0,0,1-19.85-39.73C275,200.65,271,186.79,266.61,173c-.16,7.86-.37,15.72,1,23.31,2.49,14.15,6.14,28.1,8.81,42.23,2.54,13.49,3.74,27-3.49,39.76a10.89,10.89,0,0,0-.94,4.29c-1.28,13.24-3.06,26.13-10.15,38-13.63,22.88-19.91,47.59-15.88,74.39,2.89,19.2,9.18,36.66,24.81,49.49,1,.86,2.4,2.63,2.14,3.56-1.61,5.71,1.72,10.28,3.34,15.1,8,23.79,19,46.73,18.14,72.78-.22,6.56,2.25,12.41,6.85,17.63C313.1,567.11,330.8,573,346,567c12.18-4.88,22.7-12.21,25.73-26.16,1.15-5.31.71-10.95,1.44-16.37,1-7.36,1.62-14.9,3.82-21.92,5-15.94,10.89-31.59,16.26-47.41.76-2.25.55-4.82.91-8.44,2.39-2.39,6.08-5.55,9.12-9.25,16.21-19.7,19.87-43,18.24-67.45-1.26-18.92-8.58-36-18.07-52.16-4.48-7.62-6.32-15.86-7.48-24.5-.89-6.65-3.05-13.11-4.38-19.71s-3.64-13.39-3.17-19.92a189.42,189.42,0,0,1,5.5-32.28C397.76,205.93,401,190.5,399.63,174.38ZM213.56,304.68c1.36-1.28,1.84-1.69,2.27-2.14a45.8,45.8,0,0,1,23-13.12c1.1-.28,2.52.68,3.79,1.07-.68,1.25-1,3-2.1,3.67a64.6,64.6,0,0,1-7.54,3.76c-11.32,5.45-18.67,14-21.15,28,2.28-2.5,3.7-4,5.09-5.59,6.17-6.89,13.93-11.21,22.68-13.76,1.19-.35,2.81.8,4.23,1.26-.71,1.3-1.18,2.86-2.21,3.82s-2.43.94-3.66,1.43c-13.45,5.37-22.31,15.1-25.42,29.14-1.51,6.84-.89,14.17-1.16,21.28-.32,8.25-5.12,14.63-12.92,17-7,2.15-14.48-.65-19.12-7.31-1.44-2.06-2.6-4.31-3.88-6.47.41,17.26,13.62,22.71,27.49,29.12-2.72,1.66-4.6,3.73-6.64,3.9-10.87.92-19.46,6.22-27.19,13.32A28.78,28.78,0,0,0,160,429.8a47.51,47.51,0,0,1,30.29-15.38c4.51-.56,9-1.23,12.61,3.49-10.35,4-20.93,7.48-26.47,18.17-5.4,10.38-5.93,21-2.06,33.19,6.69-16.49,17.09-27.13,34.45-29.67a33.69,33.69,0,0,1-6.27,8.48A37.62,37.62,0,0,0,198.12,499c2.36,3,4.78,6,7.11,9,10.08,13.17,1.36,25.89-8,30.94-1.33.72-2.69,1.36-5.16,2.6,16.44,3.56,23.65-5.22,28.51-17.46l4,1.19c-1.64,10.5-6,17.56-13.88,21.35-12.07,5.81-22.64,2.26-32.42-6.83,1.44,9.89,4.75,15.31,12.46,20.4,8.85,5.86,18.17,9.57,28.85,4.94,1.45,7.83-4.39,9.65-22.34,7.29,4,8.58,17.07,16,26.27,14.48,1.16-.18,2.76-2.13,2.91-3.4.57-5,.3-10,.95-14.93C230.17,548,233.21,527.49,236,507c3.31-24.32,6.47-48.66,9.76-73a40.08,40.08,0,0,0-1.07-16.47c-3-11.12-5.57-22.59-6.41-34.05-1.75-23.94,5.72-45.93,17.69-66.3,6-10.28,8.18-21.27,8.87-32.74.14-2.23-1.32-4.85-2.72-6.79a28.12,28.12,0,0,0-6.12-5.85,8.25,8.25,0,0,0-4.84-1.66C232,271.09,217.89,288.54,213.56,304.68ZM461.84,590.29c-1.74,2.06-3,4-4.7,5.46-2.27,1.9-2,3.62-.93,6,11.29,24.89,22.45,49.84,33.67,74.75,3.15,7,4,7.42,11.15,4.67,24.94-9.52,48.45-21.73,69.5-38.29A156.23,156.23,0,0,0,585.38,629c1.74-1.79,2.17-4-.16-6.48Q544.79,579,504.66,535.19c-2.17-2.37-3.92-2.87-6.73-1.3-6.5,3.64-12.79,8.27-19.8,10.25-10,2.81-16.81,8-20.81,17.48-2.05,4.85-5.54,9.13-7.26,14C446.55,585.73,451,591.23,461.84,590.29ZM451,343.13c3.31,2.61,5.53,4.89,8.19,6.3s5.65,2.67,8.32,2.37a14.2,14.2,0,0,0,8.13-4.1c4.41-4.76,4.59-15.69,1-21.57-.57,1.28-1.07,2.47-1.63,3.63-2.86,5.87-7.82,8.42-14.09,8.55s-11-2.85-12.68-8.6a59.4,59.4,0,0,1-2.68-18.43c.82-21.59-4.92-35.51-24.68-44.38-2.51-1.13-4.18-1.08-6.16.88-3.65,3.64-7.58,7-11.25,10.62a5.13,5.13,0,0,0-1.59,3.35c.46,11.66,1.66,23.05,7.89,33.48,19.57,32.79,24.59,67.37,12.18,104a26.51,26.51,0,0,0-1.1,10.52c.73,8.43,2,16.8,3.12,25.19,2.74,20.89,5.6,41.76,8.23,62.66,3.18,25.33,9,50.4,7.83,76.19a6.83,6.83,0,0,0,.6,1.78l7.38-1.19c-9.79-10.75-5.45-20.66-.11-30.44,1.74-3.2,4.08-6.07,6-9.19,4.49-7.44,6.93-15.36,5.65-24.18-1.67-11.55-8.08-19.67-17.78-25.7-1.25-.77-1.53-3.1-2.26-4.71,1.64,0,3.6-.64,4.87,0,11.1,5.93,18.64,14.91,21.43,27.28,1,4.27.58,8.84.81,13.28,16.8-1.52,38.77-23.14,38.39-37.72-.16,0-.38-.09-.47,0a18.63,18.63,0,0,0-1.5,1.3c-9.79,9.39-21.09,12-34,7.6-10.45-3.58-19.06-9.8-24.32-19.52-6.39-11.79-10.1-24.56-9.34-38.1.26-4.64,2.88-8.76,8.28-9.92-1,23.93-1,24.38,3.48,31.51,7,11.26,18.07,19.42,24.61,18.85-2.48-4.61-5.54-9.33-7.66-14.44-4.41-10.65-1.7-21.29,1.41-31.65,6-19.91,3.29-38-10.28-54.14-1.89-2.25-3.05-5.12-4.55-7.7l1.62-1.34c3,2.45,6.12,4.72,8.85,7.41,2.11,2.08,3.49,4.89,5.54,7,4.83,5.05,10.55,8,17.81,6.41,6.54-1.45,10.2-5.88,13-12.15-23.27,6.37-44-5.19-44.89-25.59,3.13,2.6,5.78,4.51,8.07,6.79,6.3,6.27,14.41,8.2,22.36,5.08,7.35-2.88,12.57-10.65,12.8-19.53-8.72,8.83-18.52,12.89-29.57,5.69C458.37,361.52,450.81,355.52,451,343.13ZM179.55,516.21l1.55.72a32.44,32.44,0,0,0-1,4.8c-.24,4.08-1.19,8.54,3,11.32,3.66,2.42,10.22,1.11,14.22-2.47,5.22-4.65,7.14-9.86,4.69-14.45-3.71-6.92-8.17-12.93-15.94-16.37-10-4.4-19.51-9.84-29.12-15.05a9.52,9.52,0,0,1-5.42-8.87c0-10.82-.46-21.63-.46-32.45,0-77.65-.65-155.31.46-232.94.25-16.88-4.49-27.42-19.33-34.13-3-1.37-5.72-3.48-9.16-5.6v5.49q0,154.71,0,309.43c0,1.66.12,3.32.23,5,.32,4.79,1.59,9.11,5.61,12.26,13.28,10.39,28.21,17.88,42.86,25Zm-105.88,105,84.61-91.88c-9.51-5.75-18.69-10.76-27.24-16.67-4.65-3.22-8.17-8.05-12.36-12-1.47-1.38-3.4-3.18-5.15-3.21-29-.52-57.94-.73-86.91-1.19-3.59-.06-4,2.2-4.63,4.56-4.45,15.85-.59,31.31,2.57,46.71,4.47,21.72,17.67,38.77,31.11,55.48C60.9,609.56,67.43,615,73.67,621.25Zm434.54-92.11c28.26,30.68,56.16,61,84.22,91.39,2.5-1.85,4.71-3.1,6.46-4.82,23-22.66,41.58-47.88,45.92-81.09,1.47-11.16,3.31-22.33.06-33.57-1-3.35-2.26-4.95-6.08-4.75-9,.46-17.95.55-26.93.61-17.32.12-34.65.11-52,.17-5.72,0-11.6-.63-13.92,6.85-.61,2-2.93,3.62-4.8,4.95-5,3.56-10.07,7-15.31,10.24C520.26,522.55,514.44,525.63,508.21,529.14Zm-343.39,3.28c-26.33,28.5-52.59,56.82-78.72,85.26-7.9,8.6-7.6,10.43,1.61,18.28.13.11.29.17.41.28,14.9,13.25,31.62,23.78,49.42,32.58,9.34,4.62,19,8.66,28.66,12.58,6.5,2.63,7.72,1.86,10.54-4.42q13.14-29.24,26.29-58.49c3.75-8.38,7.41-16.8,11.11-25.19-17.31-7.72-19-9.4-28.13-26.41a13.68,13.68,0,0,0-3-4A31.73,31.73,0,0,1,171.52,540C171.25,535.59,169.31,533.42,164.82,532.42ZM543.61,170.15c-9,6.2-17,11.44-24.66,17.26-1.91,1.46-3.11,4.69-3.39,7.25-.53,4.9-.16,9.91-.17,14.87q-.17,132.2-.23,264.4c0,4.85-1.68,8-5.38,10.93-5,4-11.59,5.28-15.48,11.49-2,3.2-7.95,4.23-12.31,5.59-3.67,1.15-7.64,1.35-12.24,2.09,12.2,7.44,21.71,3.13,39-16.93,6.94,12.21,3.22,23.49-2.44,34.92,8.21-4.21,15.75-9,23.61-13.21,10.49-5.59,13.93-14.05,13.9-25.75-.29-102-.17-203.93-.17-305.89ZM116.13,246.33a17.66,17.66,0,0,0,.44-2.47c0-25.15.09-50.29-.1-75.43,0-1.77-1.48-4-3-5.21-30.83-24.31-61.7-48.56-88.38-77.61-1.48-1.61-3.52-2.72-5.29-4.07l-1.92.55c0,4.7,0,9.41,0,14.11q-.26,45.42-.54,90.83c0,4.81,2,7.85,6.36,10.16,25.37,13.36,50.61,27,75.91,40.5C105,240.54,110.38,243.31,116.13,246.33ZM647.64,81A64.3,64.3,0,0,0,642,85.37c-7.44,7.4-14.31,15.44-22.25,22.25C598.24,126,576.38,144,554.54,162c-3.07,2.53-4.62,4.94-4.58,9.11.23,23.16.11,46.31.12,69.47,0,1.75.15,3.49.26,6L568,237.11c25.17-13.43,50.4-26.77,75.45-40.41a12.67,12.67,0,0,0,5.44-6.84c1-3.38.75-7.24.73-10.89q-.27-45.43-.7-90.86C648.86,86.07,648.19,84,647.64,81ZM18.24,298.66c-.46,4-1.18,7.14-1.11,10.24.61,25.76,1.39,51.51,2,77.27.1,4.13,1.76,6,5.94,7.05,22.43,5.65,44.76,11.69,67.13,17.53,7.9,2.07,15.84,4,24.14,6.05.11-2.2.23-3.67.23-5.14,0-23.31-.09-46.62.11-69.92,0-3.85-1.33-5.47-4.77-6.78-17-6.44-33.92-13.17-50.87-19.76C47.08,309.77,33.07,304.38,18.24,298.66Zm630.09,0c-31.92,12.42-62.9,24.53-94,36.47-3.31,1.28-4.42,2.92-4.4,6.49.17,23.49.09,47,.1,70.47,0,1.44.18,2.87.28,4.43a13,13,0,0,0,1.82-.18c30.42-7.86,60.85-15.67,91.21-23.76,1.55-.41,3.5-3.11,3.57-4.81,1-26.59,1.85-53.19,2.57-79.79C649.61,305.11,648.81,302.2,648.33,298.67ZM116.6,329.59c0-25,.08-48.76-.18-72.56,0-1.66-2.24-3.91-4-4.85Q67.79,228.08,23,204.28c-1.69-.91-3.46-1.66-5.66-2.7-.19,1.58-.39,2.51-.4,3.44q-.29,37.44-.52,74.88a29.35,29.35,0,0,0,.55,5.44,10,10,0,0,0,6.89,8.22c21.49,8.17,42.86,16.66,64.28,25C97.33,322.16,106.53,325.69,116.6,329.59Zm533.47-128.1c-2.31.95-3.4,1.29-4.39,1.82q-46.06,24.6-92.16,49.17c-2.79,1.48-3.53,3.28-3.51,6.27.12,22,.06,44,.08,65.95,0,1.39.2,2.79.34,4.54,1.73-.54,3-.85,4.2-1.32Q598.1,311,641.57,294c6.67-2.6,8.49-5.35,8.5-12.73q0-36,0-72ZM20,398.84a63,63,0,0,0-.84,7.47c.23,19,.43,37.94.95,56.9.19,7.11,1.22,14.2,1.89,21.3.4,4.16,2.42,5.56,6.84,5.55,22.47-.05,44.94.34,67.42.54,6.78.06,13.56,0,20.4,0,0-21.45.07-42.24-.15-63,0-1.54-1.84-4.06-3.27-4.44C82.37,415,51.48,407,20,398.84Zm530.13,91.77h5.83q38-.35,75.93-.67c13.28-.09,13.66-.18,14.09-13.7.71-22.44,1.18-44.9,1.63-67.36a98.68,98.68,0,0,0-.81-10.09c-6.82,1.8-13,3.47-19.24,5.08q-36.74,9.56-73.46,19.06c-2.11.55-4,.87-4,3.95C550.13,447.86,550.08,468.84,550.08,490.61ZM372.74,179.07A12.13,12.13,0,0,0,383,172.51c2.35-4.2.1-7.77-2.17-11.06s-5.42-5.81-10.12-4.62c-4.42,1.11-6.24,4-7.5,8.21-1.49,5-3.17,10.46-6.45,14.26-5.59,6.47-12.27,12.1-18.93,17.53-7.34,6-13.34,12.49-13.89,22.56a63,63,0,0,1-1.1,6.92l-1.46.18c-.82-2.89-2.19-5.76-2.36-8.69-.6-10.84,5.22-18.47,13.16-25,5.66-4.63,11.54-9.07,16.7-14.21,6.68-6.64,9.85-15,8.5-24.49-2.6-18.2-17.7-29.46-36-27.16-9.66,1.21-17.12,7.74-17.88,15.63,9.25-5.3,16.45-2,18.7,8.51a16.18,16.18,0,0,1-4,14.78c-3.76,4.2-8.23,7.76-12.09,11.87-4.3,4.57-9.58,8.83-12.15,14.3-10,21.32-5.95,32,7.49,51.56,11.08-2,21.58-5.32,32.07-5.3s20.93,3.43,32.19,5.49l8.5-16c-14.7,7.63-25,6.87-28.81-2,5.22-.24,10.77.2,16-.85,17.54-3.52,23-19.44,11.67-33-1-1.14-2.34-2.12-2.86-3.43-1.89-4.83-4.72-9.71-5-14.68-.4-8.16,8.14-12.39,14.62-8C372,170.11,371,171.81,372.74,179.07Zm-146,414.81c-3.92-.68-5.6.65-7,3.74-11.57,26.2-23.36,52.3-35.07,78.43-4.14,9.23-4.33,9.93,5.13,12.81,21.15,6.46,42.51,12.28,63.86,18.1,4.58,1.24,9.46,1.39,15.42,2.2C242.68,674.28,229.65,635.94,226.7,593.88Zm222.12,7.88c-9.55.59-9.55.59-10.77,9.52,0,.16,0,.33-.06.49-4.69,33.75-16.55,64.66-36.61,92.32-1,1.41-2,2.87-3.34,4.87a26.17,26.17,0,0,0,3.81-.21c15.29-3.53,30.68-6.71,45.82-10.79,11.45-3.09,22.61-7.29,33.86-11.09,3.59-1.22,4.06-3.47,2.46-6.94-6.56-14.29-12.88-28.68-19.32-43C459.39,625.14,454.07,613.4,448.82,601.76Zm24.26-189.37c.65,4.34,1.37,8.36,1.83,12.41,1.38,12.2-2.94,23.53-5.47,35.14-2.37,10.84-.58,20.77,7.27,29.15,2.25,2.4,4.52,3.47,7.78,1.7,5.68-3.07,11.4-6.11,17.3-8.71,5.72-2.53,7.27-6.71,7.23-12.66-.17-27,0-53.94,0-80.92,0-1.47-.16-2.94-.25-4.42C503.19,401.75,496.14,416.85,473.08,412.39ZM260.25,168.5l-.87-.1a14.1,14.1,0,0,0-1.11,2.1c-5.08,16.07-10,32.2-15.27,48.19-2.35,7.06-2.2,13.84-.68,21,3.32,15.64,15.41,24.25,27.43,35.32,1.22-7.05,3.34-13,3-18.86-.55-9.87-2.43-19.7-4.18-29.46-2.18-12.2-5.16-24.26-7.09-36.49C260.36,183.08,260.61,175.74,260.25,168.5Zm146.43-.15c-.26,3-.48,5.74-.76,8.5-1.05,10.71-1.56,21.51-3.34,32.1-2.18,13-5.82,25.8-8.1,38.81-1.55,8.8-1.27,17.73,3.89,27,6.73-6.95,13.87-12.72,19-19.94,7.58-10.73,11-22.82,6.3-36.18C417.84,202.14,412.44,185.51,406.68,168.35ZM174.29,487c-3-9.47-7.13-19.06-8.93-29.06-1.88-10.48,2.2-20.45,7.33-29.81a9.17,9.17,0,0,0-3.2,1.84c-9.75,8.58-12.31,19.45-11.75,32.14.76,17.41.19,17.43,15.94,24.72C174.13,487,174.64,487.08,174.29,487Zm10.49-22.65-1.61-.44c-1.42,6.15-3.1,12.25-4.18,18.46-1.32,7.59-.86,8,5.79,9.18Z" transform="translate(-0.6 0)"/><path d="M50,830c20.59,12.06,49.79,9.51,82.16-13-4.55-1.38-8.83-2.38-12.89-4-31.55-12.21-52.63-35.24-65.83-65.65-5.45-12.54-8.92-26-13.29-39-.68-2-1.35-4-2.22-6.58-8.37,7.94-17.28,8.85-26.7,3.47-9.95-5.7-13.35-18.68-8.44-31.36,5.47-14.13,22.06-19.8,37.16-12,14.45,7.46,24.17,19.4,29.82,34.66,5.34,14.43,10.37,29,16.25,43.2,5.3,12.81,13.35,23.72,25.76,30.76a27.58,27.58,0,0,0,2.66,1.34c.25.1.63-.09,1.06-.17-1.79-5.07-4-10-5.27-15.18-3.65-15.5,2.46-27.51,14.18-37.31,14.77-12.35,38.56-11.78,50.68,1.68,7,7.73,8.7,17.2,5.24,27-4,11.35-18.53,15.27-28.58,8.22-4.08-2.86-6.79-1.94-8.31,2.91-1.32,4.21,0,7.8,2.71,11.07,5.83,7,14.09,9.23,22.38,10.74a210.81,210.81,0,0,0,26.63,3.08c18.71,1,37.44,1.52,55.72,6.26,1.55.4,3.07.93,4.91,1.5-1.65-4.11-3.86-7.71-4.5-11.58-1.95-11.9,10-21.27,23-18.7,11.44,2.25,19.94,9.14,26.9,17.74,11.19,13.83,17.93,29.83,16.42,47.8-1.45,17.41-9.53,32.16-23.91,42.43-14.77,10.54-35.34.32-37-17.77-.5-5.53,1.86-9.6,5.79-13,1.11-1,2.34-1.8,4.77-3.66-6.06-4-11.16-8.3-17-11-25.61-12.12-50.8-9.67-75.42,3.29-15.41,8.11-30.62,16.61-46.22,24.33-16.19,8-33.32,13.26-51.64,12.3-19.21-1-38.08-4-53.58-16.75-10.25-8.45-17.28-18.89-16.31-33,1.23-17.77,20.26-31.22,36.28-25.76,12.41,4.22,20.66,18.48,16.18,29.6C57.82,822.37,53.43,825.85,50,830Zm216-49.47c2.1-5.16,5.75-5.9,10-2,2.42,2.25,4.32,5.05,6.62,7.44,9,9.34,11.07,20.75,5.91,32.58-1.61,3.7-3,3.92-5.49.7-9.93-13-23.45-20.84-39-24-13.11-2.67-26.69-3-40.06-4.33-12.7-1.31-25.48-2.14-38.07-4.17-10.25-1.65-20-5.24-26.24-14.56a17.31,17.31,0,0,1,2.57-22.63,5.37,5.37,0,0,0,1.16-4.39c-2.06-8.77,1.64-17.65,9.09-20.39,1.29-.48,3.14.57,4.74.91a44.29,44.29,0,0,1-1.37,4.46c-.21.53-1,.79-1.56,1.21-4.81,3.81-6,7.79-3.88,13.12a13.1,13.1,0,0,0,13.25,8.59c5-.21,9.87-3.88,11.18-8.49A21.11,21.11,0,0,0,165.1,721c-15.16-8.44-33.87-3.6-44.3,11.47-8.7,12.57-5.64,31.68,6.85,42.22,3.09,2.59,6.4,4.92,9.61,7.37l-.43,1.4c-5.31-.72-10.76-.89-15.9-2.25-18-4.75-30.2-16.77-37.76-33-6.89-14.83-12.52-30.29-18-45.73-5.39-15.22-14.06-27.51-28.56-35-9.27-4.76-24.33-3.45-28.3,10-3.43,11.64.57,21.48,10.6,24.21,4.77,1.3,9.76.86,12.67-3.3a11,11,0,0,0,1.06-9.07c-.95-2.33-4.71-3.44-7.08-5.3a28.81,28.81,0,0,1-3.35-3.69c1.43-.88,2.85-2.48,4.28-2.5,5.43-.07,9.76,2.33,11.86,7.5C41.1,692,43.47,698.88,46,705.69c6.26,16.88,10.66,34.78,19.18,50.42,16,29.31,39.58,50.19,74.24,55.27,6.4.94,12.81,1.76,19.09,2.61-8.57,3.48-17,6.68-25.31,10.39-4.82,2.17-9.27,5.19-13.91,7.78-18.72,10.47-38.46,13.54-59.54,8.9-11-2.43-19.21-9.48-27.9-15.7-4.9-3.51-5.43-9.36-4.55-15,.19-1.26,2.38-2.2,3.65-3.29a24.92,24.92,0,0,1,2.9,3.71c.41.78.06,2,.08,3,.1,5.64,2.92,8.8,8.28,9.27,4.9.43,11.1-3.28,11.71-7.48.79-5.41,0-10.56-3.74-15-5.82-6.78-14.22-9-21.89-5.62-9.63,4.29-16.31,14.87-14.62,24.35,2.75,15.41,13.07,24.9,26.77,30.4,24.5,9.82,49.7,11.07,74.17.59,17.78-7.62,34.68-17.31,51.91-26.21,20.43-10.55,41.46-18,65-13,14.3,3,28,7.5,38.35,18.56a16.47,16.47,0,0,0,8.11,4.82c3.71,1.09,7,4.59,9.7,7.71,1,1.18-.2,4.27-.39,6.48-1.79-1.08-4.13-1.77-5.26-3.33-3.36-4.64-7.18-6-12.35-3.54-5.68,2.66-7.75,6.94-6,12.42,3.91,12.31,17.35,16.92,27.54,9,11.12-8.59,18.25-20.25,19.66-34,2.3-22.49-6.86-40.76-24.1-55-6.58-5.45-14.07-8.17-22.67-5.21-5.88,2-7.93,6.69-5.81,12.79a9.87,9.87,0,0,0,12.49,6.18c.82-.29,1.91-1.08,2-1.79a3.14,3.14,0,0,0-1.35-2.34C269.73,782.58,267.84,781.6,266.06,780.54Zm17.83,28.18c2.06-5.42.37-10.9-4.86-16.61l-13.61,3.61Z" transform="translate(-0.6 0)"/><path d="M619.86,701.66c-2.49,8.06-4.87,15.4-7,22.8-7.05,24.09-17.59,46.17-36.07,63.81-13.89,13.26-29.1,24.11-48.48,27.75a8.09,8.09,0,0,0-2.15,1.21C556.71,839,587,842.55,608.79,829.54c-.09-.31-.09-.81-.28-.89-8.15-3.69-12.42-9.76-11.33-18.9,1.17-9.73,6.64-16.5,15.33-20.58,15.22-7.15,32.49,3.82,37.2,19.9,4,13.69-2,24.7-11.09,34.21C628,854.43,614,858.88,599.3,861.9c-30.45,6.26-57.67-2.69-83.86-17.16-16.92-9.35-33.35-19.89-52.1-25.36-24.45-7.14-47.2-3.14-67.77,12.14a21.54,21.54,0,0,0-2.83,2.82,9.16,9.16,0,0,0-.89,1.46,16.64,16.64,0,0,0,1.81,1.58c11.23,7.43,8.24,19.57,2.77,26.51-9.61,12.21-25.38,13.38-36.53,2.27-22.87-22.79-25.31-48-11-75.33,5.33-10.19,12.71-18.71,22.68-24.64,6.69-4,13.76-6.11,21.83-4.11,12.1,3,17.16,14.25,10.84,25-.73,1.26-1.54,2.47-2.82,4.5,5.53-1.28,10.15-2.89,14.89-3.36,16.33-1.62,32.72-2.58,49-4.32,10.49-1.12,20.94-2.87,31.31-4.88a25.4,25.4,0,0,0,15.42-9.33c2.5-3.17,3.69-6.62,2.35-10.66-1.61-4.82-4.22-5.7-8.3-2.83-6.27,4.41-12.94,4.93-19.7,1.4-6.54-3.41-10.13-8.91-10.25-16.4-.28-16.12,7.74-25.78,24.12-29.86,22.27-5.54,42.8,12.42,46.9,27.07,2.8,10,1.12,19.28-2.92,28.44-.71,1.6-1.5,3.16-2.79,5.88,7.72-3,12.92-7.46,17.59-12.58,10-10.93,15-24.52,20-38.06,3.18-8.52,5.94-17.19,9.14-25.7,6-16.06,16.32-28.49,32.27-35.43,10.39-4.53,23.3-2.28,29.61,4.92,7.29,8.31,8.66,18.23,5.55,28.51-2.55,8.48-9.4,12.54-17.74,14.13C631,709.84,625.35,707,619.86,701.66ZM519.29,782.92c3.94-2.86,7-4.85,9.77-7.13,11.23-9.18,16-24.77,11.41-37.11-4.78-12.93-19.44-22.8-33.81-21.62-15.31,1.25-25.31,9.29-23.84,24.9.5,5.37,3.1,8.72,7.85,10.4s9.45,1.06,13.34-2.75c6.42-6.3,5.88-12.69-1.38-19-1.17-1-1.38-3.15-2-4.76,1.88-.26,4.13-1.32,5.56-.64,6.95,3.25,10.6,11.65,8.38,19.39-.77,2.66-.2,3.82,1.53,5.88a21.44,21.44,0,0,1,4.79,9.91c1.45,9.51-4,15.8-11.6,20.27-11.18,6.57-23.82,8-36.36,9.2-17.52,1.65-35.18,2.1-52.63,4.27-18.22,2.26-33.73,10.48-45.41,25.13-.91,1.15-2.33,1.89-3.77,3-3.91-8-5.79-15.64-3.48-23.73,2.59-9.06,9.75-14.81,16-21.15a5.51,5.51,0,0,1,4.16-1.16,4.43,4.43,0,0,1,3.14,2.4c.3.91-.73,2.5-1.55,3.46s-2,1.07-2.94,1.78c-2.35,1.84-1.84,3.25.8,4.18,5,1.73,10.12-.77,12.16-5.89,2.32-5.83.61-10.72-4.72-12.86-6.45-2.6-12.72-1.76-18.63,1.67-11.69,6.79-19.22,17.08-24.58,29.25-11.59,26.33-1.67,49,15.24,63.12,9.27,7.73,21.28,3.29,26.26-5.86,3.5-6.45,2.37-11.52-3.36-15-5.46-3.31-9.74-2-14.21,3.85-1,1.26-3.2,1.55-4.84,2.29-.38-1.8-1.69-4.4-1-5.25,2.81-3.28,5.89-7.64,9.6-8.51,4.73-1.12,7.47-3.68,10.41-6.74a23.06,23.06,0,0,1,3.38-3c22.44-15.42,46.84-19.58,72.9-11.75,18.71,5.63,35.32,15.91,52.19,25.43,25.73,14.51,52.57,22.78,82.43,16.23,13.37-2.94,25.78-7.55,35.21-18.11s11.33-22.45,4.94-32.27c-4.6-7.08-11-11.93-19.82-11.14-7.93.71-13.52,5.31-16.24,12.88-1.71,4.74-2.06,9.64,2,13.38,3.35,3.06,7.39,4.27,12,2.5,4.76-1.84,5.64-5.57,5.47-10.07-.09-2.21-.6-5.53,2.9-4.9,1.56.29,3.52,3.24,3.75,5.17.79,6.48-2,11.61-7.44,15.24-2.48,1.65-5.09,3.14-7.42,5-8.25,6.57-18,9.06-28.12,10.14-19.23,2.06-36.8-3-53.17-12.88-10-6-20.07-11.66-31.64-14a40.19,40.19,0,0,1-5-1.88c6.72-.79,12-1.25,17.25-2.05,15.38-2.38,30-6.65,42.77-16.21,23.38-17.45,38.6-40.28,47.09-68,4.3-14.06,9.21-27.94,14.06-41.83a11.23,11.23,0,0,1,10.46-8c1.92-.09,3.91,1.31,5.87,2-1.43,1.48-2.59,3.62-4.33,4.33-5.2,2.11-7.75,5.25-7.1,9.85.62,4.33,4.54,7.52,9.63,7.83,9,.54,15.27-4.68,16.84-13.94,1.64-9.69-3.87-19.73-12-22s-15.82-.4-22.63,4.42c-12.12,8.6-19.46,20.45-24,34.51-5.53,17-10.84,34.2-20.52,49.45C559.59,773,543.35,783.84,519.29,782.92ZM392.51,795.78l-13.8-3.67c-4,4.47-6.5,10-5.25,17.07Z" transform="translate(-0.6 0)"/><path d="M356,59.07A23.83,23.83,0,0,1,332,83c-12.59,0-24.4-11.34-23.67-23.91.79-13.48,9.29-23.14,23.87-23.75C345,34.79,356,46.45,356,59.07Zm-41.05.21a17.39,17.39,0,0,0,16.95,17.31A17.76,17.76,0,0,0,349.6,59.42a17.34,17.34,0,1,0-34.67-.14Z" transform="translate(-0.6 0)"/><path d="M328.87,910.12a23.72,23.72,0,0,1-23.72-23.72,23.85,23.85,0,0,1,47.7.26C352.84,899.58,342,910.16,328.87,910.12Zm-16.94-23.56a17.27,17.27,0,0,0,17.21,17.37c9.32-.08,16.43-7.79,17.08-17.12.54-7.85-6.52-17.3-17.09-17.7C319.91,868.76,311.93,877,311.93,886.56Z" transform="translate(-0.6 0)"/><path d="M362.67,361.16l3.9,6a44.17,44.17,0,0,1,10.54-22.46c4.76-5.59,10.68-8.13,18.19-6.77,11,2,14.89,8.5,11.26,19-.78,2.26-3.5,4.32-.88,7.35.45.52-1.57,3.35-2.65,5-6,9.1-12.07,18.18-18.26,27.17-.75,1.09-2.41,1.56-3.65,2.32-.38-1.44-1.49-3.21-1-4.27,2.14-4.84,4.69-9.49,7.17-14.17.74-1.41,1.71-2.71,3.08-4.86-8.52,2.14-15.65,1.05-22.42-4.75,1.13,6.22,2.19,11.6,3.09,17,2.64,15.75-.47,30.61-6.59,45.14-3.52,8.37-7.25,16.8-9.32,25.58-3.48,14.79.78,28.9,6.16,42.65.12.31.44.59.44.88,0,2.24-.07,4.48-.12,6.72-1.66-1.5-4.06-2.67-4.85-4.53-9.22-21.59-11.75-43.27-1-65.32,5.44-11.17,9.95-22.68,10.45-35.5a89,89,0,0,0-6.13-36.43C359,364.17,358.72,362.17,362.67,361.16ZM382.35,371c8.25,1.25,19.81-11.48,20.07-21.58,0-1.16-1.22-2.68-2.29-3.48-6.25-4.66-13.08-4.16-18.11,1.85a56.85,56.85,0,0,0-7.9,12.46c-3.1,6.68-1.19,9.61,6.12,10.74A12.37,12.37,0,0,0,382.35,371Z" transform="translate(-0.6 0)"/><path d="M298.67,371.09c-6.41,4.93-13.39,6.74-22,4.31,3.14,5.57,6,10.14,8.3,14.94,1.25,2.56,4.35,6.39.59,8.15-4,1.91-3.71-3.46-5.2-5.61-6.43-9.24-12.68-18.61-18.56-27.31-.12-2-.2-3.79-.33-5.56a3.13,3.13,0,0,0-.39-.91c-3.77-8.4-3.19-13.82,1.89-17.51,7.23-5.26,17.17-5.36,23.1-.14,7.78,6.85,12.31,15.53,14.2,26.1,1.46-2.41,2.69-4.47,3.87-6.42,3.6.94,3.83,2.8,2.68,5.64-9.17,22.52-8.81,44.75,1.76,66.86,5.73,12,10.55,24.31,9.45,38.15-.94,11.85-3.55,23.2-8.83,33.85-.68,1.37-2.83,2-4.3,3-.19-1.73-1.05-3.73-.46-5.12,5.78-13.62,10-27.64,7.47-42.5a92,92,0,0,0-7.47-22.94c-7-15.08-10.89-30.62-9.24-47.23C295.81,384.32,297.43,377.9,298.67,371.09Zm-14.81.59a65.73,65.73,0,0,0,8.22-3.07,4.21,4.21,0,0,0,1.85-3.54c-2.14-9-6.35-16.85-14.87-21.3-5-2.63-14.62,1.39-15,5.75C263.42,357.94,275.24,371,283.86,371.68Z" transform="translate(-0.6 0)"/><path d="M308.64,260.53c1.21,1.74,3.26,3.37,3.49,5.22a110.9,110.9,0,0,1-3.16,42.9c-.8,2.93-2.67,5.68-4.46,8.23-5,7.09-6.34,14.67-4.42,23.14,2.33,10.28,10.23,13.08,19,14.79a72,72,0,0,0,32.57-1c12.71-3.36,19-15.34,14.73-28.23a21.2,21.2,0,0,0-3.14-6.71c-7.6-9.4-8.16-20.78-9.07-32-.52-6.28-.11-12.64-.09-19,0-3.61,1-6.57,5.91-7a62.32,62.32,0,0,0-.53,8.2c.71,11.41,1.27,22.84,2.65,34.17.48,3.88,2.75,7.8,5,11.13,7.14,10.48,7.4,21.35,2.61,32.63-2.82,6.66-8.48,9.89-15.18,11.73a77.72,77.72,0,0,1-45.55-1c-9.66-3.13-13.41-10.91-14.83-20-1.2-7.73-.24-15.41,4.58-21.88,6.72-9,7.85-19.53,8.25-30.17.31-8.11.06-16.25.06-24.37Z" transform="translate(-0.6 0)"/><path d="M360,513.59c6.49,4.79,5.11,13.9-3.5,18.47-5.53,2.94-11.45,3.21-17.79.76Z" transform="translate(-0.6 0)"/><path d="M327.22,534.86c-5.21-.4-8.83-.56-12.43-1-5.88-.7-13-8.11-12.46-13.7.25-2.54,2.56-4.88,3.71-6.91,6.67,5.73,12.61,10.64,18.29,15.83C325.6,530.24,326,532.33,327.22,534.86Z" transform="translate(-0.6 0)"/></svg>