<?xml version="1.0" encoding="utf-8"?>
<!-- Generator: Adobe Illustrator 23.0.6, SVG Export Plug-In . SVG Version: 6.00 Build 0)  -->
<svg version="1.1" id="Layer_1" xmlns="http://www.w3.org/2000/svg" xmlns:xlink="http://www.w3.org/1999/xlink" x="0px" y="0px"
	 viewBox="0 0 500 500" style="enable-background:new 0 0 500 500;" xml:space="preserve">
<g>
	<path d="M499,196.54c0,14.8,0,29.6,0,44.4c-0.63,2.17-1.62,4.31-1.85,6.53c-11.17,107.72-93.58,197.58-200.02,217.88
		c-11.36,2.17-22.83,3.78-34.24,5.65c-8.74,0-17.49,0-26.23,0c-7.47-1.21-14.93-2.53-22.41-3.62
		C53.24,443.82-44.04,274.8,21.24,118.82c0.94-2.24,2.51-4.21,5.49-9.09c3.59,22.98,6.9,42.8,9.58,62.71
		c0.4,2.96-1.85,6.48-3.42,9.44c-1.63,3.06-5.8,5.86-5.65,8.6c1.18,22.05-0.22,44.95,5.42,65.91
		c23.48,87.27,83.1,137.43,169.47,158.05c5.37,1.28,10.96,1.67,17.03,2.55c2.43-11.92,4.6-22.59,6.78-33.34
		c-99.44-16.44-164.37-102.1-154.52-200c8.85-88.02,84.8-158.79,172.46-160.66c94.25-2.01,172.36,64.72,183.81,159.02
		c11.61,95.58-51.2,184.4-154.27,201.95c2.45,10.74,4.87,21.35,7.28,31.94c1.35,0.31,2.3,0.74,3.24,0.71
		c2.01-0.06,4.04-0.2,6.02-0.56c28.66-5.32,56.01-14.51,80.6-30.27c70.17-44.97,106.2-108.34,102.07-192.74
		c-0.18-3.62-1.7-9.8-3.64-10.24c-6.99-1.61-6.49-6.43-5.85-10.86c2.86-19.74,6.15-39.42,9.29-59.12c1.09-0.12,2.18-0.25,3.26-0.37
		c3.74,9.81,8.37,19.39,11.02,29.48C491.43,159.97,494.97,178.32,499,196.54z M262.89,179.56c0,12.1,0.65,23.83-0.16,35.46
		c-1.1,15.83,2.67,29.42,13.23,41.62c3.98,4.59,6.65,5.98,12.31,3.64c49.97-20.64,79.69-76.57,68.39-129.22
		c-12.44-58-61.82-95.56-120.94-91.99C180.98,42.37,136.14,87.77,131.1,145c-4.43,50.26,26.84,99.33,73.91,116.66
		c5.84,2.15,8.31,0.68,12.44-3.71c14.68-15.61,13.02-34,11.41-52.62c-3.35-0.86-6.12-1.58-8.67-2.23
		C218.13,182.27,228.36,176.36,262.89,179.56z"/>
</g>
</svg>
