<?xml version="1.0" encoding="utf-8"?>
<!-- Generator: Adobe Illustrator 23.0.6, SVG Export Plug-In . SVG Version: 6.00 Build 0)  -->
<svg version="1.1" id="Layer_1" xmlns="http://www.w3.org/2000/svg" xmlns:xlink="http://www.w3.org/1999/xlink" x="0px" y="0px"
	 viewBox="0 0 500 500" style="enable-background:new 0 0 500 500;" xml:space="preserve">
<style type="text/css">
	.st0{fill:#2B2C47;}
	.st1{fill:#CFC0AB;}
</style>
<path class="st0" d="M466.38,500H33.62C15.05,500,0,484.95,0,466.38V33.62C0,15.05,15.05,0,33.62,0h432.77
	C484.95,0,500,15.05,500,33.62v432.77C500,484.95,484.95,500,466.38,500z"/>
<g>
	<path class="st1" d="M469,205.67c0,13.01,0,26.02,0,39.02c-0.56,1.91-1.42,3.79-1.63,5.74c-9.82,94.69-82.25,173.67-175.81,191.52
		c-9.99,1.91-20.06,3.32-30.1,4.97c-7.69,0-15.37,0-23.06,0c-6.57-1.07-13.12-2.22-19.7-3.18C77.19,423.02-8.32,274.46,49.06,137.36
		c0.82-1.97,2.21-3.7,4.82-7.99c3.16,20.2,6.06,37.62,8.42,55.12c0.35,2.6-1.62,5.69-3.01,8.3c-1.43,2.69-5.1,5.15-4.97,7.56
		c1.04,19.38-0.19,39.51,4.76,57.94c20.64,76.71,73.04,120.8,148.96,138.92c4.72,1.13,9.64,1.46,14.97,2.24
		c2.13-10.48,4.04-19.85,5.96-29.3c-87.4-14.45-144.47-89.74-135.82-175.79c7.78-77.37,74.54-139.58,151.59-141.22
		c82.84-1.76,151.5,56.89,161.57,139.78c10.2,84.01-45,162.08-135.6,177.51c2.15,9.44,4.28,18.76,6.4,28.07
		c1.18,0.27,2.02,0.65,2.85,0.62c1.77-0.05,3.55-0.17,5.29-0.49c25.19-4.68,49.23-12.75,70.85-26.6
		c61.68-39.52,93.34-95.23,89.71-169.42c-0.16-3.18-1.49-8.61-3.2-9c-6.14-1.42-5.7-5.66-5.14-9.54
		c2.51-17.35,5.41-34.65,8.16-51.97c0.96-0.11,1.91-0.22,2.87-0.33c3.29,8.62,7.36,17.04,9.69,25.92
		C462.35,173.53,465.45,189.66,469,205.67z M261.46,190.75c0,10.64,0.57,20.95-0.14,31.17c-0.97,13.91,2.35,25.86,11.63,36.58
		c3.5,4.04,5.84,5.25,10.82,3.2c43.93-18.14,70.04-67.3,60.11-113.58c-10.94-50.98-54.34-83.99-106.3-80.86
		c-48.11,2.9-87.53,42.81-91.95,93.11c-3.89,44.18,23.59,87.31,64.96,102.54c5.13,1.89,7.31,0.6,10.93-3.26
		c12.91-13.73,11.44-29.88,10.03-46.25c-2.95-0.76-5.38-1.39-7.62-1.96C222.12,193.12,231.11,187.93,261.46,190.75z"/>
</g>
</svg>
