<svg id="Layer_1" data-name="Layer 1" xmlns="http://www.w3.org/2000/svg" viewBox="0 0 551.99 430.78"><title>helmet-cygnus</title><path d="M133,492.94c-9-6.37-18.36-12.23-26.81-19.21C81.57,453.38,61.24,429.5,47.82,400.2c-1.44-3.15-2.8-6.35-4.17-9.53a15.07,15.07,0,0,1-.51-2c3.51,2.7,6.41,5.31,9.67,7.34,10.18,6.34,22.61,5.35,32.13-3.65,7.44-7,13.87-15.14,20.48-23a54.28,54.28,0,0,0,8.06-13.14c-3,1.76-6.07,3.58-9.16,5.25-30.63,16.61-56.48,6.81-75.19-18.83-13.1-18-18.94-38.84-23-60.31-5-26.42-5.57-53.14-5-79.92.11-4.59.76-9.18,1.21-14.23,3.27,9.74,6.11,19.19,9.6,28.4,8.45,22.27,19.65,42.87,37.87,58.87,13.33,11.7,28.77,18.81,46.47,20.58,6.44.65,12.93.77,19.39,1.13l.36-1.77c-3.16-1.56-6.34-3.07-9.46-4.7-23.4-12.19-43.6-28-57.3-51-12.53-21-17.26-43.78-14.48-68.19,3.83-33.73,19.52-61.88,40.81-87.37A175.49,175.49,0,0,1,96.85,63c-.47,3.56-.93,7.11-1.41,10.67-3.51,25.64-4.84,51.28,1.81,76.64,8.44,32.17,29.27,54.16,58.5,68.49,6.51,3.19,8.65,6.61,8.56,13.74-.26,19.12.45,38.26.83,57.39,0,2.14.52,4.27.68,6.41a15.45,15.45,0,0,1-2.75,10.22c-6.86,10.35-6.51,21.13-.77,32.05a20.38,20.38,0,0,1,2.42,9.31c-.33,24.55,7,47.39,15.65,69.84,6.89,17.91,14.66,35.47,22,53.2.49,1.18.93,2.4,1.73,4.48-11.85,3.52-23.27,7.24-34.88,10.28-10.65,2.79-21.5,4.85-32.26,7.23Zm23.6-211.58c-.64-16.4-4.43-32-14.18-45.29-8.44-11.51-17.83-22.33-27-33.26-16-19-25.68-40.55-26.39-65.58-.29-10.41.47-20.86.61-31.29,0-1.27-.83-2.55-1.27-3.82-.79.85-2.27,1.71-2.27,2.56,0,15.25-.88,30.61.69,45.71,2.29,22,13.39,40.27,27.55,56.86,8.62,10.11,17.28,20.24,25.13,30.95,4.29,5.87,6.92,13,10.3,19.48a128.29,128.29,0,0,1-10.55-8.92c-3.3-3-6.54-6.16-9.86-9.18s-6.42-5.67-9.64-8.51c7.59,17.65,14.53,35.12,18.33,53.71.16.81,1.43,1.39,2.18,2.08.37-1,1.19-2,1-2.91a106.49,106.49,0,0,0-2.83-12.55c-2.76-8.84-5.83-17.58-9-26.9C141,255.35,152.56,265.42,156.59,281.36Zm31.92,174.57-30.83-74.26C160.56,409.7,169.62,434.84,188.51,455.93Z" transform="translate(-0.99 -62.16)"/><path d="M417,492.94c-9.5-2.05-19.09-3.77-28.48-6.23-12.88-3.37-25.62-7.3-39.09-11.18,4.38-10.28,8.36-19.49,12.24-28.76,9.24-22.1,18.95-44.1,23.63-67.74,2-10.33,2.43-21,3.74-31.49.36-2.87.77-6,2.11-8.44,6.33-11.72,6.25-23-1.33-34.12a10.33,10.33,0,0,1-1.6-5.53c.23-23.3.62-46.59.92-69.88.06-4.48,1.61-7.24,6.11-9.38,26.2-12.45,46.75-30.66,57.51-58.42,7.59-19.57,9.31-40,8.21-60.67-.69-12.88-2.49-25.71-3.83-38.94a227.25,227.25,0,0,1,36.21,42.18c12.83,19.27,22,40.16,25.23,63.16,4.56,32.39-3.61,61.43-24.52,86.76-13.91,16.84-31.51,28.78-50.81,38.47A21.14,21.14,0,0,0,438,296,74.8,74.8,0,0,0,467,294.52c29-6.93,48-26.1,62.3-51.07,9.42-16.48,15.72-34.21,20.87-52.39.25-.88.66-1.71,1.17-3,.6,5.68,1.15,10.79,1.69,15.89v32a22,22,0,0,0-.86,3.2c-2.12,17.25-3.34,34.66-6.5,51.71-4,21.48-11.48,41.84-26.39,58.53-11,12.35-24.44,20.51-41.57,20.33-11.92-.12-22.52-4.91-32.68-10.74-1.45-.84-3-1.56-4.45-2.34a63.41,63.41,0,0,0,7.55,12.63c6.91,9.36,13.66,18.89,23.65,25.41,11.11,7.25,20.92,7.15,31.76-.48,2.4-1.69,4.62-3.63,7.49-5.9-11.87,30.84-30.52,55.94-54.3,77.35-11.15,10.05-21.92,20.67-35.7,27.3Zm49.47-391-1.78.1a32,32,0,0,0-.52,4.94c.16,3.65.54,7.28.83,10.92,3,36.67-9.07,67.7-34.4,94.19a203.25,203.25,0,0,0-21.17,27c-8.36,12.39-11.63,26.63-12.1,41.71,3.91-15.91,16-25.5,27-36-.41,1.94-1.19,3.7-1.76,5.52-3.31,10.72-6.63,21.44-9.76,32.21-.37,1.26.46,2.86.73,4.3.85-1.15,2.06-2.18,2.49-3.47,4-11.91,7.57-23.92,11.7-35.76,1.93-5.54,4.78-10.75,7.21-16.11l-1-.82-29.6,28.06c.74-2.07,1.41-4.09,2.19-6.07,5.84-14.84,16.23-26.54,26.6-38.23,10.62-12,20.63-24.34,27-39.25,9.62-22.54,10.14-46.09,7.76-69.95C467.77,104.09,467,103,466.46,101.89Zm-100.81,353c14.17-11.11,33-56.9,30.07-72.52Z" transform="translate(-0.99 -62.16)"/><path d="M330,375.24a83,83,0,0,1,7.54-6.41c4.2-2.8,5.16-6.49,4.41-11.19-2.35-14.7-4.69-29.4-6.78-44.14-.63-4.45-2.47-4.12-5.19-2-9,6.87-18,13.72-26.77,20.8a7.46,7.46,0,0,0-2.29,5c-.12,3.11.69,6.24.82,9.38.26,6.36,1.34,12.81-2.3,18.79-.65,1.05.19,3,.34,4.54,1.09-1,2.56-1.77,3.19-3,3.45-6.58,3.81-13.57,2.49-20.79-1.73-9.42-1.17-10.76,6-14.33.79,6.78,1.35,13.28,2.36,19.71.89,5.6-.65,9.86-4.89,13.7a162,162,0,0,0-12.35,13c-.74.84-.61,2.45-.88,3.71,1.29-.37,3-.33,3.8-1.16,5.69-5.83,11.82-11.4,16.5-18,2.13-3,1.73-8.12,1.63-12.26a93.53,93.53,0,0,0-1.78-16.79c-1.2-5.78,1.47-8.59,7-10.88.66,3.77,1.39,7.37,1.89,11,1.05,7.71,2.06,15.44,2.86,23.18a5.81,5.81,0,0,1-1.4,3.93c-12.32,14.42-24.58,28.89-37.22,43-2.9,3.24-7.05,5.46-10.88,7.73-.93.56-3-.26-4.26-.9-8.37-4.07-13.51-11.64-19.42-18.32-7.28-8.21-13.82-17.14-21.59-24.85-5.73-5.69-7.32-11.46-5.82-19.09s2.09-15.43,3.17-23.14a8,8,0,0,1,1.21-2.36c5.64,2.08,7.21,5.9,6.47,11.37-1,7.38-1.69,14.82-2.21,22.25-.13,1.92.32,4.44,1.5,5.8,5.36,6.14,11,12,16.74,17.84.9.92,2.64,1,4,1.49-.39-1.37-.38-3.1-1.23-4.05-4.79-5.32-9.76-10.47-14.72-15.62-2.06-2.14-3-4.12-2.29-7.46,1.09-5,1-10.22,1.5-15.34.24-2.39.76-4.76,1.17-7.24,6.57,2.54,7.33,4.38,6.13,11.77-1.28,7.88-2.08,15.8,2.31,23.11a24.67,24.67,0,0,0,3,3.43l1.43-.84c-.33-1.51-.3-3.23-1.05-4.49-4.24-7.19-2.74-14.9-1.53-22.26,1-6-.05-9.84-5.26-13.37-7.69-5.22-14.78-11.31-22.17-17-1.5-1.16-3.18-2.09-5.71-3.73-1.26,7.45-2.44,13.86-3.4,20.3-1.5,10.15-3.06,20.31-4.11,30.52a10.78,10.78,0,0,0,2.46,7.18c2.62,3.12,6.06,5.57,8.8,9.52-1.17-.11-2.5.11-3.46-.39-2.35-1.23-4.52-2.79-6.75-4.23-9.07-5.87-9-5.85-6.76-16.11q5.52-25.2,10.85-50.45c1.14-5.37,2.81-6,7.14-2.42q12.28,10.2,24.46,20.52c5.46,4.64,7.73,4,9.47-2.82C261.6,307,265,293.53,268.7,280.15c1.11-4,.89-7-1.36-10.66-4.26-6.81-6.95-14.21-5.32-22.57,1.48-7.64,8-13.82,14.89-13.81,7.25,0,14,6.75,15,14.79s-1.51,15.46-5.81,22.13a10.49,10.49,0,0,0-1.32,9.27c3.83,14.19,7.38,28.46,11.1,42.69,1.2,4.61,3.76,5.49,7.59,2.37,8.9-7.23,17.63-14.69,26.52-21.94,3.66-3,5.74-2.22,6.72,2.4q6.11,28.64,12,57.3c.52,2.52.33,4.69-2.6,6.21-3.95,2.06-7.52,4.84-11.35,7.14a19.22,19.22,0,0,1-4.13,1.35Zm-68.15-21.78,1.56-1.41c9.1,11.48,18.16,10.54,27.19,0l1.37,1.17v15.51l2.67,0c.13-3.91.59-7.86.25-11.73-.21-2.36-1.1-5.83-2.71-6.56s-5.1.44-7,1.86c-8,6.15-8.47,6.29-16.61,0-.92-.71-1.84-2-2.78-2-2,0-4.46,0-5.86,1.06-3,2.38-2.22,14.21,1.87,18.34Zm10.4-31.17c-2-.51-3.52-1.32-3.93-.93a59.38,59.38,0,0,0-5.88,6.59c-.29.37.07,1.74.55,2.11.67.52,2.26,1,2.54.7C267.7,328.35,269.61,325.74,272.29,322.29Zm9.85.39a17.81,17.81,0,0,0,2.37,3.69c1.74,1.63,1.86,6.26,5.8,3.68.43-.28-1.13-4.32-2.38-6.22S285.06,319.25,282.14,322.68Z" transform="translate(-0.99 -62.16)"/><path d="M353.67,355.94c-2.57-11.09-4.94-21.35-7.41-32L383,305.19a29.43,29.43,0,0,1,1.85,32.73,7,7,0,0,1-2.35,2.45C373.08,345.52,363.63,350.57,353.67,355.94Z" transform="translate(-0.99 -62.16)"/><path d="M200.08,355.93c-9.93-5.32-19.4-9.78-28.12-15.41-3-1.91-4.64-6.56-5.87-10.3-2.93-8.9-.71-17.19,4.27-25.19C182.05,311,193.55,316.75,205,322.7c1,.51,2.06,2.31,1.86,3.25C204.77,335.78,202.46,345.55,200.08,355.93Z" transform="translate(-0.99 -62.16)"/><path d="M224.63,316.51c.71,2,2.22,4.13,2,6-1.28,11.34-3.19,22.62-4.32,34-.26,2.57,1.25,5.66,2.76,8,2.38,3.65,5.44,6.84,8.22,10.23l-.81,1a9.83,9.83,0,0,1-2.9-.89c-1.77-1.22-3.25-2.89-5.06-4-7.7-4.83-10.13-11-7.69-20.22,2.52-9.53,3-19.59,4.45-29.41a26.42,26.42,0,0,1,1.3-4.14Z" transform="translate(-0.99 -62.16)"/><path d="M320.51,374.61c2.07-2.57,4-5.28,6.25-7.67,3.43-3.62,5.61-7.15,4.53-12.73-1.86-9.73-2.86-19.63-4-29.48-.34-3.09-1.85-7.38,4.38-7.57,2.09,14.12,4.29,28.14,6.09,42.2.24,1.82-1.12,4.36-2.54,5.76-4,4-8.51,7.56-12.81,11.29Z" transform="translate(-0.99 -62.16)"/></svg>