<svg id="Layer_1" data-name="Layer 1" xmlns="http://www.w3.org/2000/svg" viewBox="0 0 614.98 407.17"><title>helmet-draco</title><path d="M256.07,515a10.64,10.64,0,0,0-2.16-1.69c-40.38-17-63.32-48.6-75.72-89.47-4.66-15.36-3.81-30.85-4-46.42,0-1.49,0-3,0-4.84-6.24,0-5.2-4.05-4.66-8.68,7.78,1.76,15.46,3.37,23,5.34,1.22.31,2,2.26,3,3.46l-1,1.19H180.3l-.8,1.49c1.06.83,2,2.24,3.18,2.37,3,.34,6,0,9,.18,1.15.06,2.27.69,4.44,1.39-5.33,3.62-11.9-1-15.34,3.74l.45,2.09c3.29,0,6.59-.16,9.87.08,1.34.1,2.62,1.07,3.93,1.64-1.4.66-2.74,1.71-4.19,1.87-1.76.2-3.65-.7-5.39-.47-1.34.19-2.55,1.39-3.81,2.14l.68,1.65h12.36c2.24,9.16,3.66,18,6.59,26.34,6.25,17.76,17.41,32.19,33.58,41.86,10.54,6.3,15.7,14.77,17.25,26.67,1.24,9.45,3.94,18.72,6,28.07Z" transform="translate(-1.79 -107.79)"/><path d="M362.07,515c2.38-11.33,4.93-22.63,7.07-34,1.4-7.41,4.5-13.34,11.16-17.36,26.27-15.85,40.79-39.18,43.94-69.65a15.94,15.94,0,0,1,.48-1.82H437.5l.75-1.74c-1.33-.74-2.63-2-4-2.12-2.44-.2-4.93.43-7.39.42-.61,0-1.21-1.13-1.82-1.74.62-.6,1.19-1.66,1.85-1.71,3.15-.25,6.34-.07,9.47-.37.94-.1,1.78-1.28,2.66-2-.93-.65-1.82-1.79-2.78-1.85-3.61-.22-7.25-.08-10.88-.08l-.49-1.27c1-.62,1.88-1.68,2.88-1.76,3-.24,6,.13,9-.21,1.33-.15,2.52-1.44,3.78-2.21-.24-.55-.47-1.1-.7-1.65H425.48l-1-1.19c.93-1.21,1.66-3.19,2.83-3.49,7.61-2,15.32-3.59,23.6-5.45-.38,3.09-.65,5.32-.95,7.81l-4.06,1.07c0,10.47,1.23,20.78-.31,30.66a188.65,188.65,0,0,1-9.46,35.83c-12.86,34.94-36.46,60.06-71,74.56a14.52,14.52,0,0,0-2.07,1.29Z" transform="translate(-1.79 -107.79)"/><path d="M397.51,249.83l-25,26.36C354.82,264.44,336,256.45,315,254.78c0-10-.14-19.74.15-29.48,0-1.37,1.93-2.94,3.29-4,20.27-15.7,45.62-15.45,66.06.87,5.94,4.75,11.34,10.17,17.56,15.81.65-7.58-2.25-13.4-6.84-18.48-7.95-8.8-18.44-12.85-29.79-14.64-17.77-2.81-35-1.29-50.86,8.22-1.27-3.25.11-4.72,2.68-6.12,14.85-8.06,30.57-10.83,47.07-7.31,7.34,1.56,12.69,0,18.05-5.37,15.92-16.07,24.41-35.71,28.75-57.41,1.79-8.9,2.82-17.95,4.37-28.07,19.82,38.75,15.26,77.16,3.91,116.59l42.68-24.46.75.69c-1.29,1.7-2.57,3.41-3.88,5.09-9.92,12.59-15.17,27.45-20.78,42.18-2,5.35-5.42,10.17-7.95,15.35-.58,1.19-.79,3.26-.13,4.24,12.84,19.29,18.3,40.94,20.77,63.6.76,7,.47,7.15-10.66,6.46-3.26-17.94-7.15-35.89-18.71-51.26l14.59,11.27c-2.33-9.94-5.84-18.12-13-24.22-1.27-1.09-4-1.22-5.85-.76-10.27,2.62-16.83,10.21-23.15,18-1.77,2.19-3.37,4.51-5.28,7.07l-6.64-5.17C396.47,282.56,401.36,268.47,397.51,249.83Zm25.75-110.34-1.38-.25a12.73,12.73,0,0,0-.39,2.26c.3,23.06-3.46,45.45-10.14,67.52-2.13,7-2,14.75-2.91,22.15l2.46.29C423.05,201.92,427.91,171.37,423.26,139.49ZM408.59,245.56c15-6.16,25.68-17.2,34.67-30.22C430.38,223.88,414,228.31,408.59,245.56Zm-17.78-3.1c.17-11.62-8.67-19-19.72-16.92C375.49,233.63,381.93,239,390.81,242.46Zm-21-2.34c4,6.31,8.47,10.95,15.48,13.1C384.55,243.88,379.67,239.63,369.82,240.12Zm-5.39,10.27-1.27,1.36,12.16,10.54C375.45,253.61,372.94,251.32,364.43,250.39Z" transform="translate(-1.79 -107.79)"/><path d="M305.38,212.83c-22.72-11.68-45.89-12.74-69.22-1.94-10.34,4.79-17.21,12.82-18.79,24.58a22.33,22.33,0,0,0,.19,3.09c4.82-4.62,8.89-8.89,13.34-12.73,11.49-9.93,24.29-16.56,40.09-16.05,12.19.4,22.43,5.3,31.77,12.61A5.59,5.59,0,0,1,305,226c.18,9.42.1,18.84.1,28.71a116,116,0,0,0-49,16.15c-8.79,5.2-8.57,4.92-16-2.38-5.78-5.68-12.25-10.67-17.89-15.52-4.36,9.22-.22,29.52,15.51,40.46l-6.3,5.12c-3.64-4.39-7.08-8.81-10.81-13-4.94-5.51-10.51-10.37-18-11.91a9.36,9.36,0,0,0-7,1.6c-5.42,4.54-10,14.36-11.4,23.14,2.75-2.29,4.88-4.2,7.15-5.93a64.19,64.19,0,0,1,7.64-5c-11.95,15-16.09,32.91-19.25,50.94a5.13,5.13,0,0,1-1.27.46c-10.72-.07-10.24,0-8.84-11.06,2.12-16.73,5.93-32.88,13.66-47.94,2.26-4.42,6.77-8.52,7-12.91.18-4-4.45-8-6.33-12.34-2.65-6.05-4.72-12.36-7-18.56A129.91,129.91,0,0,0,156.5,200.2l43.87,25.13c-11.17-39.43-15.8-78,3.86-116.28,2,11.46,3.32,22.53,5.79,33.35,4.49,19.72,13.06,37.35,27.57,52,5.42,5.47,10.8,6.93,18.09,5.31a61.59,61.59,0,0,1,35.7,2.4,75.93,75.93,0,0,1,11.24,5.11c1.74,1,2.79,3.19,4.16,4.84ZM209,231.59l2.14-.21c-.51-6-.28-12.16-1.69-17.94-4.65-19.16-10.46-38.06-10.74-58-.05-3-.48-6-.59-8.95-.1-2.79,0-5.58,0-8.36l-1.31.13C192,170.53,196.57,201.58,209,231.59Zm2.13,13.75c-5.29-16.56-20.91-21.31-33.77-29.25C186,228.79,196.57,239.32,211.17,245.34Zm18-2.92c8.83-3.33,15.36-8.78,19.73-17.15C236.86,224,228.92,230.83,229.17,242.42Zm5,10c5.63.2,13.06-5.92,14.92-12.29C240.41,239.61,236.53,242.81,234.21,252.38Zm22.66-.69c-9.16-1-12.43,1.86-12.3,10.65Z" transform="translate(-1.79 -107.79)"/><path d="M616.77,108c-6.83,17.78-14.67,36.22-21,55.15-8.22,24.55-12.64,50-14.87,75.8-.55,6.44-1.08,12.88-1.91,19.28a8.18,8.18,0,0,1-2.41,4.55c-27.6,25.39-50.59,54.59-70.84,86-2.18,3.4-4.47,4.48-8.36,4.35-32.3-1.07-64,2.34-94.13,14.74-10.23,4.21-20.05,9.4-30.15,14.18,3.61-6.66,8.15-13.27,14.76-17.13,9.44-5.49,12.08-13.36,12.18-23.37.11-11.56-.92-22.87-5.46-33.58-1.12-2.63-.77-4.2,1.13-6.07,2.13-2.1,3.76-4.71,5.95-6.72,3.74-3.43,8.93-2.93,11.61,1.35a88.78,88.78,0,0,1,12.83,35.7c.62,4.57-1.5,7.62-6.15,8.78-2.08.51-4.1,1.31-6.16,1.93-4.55,1.37-7.32,4.16-7.4,9.76,27.16-11.25,55.44-11.81,84.91-9.83.31-5.89.25-11.81,1.07-17.61.5-3.59,1.58-7.57,3.71-10.39,17.51-23.14,37.27-44.27,58-64.55,2.76-2.7,4-7.39,5-11.4,7.73-30.64,15.84-61.16,29.14-90C595.5,133.2,604.09,118.32,616.77,108ZM499.86,337.13c1.48-2.05,2.34-3.21,3.16-4.39,17.42-25.21,36.05-49.45,58.71-70.24,5.57-5.12,10-10,8.5-18.13-.17-.92.37-2,.46-2.94.56-6.32,1.09-12.65,1.64-19-3.22,8.23-5.15,16.68-7.49,25a16.22,16.22,0,0,1-3.93,7.11,703.29,703.29,0,0,0-54.5,58.93C500.61,320.49,499.33,327.64,499.86,337.13Z" transform="translate(-1.79 -107.79)"/><path d="M1.79,107.79c11.63,8.73,19.35,20.26,25.77,32.74,14.17,27.57,22.46,57.2,30.33,87,1.48,5.58,2.57,11.27,4.18,16.81a13.52,13.52,0,0,0,3.38,5.86c21.24,20,40.53,41.79,58.71,64.61,3.44,4.32,3.34,9.19,3.68,14,.32,4.45.07,8.93.07,14,29.46-1.88,58-1.67,85.62,9.92-.34-4.82-1.61-8.22-6.49-9.38a67.62,67.62,0,0,1-8.46-2.81c-3.72-1.41-5.79-4.46-5.12-8.15,2.22-12.11,5.88-23.79,12.18-34.5,3.55-6,8.93-6.65,13.83-1.57a11.81,11.81,0,0,0,1,1.08c5.35,4.35,5.63,9.14,3.14,15.59-5.15,13.35-4.26,27.38-2.26,41.26.28,1.89,2.28,3.93,4,5.14,8.64,6.09,15.92,13.38,21,23.08-2.64-1.53-5.25-3.11-7.93-4.56-23.43-12.69-48.34-20.81-74.91-23.07-13.88-1.18-27.86-1.4-41.79-1.71-3.39-.08-5.32-1-7.17-3.87-19.16-29.51-40.26-57.52-66.23-81.42C42.42,262.43,40.56,256.67,40,249c-3.66-48-14.23-94.17-36.43-137.25C2.89,110.47,2.37,109.11,1.79,107.79ZM119.72,336.26c1.48-8.65,0-15.84-6-22.29-17.24-18.46-33.9-37.44-51.31-55.73C58,253.57,55,249,53.84,242.68c-1.21-6.62-3.34-13.07-5.07-19.6a174.68,174.68,0,0,0,1.34,27.35,13.66,13.66,0,0,0,3.2,7.2c13.31,14.61,27.29,28.62,40.15,43.61C102.84,312.17,110.83,324.29,119.72,336.26Z" transform="translate(-1.79 -107.79)"/><path d="M253.91,359.77c.35-7,.46-13.94,1.19-20.86a9.81,9.81,0,0,1,3.37-6.19c18.38-13.94,39.27-18.41,62-16,14.83,1.6,28.39,6.31,40.38,15.39a9.71,9.71,0,0,1,4.33,8.35c.08,9.64.26,19.29.83,28.91.78,13.1-6.84,14.52-15.83,11.87a139.93,139.93,0,0,0-50.21-5.16c-9.67.7-19.19,3.32-28.81,4.86a38.34,38.34,0,0,1-10.82.63c-3.77-.49-6-3.29-6.06-7.33-.06-4.84,0-9.67,0-14.5Z" transform="translate(-1.79 -107.79)"/><path d="M309.74,268c18.09,1.38,35.42,4.65,51.65,12.26,13.14,6.16,17.38,23.13,5.08,35.81-2.89,3-6.31,2.4-9.65.82q-46.65-22-93.36-.18c-5.29,2.47-8.5,1.58-12-2.93-10.9-13.9-3-30.16,9.89-35A181.79,181.79,0,0,1,309.74,268Z" transform="translate(-1.79 -107.79)"/><path d="M248.36,368.85c-6.64-14.75-6.18-35,.24-37.17-.64,6.1-2,12.49-1.77,18.81.25,6.09,2.21,12.1,3.41,18.14Z" transform="translate(-1.79 -107.79)"/><path d="M370.5,368.78c.63-12.5,7.08-24.95-1.67-38.17C377.77,334.25,378.13,359.84,370.5,368.78Z" transform="translate(-1.79 -107.79)"/><path d="M226.48,339.17l9.39-29.25,2.43.75q-4.62,14.61-9.25,29.22Z" transform="translate(-1.79 -107.79)"/><path d="M390.85,339.85q-4.64-14.58-9.28-29.16l1.5-.47c5.2,9.07,7.86,18.92,9.54,29.08Z" transform="translate(-1.79 -107.79)"/><path d="M376.64,320.52c4,3,8.54,21.75,5.72,26.19Z" transform="translate(-1.79 -107.79)"/><path d="M243.15,320.26c-2,9.64-3.71,18-5.66,27.49C234.76,343.28,238.81,324.25,243.15,320.26Z" transform="translate(-1.79 -107.79)"/></svg>