<svg id="Layer_1" data-name="Layer 1" xmlns="http://www.w3.org/2000/svg" viewBox="0 0 383.51 479.36"><title>helmet-phoenix</title><path d="M283,485.93c2.67-11.58,5.57-23.13,7.88-34.79A10.75,10.75,0,0,1,297,443c12.4-6.67,23.54-15,32.27-26.19,7.57-9.72,10.17-21.42,12.41-33.11,2.66-13.84,4.41-27.82,1.51-41.88-2-9.69-8.22-14.74-18.23-15-5.78-.14-11.56,0-15.86,0L375.8,288.7c0,8.14.67,17-.14,25.79-1.45,15.65-3.26,31.3-5.88,46.79-5.23,30.89-13.65,60.76-32.1,86.79-13.11,18.49-30.23,31.48-52.57,36.95-.42.1-.74.6-1.11.91Z" transform="translate(-51.09 -6.7)"/><path d="M109.05,287.58c12,7.18,23.18,14.19,34.67,20.75s23.2,12.62,35.36,19.19c-5.51-.26-10.46-.68-15.42-.71-14.3-.07-20.36,5.65-21.84,20.06-2.06,20,1.5,39.29,8.16,58,5.28,14.82,17.17,24.09,29.62,32.63a4,4,0,0,0,.84.54c11,4,15.64,12.17,16.85,23.51.82,7.76,3.34,15.35,5.11,23-.42.5-.84,1-1.25,1.51-7.92-3.49-16.19-6.34-23.68-10.59-20.63-11.73-33.57-30.32-43.18-51.35-10.82-23.67-17-48.73-20.06-74.49-2.21-18.58-3.5-37.28-5.16-55.93C108.91,291.9,109.05,290.06,109.05,287.58Z" transform="translate(-51.09 -6.7)"/><path d="M421.46,11.47c.22,14.89.41,29.78.67,44.67q.45,25.69,1,51.39c.28,13,.69,25.92.89,38.89a14.42,14.42,0,0,1-1.3,5.74q-19.5,44.57-39.22,89.05a16.35,16.35,0,0,1-5,6.38c-18,12.84-36.07,25.48-54.14,38.16a18.09,18.09,0,0,1-2.43,1.13c-1.27-6.11-1.82-12.23-3.86-17.8-3.65-10,0-15.38,8.75-20.42,13.07-7.51,25.34-16.42,37.83-24.91a14.54,14.54,0,0,0,4.7-5.42c12.32-25.5,24.7-51,36.49-76.71,2.32-5.06,2.49-11.23,3.09-16.94,2.22-21.27,4.14-42.57,6.3-63.85,1.67-16.45,3.54-32.89,5.32-49.33Z" transform="translate(-51.09 -6.7)"/><path d="M64.7,6.89c2.36,21.72,4.8,43.44,7.06,65.18,1.84,17.64,4.11,35.27,5,53,.62,12.84,6.3,23.5,11.5,34.52,9,19,18,38,27.27,56.85a22.75,22.75,0,0,0,7.27,8.35c14.18,9.77,28.59,19.23,43,28.65,3.11,2,4.48,3.77,3.35,8-2.22,8.26-3.44,16.8-5.23,26-8.3-5.84-16-11.27-23.69-16.67-10.74-7.52-21.59-14.89-32.18-22.61a18.56,18.56,0,0,1-5.77-7.08q-19.62-44-38.79-88.15A24,24,0,0,1,62,143.94c-.13-7.32.09-14.66.2-22,.33-21.8.77-43.59,1-65.39.16-16.62,0-33.25,0-49.87Z" transform="translate(-51.09 -6.7)"/><path d="M359,214.62c-7.56,5.07-15.08,10.16-22.65,15.18-9.54,6.32-19.19,12.49-28.63,18.95a8.64,8.64,0,0,1-8.32,1.32c-4.4-1.4-9.05-2.06-13.47-3.42a4.81,4.81,0,0,1-2.74-3.23c-2.8-20.82-5.33-41.67-8.12-62.49-.9-6.71-2.37-13.34-3.53-20-.31-1.76-.43-3.55-.64-5.47C295.87,161.85,342.8,193.37,359,214.62Z" transform="translate(-51.09 -6.7)"/><path d="M215.11,155c-1.58,9.47-3.25,18.07-4.42,26.74-2.75,20.34-5.19,40.71-8,61a5.66,5.66,0,0,1-3.14,3.86,106.38,106.38,0,0,1-14.89,3.75,9,9,0,0,1-5.91-1.38c-17.51-11.4-34.91-23-52.46-34.58A230.45,230.45,0,0,1,215.11,155Z" transform="translate(-51.09 -6.7)"/><path d="M243.16,90.69q2.82,12.7,5.64,25.4c6.18,27.75,12.86,55.4,18.38,83.28,3.46,17.5,6.32,35.27,7.33,53,1,17.61-3.51,34.91-9.73,51.4-6.41,17-13.8,33.65-20.77,50.46-.23.53-.51,1-.77,1.57l-1.61.31c-7-17.61-14.41-35-20.82-52.87-6.25-17.35-10.85-35.35-9.46-53.95a359.11,359.11,0,0,1,6.36-45.72c7.63-36.73,16.1-73.28,24.22-109.91.21-1,.29-2,.43-3Zm-2.11,257.2,2.29-.23c3.46-8.88,7-17.72,10.38-26.64,10-26.49,19-53.18,15.33-82.23-1.52-11.95-4-23.61-12.32-33s-20.8-9.14-28.36.85A51,51,0,0,0,221,220.1a94.29,94.29,0,0,0-2.31,56.9C225.14,300.9,233.52,324.28,241.05,347.89Z" transform="translate(-51.09 -6.7)"/><path d="M55.85,93.54c0,17.81-.06,35.62.06,53.44a18.62,18.62,0,0,0,1.48,7.14q19.85,45.54,40,90.94a18.14,18.14,0,0,0,5.92,7c18.21,13.07,36.49,26,55,38.71,3.58,2.45,4.21,5,3.38,8.69-.61,2.68-1.17,5.36-1.84,8.45-17.08-9.59-33.46-19.38-50.41-28.05-9.14-4.67-14.36-11-17.84-20.71C79,223.92,65.31,189.12,52.39,154c-1.53-4.16-1.43-9.17-1.09-13.71,1.18-15.53,2.8-31,4.25-46.53Z" transform="translate(-51.09 -6.7)"/><path d="M326.23,307.7a8.62,8.62,0,0,1-1-1.39c-3.34-9.34.06-14.89,8.47-20.2,17.11-10.81,33.34-23,49.84-34.78a13.42,13.42,0,0,0,4.4-5.13q20.65-46.53,41-93.2a17.5,17.5,0,0,0,1.13-6.77c.1-16.81,0-33.63.45-50.45q1.65,19.35,3.3,38.71c.23,2.64.83,5.29.75,7.92-.13,3.91.09,8.11-1.23,11.67q-21.19,57.22-42.92,114.26c-.72,1.89-1.88,4.16-3.5,5.09C366.83,285,346.58,296.26,326.23,307.7Z" transform="translate(-51.09 -6.7)"/><path d="M227.57,339.61c-11.87-5.26-23.19-10.26-34.49-15.28-3.17-1.41-6.22-3.22-9.51-4.21-4-1.21-5-3.5-4.46-7.39,2.44-18.35,4.72-36.72,7.08-55.27,4.33-1.13,8.46-2.2,12.59-3.29,2.54-.67,3.92.62,4,2.9.66,29.13,12.62,54.84,24.28,80.64A18.47,18.47,0,0,1,227.57,339.61Z" transform="translate(-51.09 -6.7)"/><path d="M258.07,339.24c12.6-27.48,24.62-54.41,25.34-85.53l16.09,3.54c2.47,19,4.92,37.5,7.28,56,.31,2.44.42,4.69-2.74,6.06-14.58,6.3-29.06,12.87-43.58,19.32A14.79,14.79,0,0,1,258.07,339.24Z" transform="translate(-51.09 -6.7)"/><path d="M173.55,314.66c-7.61-3.35-7.73-3.38-6.38-10.8,2.58-14.13,5.42-28.21,7.92-42.35.63-3.54,2.42-3.84,5.94-2.94C178.56,277.12,176.08,295.71,173.55,314.66Z" transform="translate(-51.09 -6.7)"/><path d="M304.73,258.83c4.28-1.83,5.51.13,6.07,3.15,2.87,15.29,5.77,30.58,8.6,45.87,1,5.55-4.52,4.41-7,7.47C309.74,295.94,307.24,277.44,304.73,258.83Z" transform="translate(-51.09 -6.7)"/><path d="M242.66,324.56c-8.3-18.23-14.17-36.4-16.67-55.62-1.93-14.79-2.38-29.53,2.2-43.9a44.84,44.84,0,0,1,6.74-13.14c4.57-6.1,11.74-5.69,16.41.37,6.66,8.65,8.82,18.95,9.48,29.41,1.79,28.47-5.24,55.22-16.9,80.95C243.73,323,243.42,323.4,242.66,324.56Z" transform="translate(-51.09 -6.7)"/></svg>