<svg id="Layer_1" data-name="Layer 1" xmlns="http://www.w3.org/2000/svg" viewBox="0 0 536.06 237.29"><title>saint-seiya-logo</title><path d="M443,236.85H176c-.25-2.24-.5-4.49-.74-6.69H156v6.69q-76.26,0-152.52-.07c-1.21,0-4,1.61-3.48-1.93.71-1.48,1.51-2.94,2.12-4.47,6.66-16.52,13.37-33,19.84-49.62,1.27-3.26,2.9-4.67,6.5-4.7,6.58-.06,6.57-.29,6.89-7.33H27.62c.62-1.88,1-3.29,1.55-4.64Q42,131.56,54.77,99c1.13-2.89,1.88-5.75,6-5,.72.12,2.11-1,2.49-1.85,3.76-8.49,7.37-17,11.18-25.94l-6.82-.71C73.36,51.92,78.8,38.72,84.54,25.65c.47-1.07,3-1.76,4.54-1.76,19.49-.12,39-.16,58.48,0,1.85,0,3.69,1.76,5.53,2.7-.09.67-.18,1.35-.28,2,1.83-.7,4.88-1,5.23-2.16.94-3,2.83-2.73,5-2.73l42-.11q53.73-.18,107.46-.31c3,0,4.87-.68,6.17-3.65C321.57,13,324.88,6.46,328-.15h1c3.88,6.79,7.6,13.67,11.76,20.27a7,7,0,0,0,5.1,2.65c12.31.25,24.64.13,37,.2,11.49.06,11.6.06,15,10.92,1,3,2.13,4.28,5.5,4.17,12.15-.36,24.31-.24,36.46-.61,3.35-.1,5,.87,6.36,4,6.51,15.13,13.28,30.15,20,45.21,1.31,3,2.64,5.93,4.11,9.23l-7,1c5.94,6.52,11.3,12.64,16.94,18.49,2.31,2.39,2.87,4.16,1,7.23-3.75,6.08-6.78,12.61-10.49,18.72-1.93,3.18-1.78,5.37.5,8.37,13.49,17.77,26.71,35.74,40.1,53.59,8.17,10.91,16.47,21.72,24.72,32.57a17.24,17.24,0,0,1-4,1q-38,.09-76,0-5.44-12.12-10.88-24.25l-.89.5Zm-7.85-75.4.94-.38c.75,1.39,1.53,2.77,2.23,4.18,8.85,17.9,17.66,35.83,26.62,53.67.77,1.53,2.52,3.6,3.86,3.63,12.26.28,24.52.17,36.79.17.16-.49.33-1,.49-1.46l-49.2-66.87-4.14,5.18c-2.13-8.17-4-15.47-6.42-24.6l11.19,3.46c2.27-4.15,4.74-9.05,7.57-13.74,1.66-2.76,1.49-4.88-.91-6.93-6.21-5.31-12.41-10.64-18.88-16.2-2.46,0-6.78.06-11.1-.07-.53,0-1.26-1-1.5-1.7-1.83-5.4-3.57-10.84-5.6-17.07h21.43c-3.77-9.82-7.18-19-10.9-28-.41-1-2.65-1.71-4-1.73-10.33-.15-20.67,0-31-.1-4.48,0-10,1.35-13.14-.76s-3.45-7.79-5.2-11.84c-.53-1.23-1.59-3.08-2.51-3.14-4.86-.32-9.75-.15-14.92-.15.85,5.17,1.55,9.45,2.24,13.64-5.41,1.54-7.58-.35-7.89-5.36C361,42.57,360,39.9,359.26,37c-4.85,0-9.5.06-14.15,0-6-.09-13,2.26-15.43-6.86-1.13,1-1.9,1.42-2,1.91-1,5.6-4.76,6.16-9.56,6-7.74-.31-15.5-.09-23.69-.09V51.68l-11,.61c2.76,2.32,4.45,3.92,6.32,5.27,4,2.9,5.79,6.32,5.71,11.66-.17,12.09.66,24.19,1.09,36.7h22.72c8.1,0,8.11,0,7.8,8.23a5,5,0,0,1-.56,1.42h-6c-.38-1.51-.71-2.86-1-4.08H305.82c1.33,7.88-5.18,11.46-8.42,16.83-1.42,2.37-2.79,5.23-2.83,7.89-.1,8.81.36,17.64.71,26.46.29,7.39.73,14.78,1.15,23.15,1.24-1.68,2.1-2.47,2.5-3.44,1.79-4.41,5.09-5.51,9.55-5.1,4.31.39,8.66.29,13,.32,11.86.06,11.86,0,13.27,11.46,0,.28-.24.6-.65,1.55H296.51v30.71H396.78c-2.06-9.44-4.13-18.31-5.89-27.25-.52-2.67-1.56-3.58-4.25-3.51-6.16.16-12.34.16-18.5,0-1.35,0-3.55-.89-3.86-1.85-1.08-3.37-1.5-6.95-2.35-11.33H388c-2-8.09-3.69-15.36-5.81-22.49-.38-1.27-2.63-2.72-4.09-2.8-5.65-.32-11.33,0-17-.21-1.33-.05-3.35-1.1-3.75-2.17-.87-2.35-.9-5-1.4-8.39h23.87c-1.75-8-3.54-15.25-4.83-22.57-.58-3.24-1.92-3.93-5-3.79-6.11.29-12.24.09-18.8.09l-1.66-9.15h22.69c-2.5-12.66-4.91-24.65-7.24-36.66-1.31-6.77-.2-8.57,6.72-11.19,2.49,11.33,4.7,22.71,7.62,33.91,1.07,4.12,1.11,7.43-.9,11.23a10.14,10.14,0,0,0-.35,7c2.74,9.19,5.91,18.25,8.89,27.37,2.31,7,4.57,14,7.26,22.31,2.39-7.79,4.18-14.31,6.47-20.64.59-1.64,2.63-3.62,4.23-3.85,3.85-.56,7.84-.18,12.33-.18-6,29.51-11.79,58.34-17.65,87.36H427.3C430,202,432.57,181.7,435.18,161.45ZM77.51,182.93c-1.17,8.17-1.17,8.13-8,8.09-10.15-.05-20.31-.14-30.45,0-1.67,0-4.34,1-4.79,2.15-3.63,9.59-6.85,19.34-10.39,29.58,11.77,0,22.88,0,34,0,19.82,0,39.64.13,59.46,0,1.68,0,4.57-1.32,4.85-2.5,2.15-9.28,3.79-18.67,5.68-28.51H99.54l1.72-7.67c8,0,16,.13,23.95-.11,1.62-.05,4.27-1.18,4.61-2.35,1.76-6,2.91-12.17,4.42-18.91H107.13c.64-6.29.64-6.31,6.12-6.32,6.33,0,12.66.1,19-.09,1.4,0,3.73-.84,4-1.77,1.37-4.69,2.2-9.53,3.35-14.88-27.59,0-54.38,0-81.17.07a3.49,3.49,0,0,0-2.62,1.67c-2,4.46-3.68,9-5.74,14.21H86c-.7,4.36-.52,8.06-6.78,7.52-7.41-.63-15,.09-22.43.44-1.33.06-3.46.9-3.77,1.86-1.83,5.56-3.23,11.26-4.92,17.48Zm195.32,6.72V109.28h18.33V78.62c-5.9,0-11-.1-16.18,0-2.55.07-3.61-.86-3.65-3.41-.09-4.66-.33-9.32-.56-14-.38-7.74-.81-15.48-1.21-23.11H255c-.68,13.52-1.34,26.75-2,40.53H236.26V109h17.52c-.57,27.38-1.13,54.08-1.7,81.16-2.61,0-4.68-.34-6.54.12-1.2.31-3,1.78-3,2.77-.22,9.75-.13,19.5-.13,29.46h40.43V190.67Zm-129.7,32c7.7-39.18,15.29-77.86,22.92-116.77h23.39c2-22.1,3.91-43.86,5.87-65.91H169.46L129.81,221.69Zm51.36-116.45c6.24,0,12.38.23,18.48-.08,3.69-.19,5.1.81,5,4.65-.45,12.63-.69,25.26-.92,37.9q-.53,29.41-.94,58.84c-.07,5.09,0,10.18,0,15h11c1.16-61,2.3-121.66,3.45-182.44H200.31C198.34,61.54,196.4,83.5,194.49,105.24Zm-62-65.78c-11,0-21,.22-30.95-.1-4.23-.14-5.92,1.36-7.52,5.22-2.06,5-1,10.33-2.58,15C86.18,74.41,80.05,89,74.34,103.67c-1,2.55-1.75,5-5.32,4.64-.73-.06-2,1.2-2.33,2.1-2.27,6-4.35,12.09-6.68,18.65h28.3c-.35,2.44-.64,4.46-1,7,4.05,0,7.73.28,11.32-.15a5.27,5.27,0,0,0,3.45-3.14c6-18.62,11.71-37.34,17.71-56C123.74,64.56,128,52.47,132.47,39.46ZM109.7,129.32c10.6,0,20.74.13,30.87-.17,1.14,0,2.9-2.24,3.24-3.71Q151,94.17,157.75,62.8c1.43-6.54,2.64-13.14,3.95-19.73-7.62,0-14.43.14-21.24-.07-3.07-.1-4.32,1.08-5.19,3.93-4.9,16-10,32-15,48C116.71,106.31,113.26,117.71,109.7,129.32ZM164,137c-1.56,9.69-3.4,19.13-4.49,28.66-.77,6.65-.61,13.42-.65,20.14,0,3.17,2.32,7.26-3.71,7.32-.28,0-.72.73-.79,1.16-1.16,7.27-2.28,14.56-3.42,21.92h31.57c.48-7.15,1-13.92,1.3-20.7,0-.88-.81-2.51-1.45-2.62-3.53-.59-2.61-3.11-2.1-5,1.14-4.14.44-9.09,4.81-11.93.75-12.88,1.49-25.76,2.25-39Zm26.81,84.81c3.54,0,6.86.07,10.18,0a9.94,9.94,0,0,0,9.85-10q.41-25.44.89-50.88c0-1.65-.32-4.09.59-4.81,3.51-2.82,2.65-6.56,2.6-10-.16-11-.64-22-1-32.92,0-.14-.19-.27-.39-.51h-9c0,5-.15,9.64.05,14.25.18,4.17-1.15,6.3-5.7,5.66a46.6,46.6,0,0,0-6.38,0v22.94c2.51-.24,4.69-.84,6.7-.49,1.23.22,3.18,1.92,3.15,2.92-.25,10.46-.79,20.92-1.35,31.38-.19,3.58-1.8,5.95-5.85,5.87a41.26,41.26,0,0,0-4.34.43Zm-2.74-93.26V112.44H168.62c-.82,5.49-1.6,10.62-2.43,16.13Zm9.68,34.25h-7v23.41h7Z" transform="translate(0.03 0.15)"/><path d="M359.54,101.81c-7.6-5-15.35-9.82-22.72-15.14-3.16-2.28-5.35-2-8.31,0A222.12,222.12,0,0,1,305,101.12q4.31-10.43,8.61-20.84c3.23-7.75,3.23-7.74-3.61-12.33a138.25,138.25,0,0,1-17.57-13.22c8.05,0,16.11-.21,24.14.1,3.71.13,5.68-.81,6.86-4.53,1.53-4.87,3.79-9.52,6.22-15.47,3.5,5.63,6.68,10.36,9.42,15.32,1.58,2.86,3.48,3.84,6.72,3.72A115,115,0,0,1,367.85,55c-5.47,4.42-10.76,9.1-16.48,13.19-3.69,2.63-4.18,5-2.13,9,4,7.78,7.46,15.84,11.15,23.77Zm-9.23-10.89.67-.81c-2.39-5.28-4.57-10.67-7.25-15.81-1.48-2.83-.88-4.39,1.48-6.15,3.89-2.9,7.6-6.05,11.38-9.1-4.91-1-9.38-.69-13.78-1.1a8,8,0,0,1-5-2.86c-2.61-3.39-4.68-7.19-7.37-11.46-1.83,4.35-3.52,7.94-4.84,11.66-.93,2.62-2.39,3.58-5.17,3.47-5-.2-10.1,0-15.16,0a76.44,76.44,0,0,0,13.27,10.16c2.41,1.51,2.91,2.94,1.65,5.67-2.39,5.17-4.27,10.58-6.37,15.88A59.49,59.49,0,0,0,328,82.32c3.54-2.8,6.19-2.5,9.58.13C341.6,85.56,346.05,88.12,350.31,90.92Z" transform="translate(0.03 0.15)"/><path d="M395.22,83c1.55-.12,2.86-.12,4.14-.33,4.54-.76,7,.84,7.9,5.63.79,4.3,2.45,8.45,4,13.47a92.6,92.6,0,0,1-9.53-.12c-.9-.1-2.1-1.52-2.39-2.56C397.83,93.81,396.6,88.51,395.22,83Z" transform="translate(0.03 0.15)"/><path d="M331.65,152.46h-17c1.44-3.78,1.77-8.16,4-9.58,2.65-1.7,7.84-2.26,10.22-.7C331,143.56,330.74,148.53,331.65,152.46Z" transform="translate(0.03 0.15)"/><path d="M172.13,76.16h10.15c.52,8.54.52,8.54-11.39,7.36Z" transform="translate(0.03 0.15)"/><path d="M185.69,53.42c.59,7.17-1.25,8.24-10.49,6.11C175.57,52.17,176.17,51.82,185.69,53.42Z" transform="translate(0.03 0.15)"/><path d="M218.51,76.35v7.11H207.38C206.67,75.13,206.67,75.13,218.51,76.35Z" transform="translate(0.03 0.15)"/><path d="M208.27,60.46c.18-8.64.18-8.64,10.86-7.44v7.44Z" transform="translate(0.03 0.15)"/><path d="M89.09,105.46c1.46-8.73,2.25-9.31,10.44-7.94C98.54,106,98,106.43,89.09,105.46Z" transform="translate(0.03 0.15)"/><path d="M106.35,75.4c-1.09,8-1.16,8.09-9.73,7.27C97.05,75,98.12,74.16,106.35,75.4Z" transform="translate(0.03 0.15)"/><path d="M103.12,61.31c.73-7.06,1-7.23,9.45-6.15C111.52,62.34,111.31,62.48,103.12,61.31Z" transform="translate(0.03 0.15)"/><path d="M147.36,65.23c-3,12.58-5.76,24.85-8.94,37-1.46,5.6-6,1.6-9.95,3,1.82-7.24,3.41-13.6,5-19.94,1.24-4.82,2.57-9.61,3.8-14.42C139.17,63.67,139.15,63.67,147.36,65.23Z" transform="translate(0.03 0.15)"/><path d="M166.73,176.12h6.61c-.59,4.67-.94,9-1.82,13.31-.24,1.19-2.06,2.06-3.15,3.07-.55-1.21-1.51-2.41-1.57-3.65C166.6,184.75,166.73,180.64,166.73,176.12Z" transform="translate(0.03 0.15)"/><path d="M170.28,160c-.37-9-.06-9.35,7.26-8.75C179.48,160.25,178.43,161.59,170.28,160Z" transform="translate(0.03 0.15)"/></svg>