<svg id="Layer_1" data-name="Layer 1" xmlns="http://www.w3.org/2000/svg" viewBox="0 0 229.32 229.44"><title>zodiac-wheel</title><path d="M112.56,232.56c-.47-.07-.94-.17-1.41-.2a110.65,110.65,0,0,1-36.4-8.28c-2.76-1.15-5.42-2.53-8.12-3.83-2-1-4-1.86-5.85-3A115.34,115.34,0,0,1,8.62,152.92a108,108,0,0,1-4.73-22c-.29-2.69-.55-5.39-.65-8.09s-.07-5.34.09-8c.25-4.5.45-9,1-13.47A100.83,100.83,0,0,1,11,76.19a122.55,122.55,0,0,1,5.19-11.44A114.57,114.57,0,0,1,169.78,15.6c1.68.85,3.29,1.86,4.9,2.85,3.55,2.2,7.21,4.25,10.58,6.7A114.79,114.79,0,0,1,232,106.53c.28,2.69.27,5.41.35,8.12.07,2.47.19,4.95.1,7.42a113.07,113.07,0,0,1-7.95,37.9,114.41,114.41,0,0,1-29.36,42.51A100.77,100.77,0,0,1,177,216c-4.42,2.52-9,4.78-13.6,6.94-10.81,5.09-22.3,7.74-34.12,9.08-2.14.24-4.29.36-6.44.54Zm7.82-2.12c28.72-.47,55.82-11.4,77.79-33.9,22.86-23.41,33.67-51.84,32.09-84.46A112.58,112.58,0,0,0,118.85,5.26C56.54,4.48,1.3,56.89,5.44,125.14,8.81,180.69,54.89,230,120.38,230.44Z" transform="translate(-3.19 -3.12)"/><path d="M117.92,9C177.6,9.33,223.14,56,226.44,110.66c1.94,32.22-8.45,60.26-31,83.32-21.36,21.82-47.7,32.87-78.25,32.66C57.37,226.24,12,178.69,9.16,124,5.76,58.39,58.66,8.75,117.92,9ZM12.57,119.51a4.9,4.9,0,0,0-.07.74A115.87,115.87,0,0,0,15,140.91a130.76,130.76,0,0,0,6.49,20c1,2.41,2.31,4.66,3.45,7,.43.88.95.85,1.72.4,3.79-2.22,7.59-4.4,11.39-6.59,6.54-3.78,13.06-7.57,19.62-11.3.94-.53,1-.93.51-1.85A64.43,64.43,0,0,1,51.36,127c-.33-2.44-.5-4.91-.76-7.5Zm103.32,65.38c-.38,0-.65-.06-.92-.07a67.47,67.47,0,0,1-14.55-2.22,63.07,63.07,0,0,1-13.57-5.33c-.82-.45-1.33-.48-1.77.49s-1,1.88-1.59,2.82Q75.27,194.79,67,209c-.39.67-.32,1,.3,1.3,4.14,2,8.23,4,12.43,5.89a67.28,67.28,0,0,0,6.86,2.29,104.11,104.11,0,0,0,23.73,4.46c1.82.13,3.65.17,5.54.26ZM63.69,27.62c-11.47,5.54-33,27.16-36,36.28,1.69.91,3.44,1.81,5.14,2.8,1.91,1.1,3.75,2.34,5.66,3.44,3,1.71,6.06,3.33,9.06,5q6,3.42,12,6.94c.82.49,1.23.4,1.8-.42,1.75-2.53,3.5-5.07,5.47-7.42a63.08,63.08,0,0,1,15-13.09c.75-.47.91-.9.37-1.61a8.44,8.44,0,0,1-.47-.83l-13.9-24C66.41,32.36,65.07,30,63.69,27.62Zm2.94-1.81c.79,1.32,1.6,2.63,2.36,4,5.38,9.3,10.77,18.6,16.09,27.93.57,1,1,.93,1.84.49a64,64,0,0,1,19.32-6.55c3.18-.53,6.4-.79,9.64-1.18v-38C98.45,13,82.06,17,66.63,25.81Zm53-13.3V50.58c1.3.09,2.49.16,3.68.26a65.42,65.42,0,0,1,25.6,7.42c.86.45,1.17.12,1.56-.57q7.69-13.41,15.44-26.78c1-1.71,2-3.41,3-5.19A103.06,103.06,0,0,0,119.59,12.51ZM63.45,208a3.44,3.44,0,0,0,.39-.42q9.19-15.92,18.4-31.84c.49-.83.08-1.07-.51-1.46a67.56,67.56,0,0,1-19.31-18.73c-.63-.91-1.24-1.82-1.9-2.8L27.39,171.87A106.75,106.75,0,0,0,63.45,208ZM209.87,66.5c-2.09,1.24-4.09,2.46-6.12,3.61-3.06,1.74-6.16,3.39-9.2,5.15-5.52,3.19-11,6.47-16.5,9.64C177,85.52,177,86,177.5,87a63.9,63.9,0,0,1,6.82,21.46c.32,2.45.5,4.91.76,7.48h38.15A106.79,106.79,0,0,0,209.87,66.5Zm-184.25.19a107.24,107.24,0,0,0-13.1,49.19H50.68c0-.51,0-.95.1-1.38.55-4,.89-8,1.7-12a58.08,58.08,0,0,1,5.84-15.79c.31-.58.5-1-.28-1.47q-9-5.13-17.9-10.34c-3.64-2.12-7.26-4.28-10.91-6.39C28.07,67.88,26.85,67.32,25.62,66.69ZM208.16,171.9l-33.1-19a68.77,68.77,0,0,1-22.22,22.19l19,33C181.3,204.6,201,185,208.16,171.9Zm-90.36,9.49a63.64,63.64,0,1,0-63.6-63.68A63.71,63.71,0,0,0,117.8,181.39Zm1.72,41.79A105.32,105.32,0,0,0,169,210l-19.13-33.12c-.49.21-.82.33-1.14.5a65.53,65.53,0,0,1-27.9,7.43c-1.09.05-1.3.39-1.3,1.4q0,17.1,0,34.2ZM152.87,60.41c.4.28.68.5,1,.69a66.34,66.34,0,0,1,20.37,20.31c.73,1.14,1.23,1.07,2.22.47,3.28-2,6.6-3.87,9.92-5.75,3.82-2.16,7.68-4.24,11.47-6.43,3.06-1.75,6-3.67,9.08-5.4,1.09-.61,1-1.09.45-2a104.67,104.67,0,0,0-25.48-28c-3.21-2.45-6.6-4.66-9.89-7C165.54,38.45,159.23,49.37,152.87,60.41Zm32.2,59.07c-.06.49-.12.84-.14,1.19a69.11,69.11,0,0,1-2.29,14.64,62.94,62.94,0,0,1-5.29,13.44c-.41.76-.44,1.25.46,1.71,1.5.75,2.93,1.64,4.37,2.49q10,5.88,20,11.76c.65.38,1.39.59,2,1,1.59.95,3.17,1.92,4.73,2.93.78.5,1.29.19,1.66-.48a34.39,34.39,0,0,0,1.91-3.66c1.78-4.35,3.62-8.68,5.18-13.11a100.91,100.91,0,0,0,5.21-25.63c.16-2.09.21-4.18.31-6.25Z" transform="translate(-3.19 -3.12)"/><path d="M36.52,139.8l-10.69-6.16c.26,1.08.45,1.88.65,2.67s.42,1.62.64,2.43.3,1.6-.68,1.86-1.36-.54-1.58-1.35c-.5-1.89-1-3.78-1.51-5.67-.28-1-.55-2.06-.85-3.2,3.21-.86,6.28-1.7,9.35-2.51a1.15,1.15,0,1,1,.54,2.23l-4,1.1c-.36.1-.72.23-1.37.43l10.68,6.16c.77-1.3,1.53-2.51,2.21-3.76.41-.75,1-1.12,1.74-.71s.66,1.17.26,1.87c-.7,1.21-1.39,2.42-2.16,3.77L44,141.45c2,1.16,4,2.32,6,3.46.75.43,1.26,1,.76,1.82s-1.24.58-2,.17c-3-1.78-6.11-3.49-9.11-5.31-.93-.57-1.37-.41-1.82.51s-1.06,1.87-1.62,2.79c-.37.59-.88,1-1.59.59a1.16,1.16,0,0,1-.37-1.76C35,142.45,35.74,141.17,36.52,139.8Z" transform="translate(-3.19 -3.12)"/><path d="M103.5,199.86c2.24.6,4.37,1.12,6.45,1.79a1.67,1.67,0,0,1,.85,1.31c0,.76-.7,1-1.42.84-1.13-.27-2.25-.56-3.36-.89a1,1,0,0,0-1.43.57,9,9,0,0,1-17-4.3c0-.92-.24-1.37-1.18-1.53s-2-.51-3-.79c-.76-.21-1.23-.7-1-1.5s.81-.92,1.53-.73c1.89.5,3.78,1,5.68,1.5.86.21.6.76.49,1.3-.73,3.46.62,6.42,3.56,7.84a6.72,6.72,0,0,0,9.43-4.13Z" transform="translate(-3.19 -3.12)"/><path d="M111.46,198.37c-.59-.13-.95-.2-1.29-.29l-24.62-6.6-.35-.09c-.75-.23-1.39-.62-1.11-1.53s.93-.93,1.75-.71c3.84,1.06,7.7,2.07,11.55,3.1l13.4,3.61c.3.08.72.09.89.29a2,2,0,0,1,.61,1.26C112.24,197.79,111.7,198.1,111.46,198.37Z" transform="translate(-3.19 -3.12)"/><path d="M51,57.77c.81-4,1.92-5.07,5.59-5.53.05-.4.09-.83.17-1.25a5,5,0,0,1,8.16-3c.6.47.94,1.07.45,1.76s-1.2.53-1.87.07a2.76,2.76,0,0,0-3.71.09,2.79,2.79,0,0,0-.11,3.81c.41.58.63,1.14,0,1.7s-1.12.34-1.71-.08a2.8,2.8,0,0,0-3.81.14A3,3,0,0,0,54,59.22a1.92,1.92,0,0,1,.11,1.66c-.4.64-1.09.41-1.68,0a2.81,2.81,0,0,0-3.72,0,3.06,3.06,0,0,0-.25,4c.36.52.55,1,.09,1.47a.92.92,0,0,1-1.6,0,4.79,4.79,0,0,1-1-5.42,4.88,4.88,0,0,1,4.51-3A2.74,2.74,0,0,0,51,57.77Z" transform="translate(-3.19 -3.12)"/><path d="M62.94,58.57A5.26,5.26,0,0,1,65.39,54a5,5,0,0,1,5.91.45c.61.51.92,1.08.39,1.75s-1.21.49-1.88,0c-1.85-1.31-4.17-.51-4.42,1.6A4.2,4.2,0,0,0,66,60.08c.34.63.64,1.12,0,1.7s-1.13.36-1.71-.06a2.74,2.74,0,0,0-3.84,3.9c.45.61.64,1.25,0,1.65a1.87,1.87,0,0,1-1.57,0c-1.58-.94-2.87-1-3.9.12A2.9,2.9,0,0,0,55,71.21c.43.62.64,1.12,0,1.65s-1.26.28-1.76-.31c-1.44-1.66-1.94-5.13.64-7a18.16,18.16,0,0,1,3-1.34c.25-.11.58-.3.65-.52C58.8,59.55,58.89,59.45,62.94,58.57Z" transform="translate(-3.19 -3.12)"/><path d="M100.39,36.1c1.33,3.69,3.39,6.57,6.94,8.25a2.15,2.15,0,0,1,1.14,1c.29.92-.68,1.57-1.69,1.17a13.8,13.8,0,0,1-6.82-6,20.81,20.81,0,0,1-1.52-3.11c-.25-.62-.56-.79-1.17-.61-1.31.38-2.61.78-3.93,1.07-.84.18-.92.56-.81,1.35.54,4,.1,7.73-2.23,11.12-.16.23-.33.45-.5.67-.49.62-1.1.88-1.76.34s-.53-1.14,0-1.78c2.47-3.17,2.71-6.78,2.11-10.77-1.33.33-2.56.6-3.76,1-.85.25-1.56.21-1.82-.73s.4-1.28,1.15-1.48c1-.26,1.93-.55,2.9-.77.63-.15.91-.38.62-1.07-1.36-3.23-3.31-5.91-6.62-7.39-.7-.32-1.44-.7-1.09-1.65s1.32-.78,2-.45a13.65,13.65,0,0,1,5.87,5,27.09,27.09,0,0,1,2,3.8c.3.66.6.82,1.26.63,1.27-.37,2.54-.73,3.82-1,.82-.17,1-.53.86-1.33-.55-4-.12-7.74,2.19-11.14.2-.29.43-.57.66-.85a1,1,0,0,1,1.56-.22,1.07,1.07,0,0,1,.18,1.67,11.52,11.52,0,0,0-2.44,6.77c0,1,.06,2.07.08,3.11,0,.83.31,1.15,1.2.84s1.93-.5,2.88-.8c.79-.24,1.41-.07,1.65.71s-.28,1.33-1.08,1.54Z" transform="translate(-3.19 -3.12)"/><path d="M143.47,27.13c3.54-3,7.23-3.18,10.65-.9a8.3,8.3,0,0,1,3,10.35,8.48,8.48,0,0,1-9.53,4.94c-.77-.19-1.41-.49-1.22-1.43s.87-1,1.67-.85A6.09,6.09,0,0,0,155,35.76a6.3,6.3,0,0,0-3.28-8.28c-3.54-1.61-7.56,1-8.36,4.3-1.41,5.66-3,11.27-4.5,16.9-.21.8-.37,1.82-1.54,1.53s-1-1.2-.71-2.13c1.54-5.66,3.07-11.33,4.55-17a6.08,6.08,0,0,0-4.37-7.62,6.17,6.17,0,0,0-3.58,11.8c.8.29,1.48.65,1.15,1.6s-1.19.85-2,.56a8.53,8.53,0,0,1-4.83-11.62,8.44,8.44,0,0,1,11.58-3.87,7.21,7.21,0,0,1,3.82,4.2A4.91,4.91,0,0,0,143.47,27.13Z" transform="translate(-3.19 -3.12)"/><path d="M46.35,181.5a5.36,5.36,0,0,1,1.78-3.92q5-4.91,9.89-9.87a6.81,6.81,0,0,0,1.3-1.69,2.46,2.46,0,0,0-.56-3c-.84-.85-1.68-1.7-2.54-2.55-.58-.56-.88-1.18-.25-1.87s1.27-.39,1.84.2c.81.83,1.65,1.63,2.46,2.46a4.92,4.92,0,0,1,0,7.35c-3.53,3.59-7.11,7.13-10.66,10.7a2.84,2.84,0,0,0-.64,3.5,2.57,2.57,0,0,0,3.08,1.24,4.6,4.6,0,0,0,1.74-1.18c4.29-4.24,8.54-8.51,12.81-12.76.28-.28.63-.66,1-.66s1.12.25,1.17.49a2,2,0,0,1-.33,1.56c-1.8,1.92-3.7,3.75-5.56,5.61Q59,181,55.18,184.87a2.83,2.83,0,0,0-.26,4,2.88,2.88,0,0,0,4.17-.21c2.94-2.93,5.86-5.88,8.8-8.81q2.1-2.13,4.22-4.24c.6-.59,1.27-1.19,2-.42s.21,1.44-.39,2q-6.43,6.43-12.87,12.89c-1.52,1.52-1.55,2.49-.45,4.35a1.75,1.75,0,0,1-.08,1.56.94.94,0,0,1-1.62-.16,13.33,13.33,0,0,1-1.29-3c-.17-.59-.31-.86-1-.92A4.75,4.75,0,0,1,52,187.55c-.09-.84-.41-1-1.16-1.1A4.9,4.9,0,0,1,46.35,181.5Z" transform="translate(-3.19 -3.12)"/><path d="M215.06,105.07a48.55,48.55,0,0,1-3.91-2.94A15.12,15.12,0,0,1,209,99.3a.94.94,0,0,0-1.24-.52q-6.18,1.69-12.37,3.32a1.23,1.23,0,0,0-1.08,1.4,11.9,11.9,0,0,1-2,6.68,2.61,2.61,0,0,1-1.28.93,1.14,1.14,0,0,1-.95-.53,1.39,1.39,0,0,1,0-1.2c3.44-4.56,1.8-12.83-2.23-16.64A11.45,11.45,0,0,0,185.47,91c-.74-.4-1.23-.88-.88-1.68s1.15-.8,1.93-.42a12,12,0,0,1,5,4.67,1.35,1.35,0,0,0,1.81.75c4.11-1.16,8.24-2.25,12.37-3.33.65-.17.77-.49.8-1.09a12.31,12.31,0,0,1,2-6.89c.49-.68,1.05-1.2,1.89-.59s.42,1.21,0,1.87c-2.2,3.51-2,7.23-.8,11a11.48,11.48,0,0,0,5.88,7.23,1.62,1.62,0,0,1,.67,1.31C216.17,104.19,215.6,104.51,215.06,105.07Zm-21-5,13.44-3.6c-.33-1.19-.61-2.21-.91-3.31l-13.39,3.59C193.52,97.88,193.79,98.9,194.09,100.06Z" transform="translate(-3.19 -3.12)"/><path d="M24.88,101.26a6.82,6.82,0,0,1-.4-6.86A6.66,6.66,0,0,1,32,90.9c2.86.71,5.7,1.51,8.71,2.31-.34-2.16-.2-4.17,1.48-5.58a7.42,7.42,0,0,1,3.13-1.57,5.26,5.26,0,0,1,5.72,3.39c1,2.7.09,5-3.07,7.12,1,1.85.2,3.67-.27,5.52-.2.78-.58,1.39-1.48,1.17s-1-1-.79-1.73.44-1.46.59-2.2a2,2,0,0,0-1.63-2.71c-4.23-1.17-8.46-2.34-12.72-3.41a4.34,4.34,0,0,0-5.53,3.25c-.55,2.51.92,4.65,3.56,5.35,5.41,1.42,10.8,2.9,16.2,4.35.8.22,1.54.53,1.3,1.5s-1.1,1-1.94.73L27.81,103.7c-2.16-.58-3.08-.21-4.08,1.76-.34.68-.89,1.12-1.5.7a1.84,1.84,0,0,1-.57-1.56C22,103,23.3,102,24.88,101.26Zm18.06-9.82a3.08,3.08,0,1,0,6.16-.07A3.07,3.07,0,0,0,46,88.29,3,3,0,0,0,42.94,91.44Z" transform="translate(-3.19 -3.12)"/><path d="M184,175.6a31.17,31.17,0,0,1,4.34,3.12,6.58,6.58,0,0,1-.18,9.11,6.79,6.79,0,0,1-9.14.6c-2.38-2-3.93-4.7-5.57-7.31a55.88,55.88,0,0,0-3.69-5.44c-2-2.49-4.89-2.52-7.17-.29-.17.17-.35.34-.51.51-.56.58-1.18.72-1.77.1s-.38-1.12.11-1.68c3.42-3.93,8.19-3.93,11.37.22,1.94,2.52,3.48,5.35,5.28,8a26.94,26.94,0,0,0,3.09,3.81,4.45,4.45,0,1,0,6-6.57,13.59,13.59,0,0,0-4.31-1.9c-2-.59-4.13-.92-5.89-2.22a6.83,6.83,0,0,1-2.62-7.32,6.72,6.72,0,0,1,6-5c2.87-.19,6.42,1.69,7.1,5a6.56,6.56,0,0,1-1.62,6.33C184.46,175,184.18,175.42,184,175.6Zm-3.7-10a4.47,4.47,0,1,0-.67,8.91,4.31,4.31,0,0,0,4.71-4C184.65,168,182.6,165.43,180.33,165.64Z" transform="translate(-3.19 -3.12)"/><path d="M117.82,178a60.2,60.2,0,1,1,60.23-60.18A60.29,60.29,0,0,1,117.82,178Zm0-2.12c31.88.26,59.49-26.56,58.06-60.65a58,58,0,0,0-57.73-55.49c-16.52-.06-30.66,5.87-42.09,17.73C63.22,90.86,58,107.07,60.18,125.37A58,58,0,0,0,117.85,175.92Z" transform="translate(-3.19 -3.12)"/><path d="M130.65,192.52c-1.13.21-2.28.36-3.4.63-1.56.38-2.31.27-2.43-.59-.18-1.32.93-1.36,1.77-1.65,2.07-.71,4.11-1.07,6.08.32.21.14.68,0,1-.13a5.67,5.67,0,0,1,1.55-.58,1.93,1.93,0,0,1,1.45.64c.39.63,0,1.21-.7,1.51-1.59.71-1.62.72-1.13,2.43q1.93,6.85,3.91,13.69a2.72,2.72,0,0,0,3.39,1.91c1.63-.38,2.32-1.41,1.88-3.25-.56-2.36-1.28-4.69-1.95-7-1.08-3.76-2.18-7.52-3.26-11.28-.22-.79-.29-1.59.69-1.88s1.32.43,1.55,1.23c1.69,5.91,3.39,11.82,5.06,17.73a2.78,2.78,0,0,0,2.38,2.36,2.65,2.65,0,0,0,3-3.57c-1-3.66-2.07-7.29-3.11-10.94-.68-2.38-1.35-4.77-2.05-7.14-.23-.78-.24-1.52.6-1.8s1.37.33,1.61,1.15c1.68,5.87,3.37,11.73,5,17.61.57,2,1.44,2.69,3.56,2.52.81-.06,1.47.22,1.41,1a1.68,1.68,0,0,1-1.11,1.2,10.08,10.08,0,0,1-3.13-.36,1,1,0,0,0-1.19.35c-2,2.25-3.8,3-6.41,1.85a1.14,1.14,0,0,0-1,.31,5.34,5.34,0,0,1-5.65,2.1,5,5,0,0,1-3.6-3.8c-.23-.76-.43-1.52-.67-2.39-.46.11-.84.18-1.21.28a5.24,5.24,0,0,1-6.83-4.74,10.85,10.85,0,0,1,2.56-8.57,7.67,7.67,0,0,0,.53-.74Zm4.42,11.79L132.4,195c-1.63,1.08-2.67,4.3-2.43,6.39C130.33,204.6,131.88,205.57,135.07,204.31Z" transform="translate(-3.19 -3.12)"/><path d="M185,59.27c.23,2.77-.11,5.64-2.23,7.9a8.92,8.92,0,0,1-7.66,3.1,9.16,9.16,0,0,1-8.1-10c.47-5.31,4.78-8.41,11.33-8-.84-2.62.27-5,.58-7.54.26-2.09-.81-3.65-2.14-5.12a2.29,2.29,0,0,1-.58-1.32,1.09,1.09,0,0,1,.7-.81,1.77,1.77,0,0,1,1.26.38,8.32,8.32,0,0,1,2.8,8.74c-.42,1.67-.88,3.31-.35,5.06a6.93,6.93,0,0,0,8.72,4.85c3.83-1.13,7.16-.6,10,2.42.55.59.78,1.14.23,1.76a1.08,1.08,0,0,1-1.77-.07c-2.22-2.54-4.92-2.71-8-1.87A27.82,27.82,0,0,1,185,59.27Zm-2.22,2.34a6.73,6.73,0,0,0-6.62-7.16A6.66,6.66,0,0,0,169.35,61a6.75,6.75,0,0,0,6.43,7C179.08,68.12,183,65.31,182.82,61.61Z" transform="translate(-3.19 -3.12)"/><path d="M191.72,133.89a57.75,57.75,0,0,0-1.85,6c-.75,3.69-.84,7.37,1,10.86a1.65,1.65,0,0,1-.43,1.5c-.57.47-1.2.16-1.58-.49a13.43,13.43,0,0,1-1.8-6.88c0-6.25,1.69-11.9,6-16.56a7.5,7.5,0,0,1,6.47-2.76,6.8,6.8,0,1,1-6.82,9.8c-.21-.45-.41-.91-.61-1.36Zm2.64-1.66a4.48,4.48,0,1,0,9,.1,4.5,4.5,0,0,0-4.44-4.54A4.45,4.45,0,0,0,194.36,132.23Z" transform="translate(-3.19 -3.12)"/><path d="M208.78,147.33c2.48-5.75,3.84-11.2,1.16-16.93-.34-.72-.37-1.33.35-1.75s1.28,0,1.66.66a14.27,14.27,0,0,1,1.71,8.09c-.34,6.41-2.25,12.19-7.36,16.43A6.79,6.79,0,1,1,208,145.6C208.24,146.06,208.43,146.54,208.78,147.33Zm-11.28,1.28a4.39,4.39,0,0,0,4.44,4.49,4.45,4.45,0,0,0,4.49-4.46,4.38,4.38,0,0,0-4.47-4.45A4.3,4.3,0,0,0,197.5,148.61Z" transform="translate(-3.19 -3.12)"/></svg>