<svg id="Layer_1" data-name="Layer 1" xmlns="http://www.w3.org/2000/svg" viewBox="0 0 385.25 363.21"><title>athena-staff-2</title><path d="M0,223c5.05-6.89,8.39-7.07,13.91-.26,5.65,7,11.07,14.13,16.4,21.35,3.68,5,3.48,7.11-.87,11.72-3.57,3.8-2.78,7.29-.13,11.17,26.8,39.16,63.28,64.59,108.93,77.09,17.95,4.92,36.33,8.83,54.81,8.32A220.18,220.18,0,0,0,281,331.85c31-14.53,55.75-36.38,75.19-64.42,3.91-5.63,3.8-7.59-.78-12.58-2.79-3-3.16-6.25-.75-9.45,6.2-8.22,12.62-16.27,18.85-24.47,2.13-2.81,4.79-3.59,7.87-2.39a5.66,5.66,0,0,1,3.59,7.34c-3.7,12-6.41,24.5-11.79,35.71C344.8,320.7,297,355.45,233.82,369.73c-12,2.72-24.53,3.56-36.82,5.27h-8c-4.62-.37-9.26-.56-13.85-1.13-28-3.48-54.75-11-79.61-24.73-40.29-22.21-69.89-54-87.05-96.91C5.08,243.72,2.8,234.76,0,226Z" transform="translate(0 -11.79)"/><path d="M352.32,205.15l-49.2-19.79c1-10.45,3-20.31,2.68-30.1-1.13-34.76-12.25-65.66-38-90.09-14.11-13.38-31.47-20.45-50.19-24.77-31.82-7.34-61.42-1.11-88.4,16.12-24.91,15.9-38,40.53-45.28,68.49-5.16,19.86-5.7,39.87-.3,60L33.27,205.23c-2.28-12.4-3.68-24.43-2.92-36.66C33,126.12,48.57,89.24,79.12,59.46,133.44,6.52,211.06-3.18,274.67,34.66,339.44,73.2,364.39,144.51,352.32,205.15Z" transform="translate(0 -11.79)"/><path d="M231.46,334.43c-22.61,6.4-58.91,6.27-77.25-.25q4.33-31.33,8.67-62.77c1.75-12.79,3.44-25.59,5.21-38.38a8.55,8.55,0,0,1,1.14-3.66c7.69-11,7.48-23.4,6.41-35.94-.31-3.61-1-7.2-1.51-10.8-.9-5.92-3-11.06-8.06-14.87-4-3-3.83-6.52-.08-10a39.33,39.33,0,0,1,53.73.06c2.94,2.8,4,6.4.71,9.13a23.66,23.66,0,0,0-9,17.51c-.55,10.7-.53,21.44-.38,32.16a13.28,13.28,0,0,0,2.52,7.44c5.46,7,5,15.55,6.22,23.57,2.8,18.83,5.21,37.71,7.75,56.58C228.86,314.18,230.13,324.21,231.46,334.43Z" transform="translate(0 -11.79)"/><path d="M94.74,306.1l30.14-45.3c3.76-5.65,7.4-11.39,11.32-16.92a7.33,7.33,0,0,1,4.22-2.78c7-1.31,14.13-2.26,21.18-3.34-4.18,30.79-8.53,62.85-12.94,95.35A163.53,163.53,0,0,1,94.74,306.1Z" transform="translate(0 -11.79)"/><path d="M224.17,237.91c7.22,1.06,14.14,2,21,3.15a5.9,5.9,0,0,1,3.65,1.86q21.06,31.34,41.9,62.79c-10.4,9.83-33.7,21.73-53.64,27.25C232.75,300.88,228.39,268.92,224.17,237.91Z" transform="translate(0 -11.79)"/><path d="M332.88,258.8c-10.08,16.79-22,31.3-37.34,43.67l-41.28-61.88,29-19.1Z" transform="translate(0 -11.79)"/><path d="M132.22,239.54c-14,21-27.85,41.76-41.93,62.89a156.48,156.48,0,0,1-37.35-43.65c16.35-12.31,32.48-24.5,48.72-36.56.83-.62,3.09-.61,3.72,0C112.92,230,121.87,235.49,132.22,239.54Z" transform="translate(0 -11.79)"/><path d="M33.22,211.37l51.33-20.52L99.16,216.9l-50,37.52C43.75,239.74,38.58,225.82,33.22,211.37Z" transform="translate(0 -11.79)"/><path d="M286.6,216.88l14.66-26,50.13,20.06c-2.89,15.12-8.48,29.1-15.63,42.9Q310.8,235.08,286.6,216.88Z" transform="translate(0 -11.79)"/></svg>