<svg id="Layer_1" data-name="Layer 1" xmlns="http://www.w3.org/2000/svg" viewBox="0 0 341.26 359.23"><title>helmet-pegasus</title><path d="M21,0c6.69,3.53,9.43,9.64,10.92,16.6,1.79,8.44,1.9,16.75-2.44,24.52-3.39,6.07-9.1,6.9-13.09,1.3-2.94-4.13-4.3-9.42-6.27-14.23A34.43,34.43,0,0,1,9,24V17a30.56,30.56,0,0,0,1.11-3.65C11.12,7.58,13.33,2.65,19,0Z" transform="translate(-9)"/><path d="M341,0c4.66,2.31,7.12,6.28,8.11,11.18,2.16,10.74,1.66,21.17-4.81,30.53-4.13,6-10.27,5.7-14.06-.42-5.59-9-4.07-28.85,3-36.82,1.58-1.78,3.81-3,5.74-4.47Z" transform="translate(-9)"/><path d="M314.09,146.59c-5.62-1.18-10.58-1.12-14.29-3.24-7.57-4.33-14.47-9.82-21.61-14.89-1.63-1.16-3.11-4.06-5.1-1.17-.7,1,0,4.11,1.15,5.15,8.4,7.83,17.1,15.39,28.74,17.95,3.69.82,7.57.74,12.14,1.14.84,4.55,2.11,9.46,2.6,14.46,3.29,33.56-.47,65.92-17.59,95.71A81,81,0,0,1,289.05,277a39.85,39.85,0,0,0-8.26,13.89c-9.46,24.84-23.36,46.83-42.61,65.31-.71.67-1.45,1.32-3.35,3.06.9-5.88,1.6-10.44,2.3-15,1.26-8.17,2.41-16.35,3.89-24.48a6.49,6.49,0,0,1,2.94-4c28.32-15.49,41.12-40.38,43.1-71.59.64-10.05,1-20.28-.13-30.25-1.61-14.72-12.8-21.92-27.39-19.68-15.49,2.39-28.81,9.61-41.9,17.56-1.41.85-2.78,1.76-5.2,3.29-2.09-8.09-4.77-15.56-5.84-23.25-1.77-12.77-2.8-25.67-3.58-38.54a30.83,30.83,0,0,1,6.44-21.59c-12.06-.95-22.59,7.64-29.76,24.14-4.3-15.18-14.45-22.8-29.88-25,9.2,12.94,8.17,27,6.21,40.78-1.93,13.54-5.29,26.88-8.05,40.3a16.63,16.63,0,0,1-.92,2.43c-8.36-4.53-16.29-9.59-24.82-13.24a88.86,88.86,0,0,0-23.17-6.77c-13.75-1.79-24.93,3.29-26.71,21.64-2.13,22-.25,43.8,9.19,64.34,7.08,15.41,18.67,26.48,33.23,34.63,2.73,1.53,4,3.11,4.44,6.3,1.67,12.28,3.75,24.5,5.67,36.75l-1.25.92c-7-8.1-14.45-15.88-20.92-24.39A175.76,175.76,0,0,1,77.1,285.91a12.58,12.58,0,0,0-2.55-4.71c-16.47-16.43-25.17-36.83-29.95-59.08a169.35,169.35,0,0,1,.11-71c16.65,1.75,28.43-7.28,39.64-17.56.62-.56,1.52-1,1.75-1.74a32.58,32.58,0,0,0,.83-4.55c-1.53.15-3.46-.23-4.54.55C76.49,132.09,71.05,137,65,141a27.54,27.54,0,0,1-19.91,4.34C49.22,135,52.46,125.17,57,116,70.07,89.39,92.25,73,119.1,62.19a198.57,198.57,0,0,1,58.74-13.67c9.33-.73,19,1.87,28.44,3.72,23.13,4.55,45,12.36,64.43,26.19C293.72,94.84,306.62,117.77,314.09,146.59ZM153,86.56c-2.31,1-3.18,1.37-4.08,1.71a123.23,123.23,0,0,0-47.44,31.23C83.19,139,71.64,161.62,69.58,188.57c-.13,1.74,1.43,4.78,2.85,5.24,3.45,1.12,3.83-2,4.18-4.53.64-4.77.83-9.65,2-14.27,9.69-37,32.66-62.85,67.58-77.9,13.72-5.9,28-10.41,43.41-7.15q67.37,14.19,89.95,79.13c2.13,6.17,2.46,13,3.42,19.52.4,2.74.33,5.61,4.2,5.41,3.66-.19,3-3.1,2.8-5.25a84.42,84.42,0,0,0-1.58-13.31c-8.83-37.25-31.1-63.94-64.75-81.48-5.05-2.64-10.39-4.73-16.61-7.52,9.42-3.31,17.87-6.15,26.2-9.32,1.55-.59,2.6-2.49,3.88-3.78-1.8-.42-3.87-1.62-5.36-1.11-9.7,3.32-19.23,7.15-28.93,10.48a17.2,17.2,0,0,1-8.53.85c-8.2-1.64-16.35-3-24.57-.64-6.22,1.78-11.8.56-17.63-2-7.72-3.36-15.79-5.94-23.78-8.65-2-.67-4.92-2.2-5.69,1.25-.21.91,2.31,3,3.94,3.65C134.93,80.35,143.39,83.19,153,86.56ZM62.19,118.84c15.49,1.83,29.57.09,42-8.46,11.6-8,11.23-18.23-.33-26.38-4.07-2.86-7.9-2.85-11.85.09C79.72,93.25,70.42,105,62.19,118.84Zm234.73,0c-3.86-10.28-21.84-31.46-31-35.76-2.43-1.13-6.63-1.14-8.78.25-11.91,7.72-14.65,18.39-1,27.39C268.43,118.93,282.3,120.76,296.92,118.88ZM180,143.91c9.23-11.78,21.65-17.69,33.78-24.07-13.45.45-24.88,5.29-33.71,15.43-12.16-11.28-23.62-16.42-34.9-15.22C158.39,126.26,170.63,132.4,180,143.91Z" transform="translate(-9)"/><path d="M333.23,211c4.9-6.93,6.41-14.79,8-22.66.3-1.53,1.48-2.88,2.25-4.31.8,1.29,2,2.49,2.36,3.9,4.38,18.45,2.94,36-9.3,51.33-3.79,4.75-8.78,8.57-13.41,12.6-.95.83-2.75.69-5.38,1.26,4.55-8.92,9.41-16.31,8.26-26.36-.91,1.64-1.81,3.29-2.72,4.94l-.61-.63c1.2-8,2.56-16,3.56-24.09,3.59-28.82.4-56.91-10.59-83.8-2.69-6.59-2.66-12.53-1.55-19.14a266.54,266.54,0,0,1,13.82-50.93L342,55.36C341.25,106.71,336.94,158.79,333.23,211Z" transform="translate(-9)"/><path d="M32.64,52.92C36.23,66.07,40.15,80,43.8,94a87.86,87.86,0,0,1,2.7,15.14,24.47,24.47,0,0,1-1.27,10.57,185.15,185.15,0,0,0-12.58,54.88c-1.45,19.24,1,37.92,5,57.14l-4.82-5.33c-.69,10.33,5.16,17.63,8.46,25.69l-.92,1.11A26.72,26.72,0,0,1,35.66,251c-23.1-16.89-27.32-39.34-21.44-64.42.25-1.06,1.2-2,2.51-4l8,28.61,2.61-.46c-4.4-52-9-103.95-9.51-155.35Z" transform="translate(-9)"/><path d="M167.32,153.18c2.14,3.85,3.55,6.83,5.36,9.54,4.78,7.16,9.38,7.27,14.24.29,2-2.82,3.38-6,5.63-10.09.48,6.38.84,11.8,1.31,17.21,1.13,13.05,2.51,26.09,3.41,39.17a82.06,82.06,0,0,1-.34,17.8c-1.44,9.58-9.41,16.35-17.54,15.94-9-.45-17.16-8.83-17.1-18.84.07-11.1,1.09-22.19,1.9-33.27C165.08,178.7,166.2,166.5,167.32,153.18Z" transform="translate(-9)"/></svg>