<svg id="Layer_1" data-name="Layer 1" xmlns="http://www.w3.org/2000/svg" viewBox="0 0 437.77 485.42"><title>helmet-andromeda</title><path d="M255,349.73c11.44-21.6,21.68-43,28.44-65.74,3.43-11.54,5.75-23.4,8.89-35a10.12,10.12,0,0,1,4.15-5.54q50.06-30.16,100.36-59.93a13.85,13.85,0,0,0,6.26-7.79q31-82.84,62.07-165.64a4.88,4.88,0,0,1,1.82-2.54c-1.1,7.21-2.1,14.44-3.31,21.64-3.88,23.16-7.74,46.31-11.78,69.44-8.1,46.46-17.07,92.72-30.88,137.91A47.11,47.11,0,0,1,399.27,264Q328,306.67,256.75,349.31A10.07,10.07,0,0,1,255,349.73Zm190.27-272-1-.32c-.63,1.61-1.31,3.2-1.87,4.83-13.93,40.67-27.78,81.37-41.9,122a16.28,16.28,0,0,1-6.32,7.7c-12.49,7.87-25.26,15.29-38,22.85q-21.81,13-43.72,25.95c-1.39-4.4-2.5-8.58-4.1-12.55-.51-1.25-2.35-2-3.57-2.93-.87,1.54-2.77,3.36-2.44,4.57,4.58,16.56,9.5,33,14.26,49.56,1,3.53,3.28,3.31,5.05,1.34a6.94,6.94,0,0,0,1.1-5.56c-2-7.85-4.07-15.7-6.75-23.34-1.57-4.48-.18-6.35,3.67-8.44,27.56-15,55-30.16,82.49-45.19a11.66,11.66,0,0,0,6.08-7.87c9.49-34.58,19.19-69.11,28.83-103.65Q441.15,92.19,445.22,77.73Z" transform="translate(-29.17 -7.52)"/><path d="M240.8,350.31,139.24,289.55c-13.65-8.17-27.14-16.62-41-24.47-13.23-7.51-21-18.7-25.09-33.1A1167.84,1167.84,0,0,1,47,115.85Q38.05,64,29.25,12.12A6.09,6.09,0,0,1,30,8.21c3.55,9.36,7.14,18.71,10.65,28.09Q67,106.73,93.44,177.12a14,14,0,0,0,5.75,6.35c33.25,20,66.63,39.78,99.89,59.76,1.86,1.12,3.85,3.38,4.22,5.39,6.32,34.35,19,66.31,35.45,96.95C239.37,346.72,239.8,348,240.8,350.31ZM51.86,77.75l-.93.16a22.5,22.5,0,0,0,.42,2.85c12.1,43.31,24.16,86.63,36.5,129.87A13.58,13.58,0,0,0,93.64,218c18.17,10.33,36.56,20.27,54.87,30.35,10.87,6,21.71,12,32.52,18-2.89,10.37-5.47,20.29-8.46,30.08-1,3.31.82,4.58,3,5,1,.21,3.27-1.6,3.65-2.89,4.8-16,9.27-32.07,14.05-48.07.8-2.67.35-4.57-2.14-4.91-1.19-.17-3.35,1.51-3.91,2.84-1.57,3.75-2.54,7.75-3.84,12-1.22-.56-2.14-.88-3-1.37-26.68-15.89-53.38-31.72-79.94-47.81a13.8,13.8,0,0,1-5.19-6.83c-6.47-18.22-12.63-36.56-18.89-54.87Z" transform="translate(-29.17 -7.52)"/><path d="M248.19,175.48c4.58,7.18,9,13.36,12.63,20,7.89,14.37,15.74,28.78,22.76,43.58,1.56,3.27-.09,8.24-.74,12.36-4,25.36-21.16,70.51-35.25,92.73-4.68-9.62-9.32-18.75-13.61-28a289.56,289.56,0,0,1-22.55-72.25,7.93,7.93,0,0,1,.55-4.78q14.67-27.37,29.63-54.6C243.11,181.72,245.31,179.36,248.19,175.48Z" transform="translate(-29.17 -7.52)"/><path d="M109.15,303.93c6.85,8,13.53,14.79,18.93,22.49,2.53,3.61,2.85,8.9,3.68,13.51,1,5.38,1.13,10.89,2.15,16.25.51,2.65,2.59,5,3.18,7.64.93,4.14,2.11,8.56,1.57,12.64-1.22,9.12,2.72,14.61,9.77,19.81,15.24,11.25,29.92,23.26,44.73,35.08,1.37,1.1,2.79,3.1,2.83,4.72.49,18.29.71,36.59,1,54.88a13,13,0,0,1-.34,2c-5.19-8.48-10.23-16.49-15-24.63-7.25-12.23-13.76-24.95-21.8-36.63-3.23-4.71-9.54-7.41-14.67-10.67-6.15-3.92-12.7-7.2-18.74-11.27-2.51-1.7-5.2-4.42-6-7.18-3.71-13.33-6.8-26.84-10.1-40.29l1.36-.77c3.2,2.15,6.86,3.87,9.45,6.6a14.89,14.89,0,0,1,3.57,8.21,123.93,123.93,0,0,1,.18,16.47c-.11,3.59,1.43,5.75,4.37,7.68,13.6,8.92,27,18.17,40.65,27,3.37,2.17,5.28,4.68,5.73,8.54a56.73,56.73,0,0,0,1.33,7.8c.26,1,1.45,1.72,2.21,2.57.6-1,1.8-2,1.69-2.94a90,90,0,0,0-2.32-12.67,8.86,8.86,0,0,0-3.54-4.38Q153.8,412,132.38,397.79a6.81,6.81,0,0,1-3.5-6.4,178.13,178.13,0,0,0-1.09-19.87c-.27-2.31-2.26-4.41-3.48-6.6-.07-.12-.29-.15-.44-.21-10.91-4.25-15.53-12.35-14.68-23.84.1-1.33,0-2.67,0-4C109.15,326.25,109.15,315.64,109.15,303.93Z" transform="translate(-29.17 -7.52)"/><path d="M384.19,362.4c-1.58,15.09-4.5,29.59-10,43.48-.58,1.48-2.43,2.63-3.93,3.54-7.94,4.81-15.81,9.78-24,14.11-5.92,3.13-10.74,7.24-14,12.91-6.46,11.18-12.4,22.65-18.88,33.82-4.3,7.39-9.16,14.45-14.31,22.52,0-7.66,0-14.52,0-21.38,0-11,.24-22,.07-33a8,8,0,0,1,3.36-7.18c16.38-12.76,32.63-25.7,49.07-38.4,3.69-2.86,6.08-5.83,5.57-10.8a51.24,51.24,0,0,1,.14-10c.36-3.61.57-6.95,3.32-10.34,2.26-2.8,1.9-7.81,2.44-11.88.85-6.41,1.43-12.85,2.23-19.26a6.11,6.11,0,0,1,1.29-3.07c6.2-7.39,12.48-14.71,18.76-22a4.93,4.93,0,0,1,1.32-.72c0,11.13.14,22.05-.07,32.95A119.93,119.93,0,0,1,385,353.52c-.24,1.63-1.56,3.87-3,4.44-11.7,4.75-16.45,13.61-14.82,25.67,1.29,9.54-3.35,14.48-10.94,19-11.67,7-22.68,15-34.07,22.49-3.27,2.13-5.53,4.38-5.61,8.66-.06,3.09-1.3,6.15-1.66,9.26-.12,1,.84,2.2,1.3,3.3.94-.95,1.87-1.89,2.79-2.85a.75.75,0,0,0,.07-.48c-.25-9.31,4.61-14.78,12.45-19.41,12-7.08,23.14-15.55,34.85-23.1,3.42-2.2,4.74-4.75,4.6-8.58-.14-4,0-8,0-12C371,370,373.71,366.26,384.19,362.4Z" transform="translate(-29.17 -7.52)"/><path d="M224.83,146.44c-15.16,26.56-23,55.2-26.3,86.13l-64.4-38.36C149.39,171.17,196.75,144.88,224.83,146.44Z" transform="translate(-29.17 -7.52)"/><path d="M297.36,232.52c-3.61-30.65-11.08-59.43-27.05-87.12,37.8,4.3,67.14,21.31,92.24,48.24Z" transform="translate(-29.17 -7.52)"/><path d="M207.09,225.38c3.81-14.76,6.82-29.8,11.71-44.2,3.85-11.34,9.87-22,15.3-32.72.86-1.68,3.69-3.14,5.72-3.31a105,105,0,0,1,16.45,0,7.81,7.81,0,0,1,5.33,3.14c13.75,22.51,21.63,47.09,25.3,73.11a14.63,14.63,0,0,1,.25,5.17c-4-7.75-7.7-15.72-12.17-23.21-6.87-11.48-14-22.86-21.61-33.83-4.28-6.14-6-5.82-11-.29-11,12.21-17.83,27.05-25.46,41.37-2.72,5.09-5.28,10.26-7.91,15.4Z" transform="translate(-29.17 -7.52)"/><path d="M299.89,427.92c0-3.12,0-5.28,0-7.43-.05-4.75,2.67-6.56,7-7.45a20.76,20.76,0,0,0,8.4-3.6c8.91-6.94,17.5-14.31,26.31-21.39A14,14,0,0,0,347.12,377c1-20,2.5-40.06,3.58-60.09.09-1.62-1.49-3.45-2.57-5-1.76-2.5-3.33-5.08.11-7.16,12.55-7.63,25.2-15.08,37.71-22.54,4.43,12.31-2.59,20.2-9.9,28.1-4.4,4.76-8.68,9.66-12.63,14.79a14.52,14.52,0,0,0-2.34,6.82c-.89,7.06-1.19,14.21-2.28,21.23-.43,2.7-2.86,5.05-3.53,7.77-1.08,4.4-2.45,9.09-1.95,13.46,1.06,9.26-2.93,14.79-10.13,20-13.45,9.76-26.2,20.46-39.25,30.75C302.92,425.94,301.8,426.61,299.89,427.92Z" transform="translate(-29.17 -7.52)"/><path d="M196,428.3c-8.35-6.55-15.76-12.34-23.16-18.16-8.88-7-17.82-13.89-26.52-21.1a10,10,0,0,1-3.19-6c-.69-5.75-.7-11.58-1-17.37-.06-1.15.1-2.8-.56-3.35-6-5-6.49-12.55-5.88-18.75,1.45-14.95-7.37-24-16.06-33.61a37.76,37.76,0,0,0-2.66-3c-7.46-6.52-9.92-14.57-7.08-24.59,1.84,1,3.93,2.14,6,3.35q14.94,8.92,29.86,17.91c4.24,2.54,4.35,4.77,1.57,8.71a12.3,12.3,0,0,0-2,7.19c.77,15.72,1.85,31.44,2.85,47.16.27,4.3.26,8.65,1,12.87a12.37,12.37,0,0,0,3.42,6.76c9.27,8.08,18.8,15.87,28.36,23.6a14.53,14.53,0,0,0,6.1,3c8.32,1.62,9,2.28,9,10.58Z" transform="translate(-29.17 -7.52)"/><path d="M321.51,463.35c8.52-23.82,25.33-39.22,48.47-48.12-4.65,10.54-12,19.45-21,26.93S330.67,456.32,321.51,463.35Z" transform="translate(-29.17 -7.52)"/><path d="M126.88,414.94c9.12,5.36,18.49,10.36,27.23,16.27,3.38,2.29,5.57,6.51,7.9,10.12q6.81,10.53,12.74,21.68C156.6,449.13,135.9,437.93,126.88,414.94Z" transform="translate(-29.17 -7.52)"/></svg>