<svg id="Layer_1" data-name="Layer 1" xmlns="http://www.w3.org/2000/svg" viewBox="0 0 194.94 192.18"><title>zodiac-wheel-2</title><path d="M117.28,3.64c1.29.64,2.57,1.29,3.86,1.92a6.54,6.54,0,0,1,3,3.73,5.28,5.28,0,0,0,.32.59,8.75,8.75,0,0,1,6.18-2.37,8.27,8.27,0,0,1,7.47,5.08,7.88,7.88,0,0,1-1,8.49,8.19,8.19,0,0,1-8.37,3.22c-.8-.13-1.55-.41-1.35-1.44s1-1,1.78-.84a6.15,6.15,0,0,0,7-3.92,6.32,6.32,0,0,0-2.6-7.45,6.17,6.17,0,0,0-9.17,3.76c-1.43,5.41-2.89,10.8-4.33,16.2-.12.42-.25.84-.36,1.26-.19.81-.61,1.37-1.51,1.08s-1-.92-.73-1.74q2.35-8.61,4.65-17.23a6.18,6.18,0,1,0-8.29,3.9c.22.09.45.14.67.23.67.28,1.11.73.86,1.49s-.9.91-1.65.71a8.6,8.6,0,0,1-6-8.47A8.51,8.51,0,0,1,114,4c.38-.1.75-.23,1.13-.35Z" transform="translate(-2.32 -3.64)"/><path d="M2.32,87.64c1.35-2.37.83-1.88,3.3-3.61a19.82,19.82,0,0,1-.87-3.34,6.65,6.65,0,0,1,8.29-7c2.68.65,5.33,1.41,8,2.11a5,5,0,0,0,.56.09C21.68,71.5,23,69.4,26,68.81a5.6,5.6,0,0,1,5.94,3.11c1.21,2.7.3,5-2.95,7.43,1,1.92.18,3.8-.38,5.65a1.77,1.77,0,0,1-1.34,1c-.83,0-1-.78-.88-1.53s.44-1.53.61-2.31a2.05,2.05,0,0,0-1.67-2.8c-4.19-1.15-8.39-2.3-12.6-3.38a4.35,4.35,0,0,0-5.58,3.17c-.62,2.53.86,4.7,3.59,5.42C16,86,21.29,87.42,26.57,88.84c.2,0,.38.13.58.17.79.17,1.23.66,1,1.45s-.88,1-1.63.77l-8.91-2.39c-3.08-.82-6.16-1.67-9.25-2.48a2.73,2.73,0,0,0-3.57,1.56c-.73,1.49-1.45,1.55-2.5.2ZM23.9,74.16a3.08,3.08,0,1,0,6.16,0A3.07,3.07,0,0,0,27,71.05,3,3,0,0,0,23.9,74.16Z" transform="translate(-2.32 -3.64)"/><path d="M82.48,3.64a1.59,1.59,0,0,1,.14,2.47c-2.18,2.89-2.45,6.24-2,9.7.08.68.39.77,1,.59,1-.31,2.09-.54,3.12-.85a1.13,1.13,0,0,1,1.61.77c.21.8-.28,1.27-1,1.47l-3.94,1.07c.44,1,.78,1.88,1.25,2.73a11.81,11.81,0,0,0,5.9,5.55c.76.31,1.28.76.92,1.63s-1,.85-1.8.51a14.81,14.81,0,0,1-8-8.51c-.44-1.09-.88-1.38-2-.93a20.88,20.88,0,0,1-3.35.88c-.74.16-.92.47-.8,1.25a14.83,14.83,0,0,1-.41,7.34,29.09,29.09,0,0,1-2.18,4.36c-.41.74-1.11,1.14-1.89.51s-.44-1.23.06-1.88c2.4-3.15,2.63-6.73,2-10.66-1.37.34-2.63.63-3.88,1-.83.25-1.46.08-1.7-.77s.32-1.24,1.06-1.44c1-.26,2-.57,3-.81.65-.15.9-.38.61-1.07-1.35-3.23-3.3-5.9-6.61-7.38-.7-.32-1.44-.7-1.09-1.65s1.31-.78,2-.45a13.7,13.7,0,0,1,5.87,5,29.36,29.36,0,0,1,2,3.8c.29.65.58.84,1.25.64,1.26-.37,2.53-.73,3.82-1,.8-.17,1-.5.87-1.32A15.27,15.27,0,0,1,80.49,5.06c.32-.49.68-.95,1-1.42Z" transform="translate(-2.32 -3.64)"/><path d="M116.74,189.49a17.63,17.63,0,0,1-2.9.48,5.25,5.25,0,0,1-5.17-5,10.83,10.83,0,0,1,2.57-8.57c.19-.22.35-.49.52-.73l-.15-.4c-1.14.2-2.29.36-3.41.63-1.55.38-2.31.26-2.42-.59-.17-1.33.94-1.36,1.78-1.65,2.07-.72,4.1-1.06,6.08.32.2.14.68,0,1-.14a5.72,5.72,0,0,1,1.55-.57,1.91,1.91,0,0,1,1.44.64c.39.64,0,1.21-.71,1.51-1.58.71-1.6.71-1.15,2.32q1.93,6.85,3.91,13.7a2.74,2.74,0,0,0,3.43,2c1.63-.38,2.31-1.41,1.87-3.25-.56-2.37-1.29-4.7-2-7q-1.62-5.64-3.25-11.28c-.23-.79-.28-1.59.7-1.87s1.31.44,1.54,1.24c1.7,6,3.39,11.9,5.11,17.84.66,2.3,3.05,3.08,4.65,1.53a2.86,2.86,0,0,0,.62-3.1q-2-6.79-3.9-13.58c-.41-1.43-.79-2.85-1.22-4.27-.24-.78-.23-1.51.61-1.8s1.37.35,1.6,1.16c1.67,5.84,3.36,11.66,5,17.5.6,2.12,1.43,2.8,3.59,2.63.75-.06,1.28.16,1.43.91a1,1,0,0,1-1,1.31c-1.09,0-2.18-.22-3.27-.31-.33,0-.84-.05-1,.14-1.94,2.41-4.24,3.29-7.16,1.7-1.61,2.33-3.71,3.48-6.45,2.61S117.39,192,116.74,189.49Zm-.71-2.43c-.9-3.1-1.78-6.15-2.68-9.29-1.66,1.19-2.66,4.33-2.42,6.43C111.29,187.38,112.88,188.35,116,187.06Z" transform="translate(-2.32 -3.64)"/><path d="M27.31,164.3a5.31,5.31,0,0,1,1.75-3.93c3.35-3.3,6.68-6.61,10-10a5,5,0,0,0,1.4-2.26,3.42,3.42,0,0,0-.71-2.27,24.07,24.07,0,0,0-2.59-2.66c-.6-.59-.8-1.22-.14-1.87s1.22-.32,1.75.22c.87.89,1.77,1.74,2.63,2.63a4.88,4.88,0,0,1,0,7.09c-3.52,3.6-7.1,7.14-10.66,10.71-1.35,1.37-1.46,3.07-.26,4.23s2.81,1,4.14-.35c4.36-4.34,8.7-8.69,13.07-13a2.29,2.29,0,0,1,1.32-.62,1.08,1.08,0,0,1,.83.67,1.92,1.92,0,0,1-.39,1.37c-2.56,2.63-5.18,5.2-7.78,7.8q-2.74,2.76-5.48,5.53a2.82,2.82,0,0,0-.23,4.13,2.88,2.88,0,0,0,4.16-.32l10.74-10.76,2.37-2.37c.56-.55,1.2-1,1.88-.31s.35,1.36-.25,1.95c-4.21,4.21-8.44,8.4-12.61,12.65a5.81,5.81,0,0,0-1.5,2.47,3.25,3.25,0,0,0,.64,2.08c.4.68.59,1.24-.07,1.79a1.07,1.07,0,0,1-1.73-.38,10.69,10.69,0,0,1-1.14-2.7c-.17-.66-.24-1-1-1.1a4.71,4.71,0,0,1-4.45-4.26c-.1-.88-.34-1.19-1.26-1.28A4.87,4.87,0,0,1,27.31,164.3Z" transform="translate(-2.32 -3.64)"/><path d="M165,158.36a32.35,32.35,0,0,1,4.34,3.11,6.58,6.58,0,0,1-.17,9.11,6.8,6.8,0,0,1-9.15.62c-2.38-2-3.93-4.71-5.57-7.31a56.37,56.37,0,0,0-3.68-5.44c-2-2.5-4.89-2.53-7.18-.3l-.51.51c-.55.57-1.17.73-1.77.11s-.39-1.12.1-1.69c3.41-3.93,8.2-3.93,11.38.21,1.94,2.52,3.47,5.35,5.28,8a27.5,27.5,0,0,0,3.08,3.8,4.45,4.45,0,1,0,6-6.55,13.61,13.61,0,0,0-4.31-1.91c-2-.58-4.13-.92-5.9-2.22a6.83,6.83,0,0,1-2.63-7.31,6.74,6.74,0,0,1,6-5c2.88-.19,6.41,1.69,7.1,5a6.57,6.57,0,0,1-1.62,6.33C165.42,157.8,165.14,158.18,165,158.36Zm-3.75-10a4.47,4.47,0,1,0-.57,8.92,4.29,4.29,0,0,0,4.67-4.06C165.59,150.69,163.54,148.18,161.24,148.39Z" transform="translate(-2.32 -3.64)"/><path d="M158.85,35c.31-2.16.49-4.21.91-6.2a6.68,6.68,0,0,0-2-6.44,2,2,0,0,1-.49-1.54c.17-.82,1.16-.89,1.91-.19A8.39,8.39,0,0,1,162,29.41a9.23,9.23,0,0,0-.38,4.94,7,7,0,0,0,8.77,4.95c3.83-1.13,7.16-.58,10,2.43.56.6.76,1.15.21,1.76a1.08,1.08,0,0,1-1.77-.09c-2.23-2.55-4.93-2.69-8-1.85A27.82,27.82,0,0,1,166,42a9.79,9.79,0,0,1-2.14,7.84A8.89,8.89,0,0,1,156.21,53,9.16,9.16,0,0,1,148,43.27C148.37,37.85,152.55,34.75,158.85,35Zm4.92,9.36a6.74,6.74,0,1,0-7,6.35C160,50.89,164,48.07,163.77,44.38Z" transform="translate(-2.32 -3.64)"/><path d="M173,85.63a14.54,14.54,0,0,0-4.12-10.13,12.1,12.1,0,0,0-2.53-1.77c-.7-.4-1.09-.9-.77-1.63s1-.84,1.72-.51a11.87,11.87,0,0,1,5.21,4.78,1.34,1.34,0,0,0,1.81.73c4.07-1.14,8.16-2.23,12.26-3.3a1,1,0,0,0,.9-1.12,12.17,12.17,0,0,1,2.06-6.89c.49-.68,1.05-1.19,1.89-.58s.4,1.23,0,1.88c-2.19,3.51-2,7.24-.79,11,1,3.12,2.77,5.76,5.91,7.19a1.09,1.09,0,0,1,.61,1.58,1.12,1.12,0,0,1-1.64.48,11.63,11.63,0,0,1-5.29-4.85,1.43,1.43,0,0,0-2-.8c-3.87,1.11-7.77,2.13-11.67,3.14a1.43,1.43,0,0,0-1.31,1.6,11.64,11.64,0,0,1-2,6.66,2.38,2.38,0,0,1-1.22.82,1.14,1.14,0,0,1-.94-.54,1.4,1.4,0,0,1,.06-1.2A11.33,11.33,0,0,0,173,85.63Zm14.61-9.72-13.41,3.6.9,3.31,13.41-3.6C188.17,78.06,187.89,77,187.58,75.91Z" transform="translate(-2.32 -3.64)"/><path d="M17.49,122.56,6.81,116.41c.25,1,.41,1.82.6,2.59.25,1,.53,1.93.76,2.89.18.73-.06,1.41-.81,1.45A1.62,1.62,0,0,1,6,122.52c-.92-3-1.71-6.14-2.57-9.35,1-.27,1.82-.52,2.7-.75,2.11-.58,4.23-1.13,6.35-1.72.77-.21,1.5-.2,1.76.68s-.36,1.35-1.19,1.57c-1.61.41-3.22.87-5.19,1.4l10.73,6.2c.8-1.36,1.51-2.72,2.39-4a1.81,1.81,0,0,1,1.49-.48c.26,0,.49.79.57,1.24,0,.26-.24.58-.39.85-.64,1.14-1.29,2.28-2,3.54l5.95,3.45c1.49.86,3,1.73,4.46,2.58.75.42,1.08,1,.6,1.77s-1.1.61-1.77.22c-3.13-1.83-6.29-3.63-9.41-5.48-.75-.44-1.18-.41-1.58.42a29.85,29.85,0,0,1-1.61,2.8c-.39.64-.89,1.26-1.73.73s-.69-1.18-.27-1.89C16,125.13,16.71,123.92,17.49,122.56Z" transform="translate(-2.32 -3.64)"/><path d="M173,116.48a20.52,20.52,0,0,0-2.42,7.34c-.45,3.29-.43,6.53,1.27,9.55a1.08,1.08,0,0,1-.43,1.64,1.11,1.11,0,0,1-1.6-.56,13.54,13.54,0,0,1-1.78-6.88,23.4,23.4,0,0,1,5.69-16.22c1.77-2,3.93-3.37,6.82-3.07a6.81,6.81,0,1,1-6.83,9.88C173.51,117.7,173.33,117.22,173,116.48Zm6.82-5.93a4.49,4.49,0,1,0,4.44,4.54A4.5,4.5,0,0,0,179.84,110.55Z" transform="translate(-2.32 -3.64)"/><path d="M189.68,129.92a20.46,20.46,0,0,0,2.44-7.46c.43-3.21.37-6.38-1.23-9.33-.39-.71-.34-1.34.4-1.74s1.27.07,1.64.71a14.39,14.39,0,0,1,1.69,8.1c-.36,6.36-2.25,12.09-7.29,16.35a6.66,6.66,0,0,1-9.39-.56,6.36,6.36,0,0,1-1.3-7.21,6.78,6.78,0,0,1,12.34-.39C189.22,128.84,189.41,129.31,189.68,129.92Zm-11.22,1.52a4.39,4.39,0,0,0,4.5,4.42,4.46,4.46,0,0,0,4.43-4.52,4.38,4.38,0,0,0-4.53-4.39A4.31,4.31,0,0,0,178.46,131.44Z" transform="translate(-2.32 -3.64)"/><path d="M84.46,182.62c2.23.6,4.36,1.12,6.45,1.79a1.66,1.66,0,0,1,.85,1.3c0,.76-.69,1-1.42.85-1.16-.28-2.32-.58-3.47-.92-.65-.19-1,0-1.31.59a9,9,0,0,1-17-4.28c0-.92-.22-1.38-1.18-1.54s-1.92-.5-2.89-.75c-.79-.21-1.36-.66-1.12-1.53s.89-.92,1.64-.72c1.7.46,3.39,1,5.1,1.34,1,.21,1.19.57,1,1.55A6.62,6.62,0,0,0,74.61,188a6.73,6.73,0,0,0,9.44-4.13C84.16,183.53,84.29,183.15,84.46,182.62Z" transform="translate(-2.32 -3.64)"/><path d="M37.53,35c.08-2.38,1-4.16,3.23-5.08a4.83,4.83,0,0,1,5.15.88,1.15,1.15,0,0,1,.31,1.77c-.48.6-1.08.44-1.71.08a5.48,5.48,0,0,0-1.85-.7,2.28,2.28,0,0,0-2.39,1.26,2.73,2.73,0,0,0,0,2.85c.12.21.39.38.41.58,0,.5.15,1.2-.11,1.46s-1,.2-1.47.09c-.67-.17-1.28-.64-2-.74a2.32,2.32,0,0,0-2.46,1.35,2.61,2.61,0,0,0,.12,2.84c.44.65,1,1.26.32,2s-1.34.23-2-.23a2.73,2.73,0,0,0-3.52.3,3.09,3.09,0,0,0-.18,3.87c.36.52.57,1,.11,1.47s-1,.67-1.6,0a4.79,4.79,0,0,1-1-5.42,4.87,4.87,0,0,1,4.5-3c.15,0,.3,0,.44-.07C32.78,36.5,33.86,35.42,37.53,35Z" transform="translate(-2.32 -3.64)"/><path d="M43.9,41.41a5.32,5.32,0,0,1,2.32-4.62,5,5,0,0,1,5.83.21c.64.49,1.23,1,.62,1.88s-1.26.49-2,0a2.66,2.66,0,0,0-4.35,1.62,4.2,4.2,0,0,0,.55,2.23c.32.63.81,1.14.16,1.79s-1.27.3-1.9-.15a2.72,2.72,0,0,0-4.24,3.08c.15.4.56.72.66,1.12s.2,1.13,0,1.34-.95.23-1.45.29c-.08,0-.19-.13-.29-.2-1.41-1-2.76-.92-3.79.12A3.06,3.06,0,0,0,35.88,54a1.74,1.74,0,0,1,.19,1.43c-.48.75-1.19.67-1.81,0-1.48-1.52-2.13-5.17.52-7.09A18.9,18.9,0,0,1,37.73,47c.28-.13.67-.37.69-.6C38.78,43.14,40.68,41.6,43.9,41.41Z" transform="translate(-2.32 -3.64)"/><path d="M92.33,181.14c-1.4-.36-2.56-.65-3.72-1l-22-5.9c-.23-.07-.47-.12-.69-.2-.68-.24-1.16-.66-.93-1.43s.82-1,1.61-.78c2.16.6,4.32,1.16,6.48,1.74l18.7,5c.27.07.65.08.78.26a2.35,2.35,0,0,1,.61,1.35C93.18,180.6,92.59,180.9,92.33,181.14Z" transform="translate(-2.32 -3.64)"/></svg>